<svg id="Layer_1" data-name="Layer 1" xmlns="http://www.w3.org/2000/svg" viewBox="0 0 221.72 221.72"><defs><style>.cls-1{fill:#deeeb7;}</style></defs><polygon class="cls-1" points="193.66 171.74 141.64 151.54 141.59 207.34 111.38 160.43 78.54 205.55 81.67 149.83 28.59 167.03 63.87 123.8 10.81 106.51 64.77 92.27 32.01 47.1 84.03 67.3 84.07 11.49 114.29 58.41 147.13 13.29 143.99 69 197.08 51.8 161.8 95.04 214.85 112.33 160.9 126.56 193.66 171.74"/><path d="M83.07,106.08l1-1.61,1.35,8-.79-.74,6.89-1.17.37,2.22L85,113.93l.5-1,1.36,8-1.45-1.2,8.83-1.48.37,2.21-10.3,1.74-3.06-18.18,10.3-1.74.37,2.22Z"/><path d="M98,120l-2.21-13.09,2.68-.45,2.2,13.09Zm8.1-1.36-.94-5.55-.22-1.3-.16-.93a8.5,8.5,0,0,0-.23-1,3.49,3.49,0,0,0-.47-1,1.88,1.88,0,0,0-.84-.65,2.51,2.51,0,0,0-1.37-.08,2.87,2.87,0,0,0-1.36.58,2.74,2.74,0,0,0-.79,1,3.87,3.87,0,0,0-.31,1.31,5.76,5.76,0,0,0,.07,1.38L98.24,112a6.26,6.26,0,0,1,.14-2.9,5.13,5.13,0,0,1,1.38-2.32,4.63,4.63,0,0,1,2.5-1.2,4.39,4.39,0,0,1,2.58.22,3.65,3.65,0,0,1,1.64,1.5,6.88,6.88,0,0,1,.84,2.4l.22,1.32.32,1.89.89,5.26Zm8.06-1.36-.94-5.54-.22-1.36-.16-.92c-.06-.33-.14-.68-.24-1a2.84,2.84,0,0,0-.46-.94,1.89,1.89,0,0,0-.85-.63,2.82,2.82,0,0,0-1.39-.06,2.92,2.92,0,0,0-1.37.57,2.59,2.59,0,0,0-.78,1,3.74,3.74,0,0,0-.29,1.26,5.53,5.53,0,0,0,.06,1.29l-1.23-.4a6.2,6.2,0,0,1,.14-2.82,4.93,4.93,0,0,1,1.37-2.28,4.62,4.62,0,0,1,2.49-1.19,4.73,4.73,0,0,1,2.53.18,3.6,3.6,0,0,1,1.68,1.41,6,6,0,0,1,.86,2.35l.23,1.33.31,1.86.92,5.45Z"/><path d="M124.79,115.73a6.66,6.66,0,0,1-2.68,0,4,4,0,0,1-2-1,3.54,3.54,0,0,1-1-2,3.44,3.44,0,0,1,.32-2.3,4.52,4.52,0,0,1,1.7-1.66,10.65,10.65,0,0,1,2.69-1.1,27.2,27.2,0,0,0,3.21-1c.61-.25.89-.55.83-.88v0a1.71,1.71,0,0,0-1.11-1.37,4.75,4.75,0,0,0-2.52-.11,4.88,4.88,0,0,0-2.47,1,2.08,2.08,0,0,0-.59,2l-2.63.44A4.25,4.25,0,0,1,119,105a4.92,4.92,0,0,1,1.89-2,8.62,8.62,0,0,1,3.08-1.08,8.79,8.79,0,0,1,3.07,0,4.87,4.87,0,0,1,2.4,1.12,3.83,3.83,0,0,1,1.22,2.32l.08.51.09.51.88,5.23q.08.45.18.87a4,4,0,0,0,.27.74,2.42,2.42,0,0,0,.37.58,1.62,1.62,0,0,0,.31.3l-2.66.45a1.45,1.45,0,0,1-.27-.28,3,3,0,0,1-.35-.51,4.34,4.34,0,0,1-.29-.68c-.08-.27-.14-.55-.2-.86l.55.26a3.45,3.45,0,0,1-.9,1.43,6,6,0,0,1-1.65,1.13A8.56,8.56,0,0,1,124.79,115.73Zm.18-2.31a5.9,5.9,0,0,0,2-.72,3.32,3.32,0,0,0,1.32-1.36,3.06,3.06,0,0,0,.25-2l-.36-2.17.76.72a9.75,9.75,0,0,1-1.84.82c-.74.26-1.51.49-2.3.71a7.27,7.27,0,0,0-2.4,1,1.48,1.48,0,0,0-.6,1.55,1.61,1.61,0,0,0,.93,1.3A3.87,3.87,0,0,0,125,113.42Z"/><path d="M134.09,97.65a1.89,1.89,0,0,1-1.25-.18,1.24,1.24,0,0,1-.68-1,1.26,1.26,0,0,1,.33-1.12,2.1,2.1,0,0,1,2.36-.4,1.26,1.26,0,0,1,.68,1,1.28,1.28,0,0,1-.33,1.13A2,2,0,0,1,134.09,97.65Zm1.33,16-2.21-13.1,2.64-.44,2.21,13.09Z"/><path d="M141.18,92.89l3.25,19.27-2.64.44-3.24-19.26Z"/></svg>