<svg id="Layer_1" data-name="Layer 1" xmlns="http://www.w3.org/2000/svg" viewBox="0 0 697 129"><defs><style>.cls-1{fill:#deeeb7;}.cls-2{fill:#5fb49b;}</style></defs><path d="M483.05,65.78c-.25,2.12-.38,4.32-.78,6.46a46.5,46.5,0,0,1-2.64,9.81c-.7,1.64-2.27,2.44-3.46,3.61a.29.29,0,0,1-.23.09c-1.72-.43-3.79-.42-5-1.43-1-.83-1.4-2.87-1.4-4.38,0-2.17.7-4.34.93-6.52.35-3.37.47-6.76.86-10.12s.39-6.87,2.18-9.95a7.07,7.07,0,0,1,5.93-3.65,26.35,26.35,0,0,1,6.09.14,6.44,6.44,0,0,1,4.59,3.35c1.46,2.59,2.14,5.44,3.09,8.21s1.93,5.53,3,8.25A29.87,29.87,0,0,0,498.31,74c.63,1,1,1,1.45-.22a45.5,45.5,0,0,0,2.75-15c.12-4.21.26-8.42.48-12.62.17-3.22.87-3.84,4.09-3.73a47.74,47.74,0,0,1,5.21.44,7.16,7.16,0,0,1,2.37.88,1.6,1.6,0,0,1,.74,2,83.08,83.08,0,0,0-1.95,16.93,44.47,44.47,0,0,1-2.51,13.28c-.67,1.88-.81,3.94-1.38,5.87a5.29,5.29,0,0,1-3.28,3.48c-2.91,1.13-5.55.52-8.16-1.14-1.51-1-3.3-1.51-4.59-2.87-.75-.79-1.63-1.46-2.35-2.28a27.33,27.33,0,0,1-5.09-7.25C485.22,69.64,484,67.7,483.05,65.78Z"/><path d="M431.92,68.32c-.14.77-.3,1.53-.43,2.3-.35,2.08-.73,4.15-1,6.24-.15,1.13-.1,2.29-.22,3.42-.3,3.08-.65,6.15-1,9.22a3.08,3.08,0,0,1-3.06,2.81,15.39,15.39,0,0,0-2.25.29,4.46,4.46,0,0,1-5.2-4.31,84.66,84.66,0,0,1,1.38-12.38c.57-3.26.83-6.58,1.25-9.87a71.53,71.53,0,0,1,1.08-7.31c.48-2.08,1.31-4.11,3.3-5.32a2.26,2.26,0,0,1,1.15-.48A27,27,0,0,1,434.43,54a7.06,7.06,0,0,1,3.85,3.54,49.08,49.08,0,0,1,3.53,7.74,20,20,0,0,0,3.47,6.38,19.31,19.31,0,0,1,1.31,1.56c.51.74.94.59,1.12-.14a48.55,48.55,0,0,0,1.6-8.08c.45-5.75-.11-11.59,1.31-17.26a8.64,8.64,0,0,1,.82-2.37,3.54,3.54,0,0,1,2.93-1.64,15.42,15.42,0,0,1,7.58,1c1.16.48,1.31,1.24.8,2.1-2.21,3.79-2.56,7.94-2.55,12.19,0,2.63,0,5.28-.25,7.9a44.86,44.86,0,0,1-2.44,11.13,1.53,1.53,0,0,0-.14.48c.23,1.94-1.1,3.17-2.35,4.07-.89.64-2.36.55-3.58.61-2.24.12-4.16-.92-6.15-1.79a23.21,23.21,0,0,1-5.9-4.11,23.34,23.34,0,0,1-5.64-6.81,23.79,23.79,0,0,0-1.42-2.22Z"/><path d="M393,98.29a16.37,16.37,0,0,1-8.44-1.7c-6.65-3.28-10.28-9.11-9.22-17.2a20.2,20.2,0,0,1,3.67-9.66,43.46,43.46,0,0,1,5-6.3,16.08,16.08,0,0,1,11.48-4.13c2.6.05,5.19.6,7.8.86,1.55.15,3.16,0,4.67.26,2.4.49,2.84,1.4,2.52,3.83a8.46,8.46,0,0,0,.15,2.79c.38,1.89.9,3.76,1.35,5.65a21.21,21.21,0,0,1-.4,12.64,24.41,24.41,0,0,1-2.58,4.35,35.69,35.69,0,0,1-2.29,3.19,10.55,10.55,0,0,1-5.47,3.72C398.51,97.34,395.87,98.65,393,98.29Zm8.44-23.17-.18,0a7,7,0,0,0-.1-1.13c-.61-2.51-1.21-5-1.92-7.51a1.43,1.43,0,0,0-1.16-.74,8.51,8.51,0,0,0-6.29,4c-1.08,1.75-2.67,3.26-3.4,5.13a24.94,24.94,0,0,0-1.72,7.51c-.21,3.57.5,7,4.27,8.76a3.93,3.93,0,0,0,2.88.21,14.33,14.33,0,0,0,4.05-2.89c1.9-2,2.41-4.7,3.07-7.22A32.73,32.73,0,0,0,401.48,75.12Z"/><path d="M540.09,68.34l5.25-1.48a7.13,7.13,0,0,1,1.47-.4c1.77-.12,3.55-.23,5.33-.23a2.65,2.65,0,0,1,2.64,1.65A2.72,2.72,0,0,1,554.1,70a8.52,8.52,0,0,1-2.18,1.5,57.15,57.15,0,0,1-10.3,4.66c-.75.27-1.58.3-2.36.51-1,.25-1.65.74-1.5,1.88a48,48,0,0,0,.92,6,2.94,2.94,0,0,0,2.56,2c3.55.51,6.46-1,9.33-2.7,1.57-.91,2.94-2.2,4.56-3,2-1,4.21-1.59,6.4-.27a2.46,2.46,0,0,0,.47.2c1.57.58,1.92,1.68.88,3-1.2,1.54-2.24,3.35-3.78,4.45-2.39,1.72-4.65,3.72-7.63,4.59a28.54,28.54,0,0,1-8.18,1.26,26.38,26.38,0,0,1-2.91-.39c-4.14-.47-7.58-2.51-10.85-4.9-2-1.46-2.35-3.85-3.27-5.94s-.58-4.41-.43-6.6a48.13,48.13,0,0,1,1-6.64,15.5,15.5,0,0,1,1.25-3.45,96.06,96.06,0,0,1,4.47-9,29.82,29.82,0,0,1,4.75-5.55,20,20,0,0,1,4.3-3.1A8.14,8.14,0,0,1,547,47.43c2,.31,4.16.25,6.18.65a6.12,6.12,0,0,1,2.48,1.68c.54.49,0,2.21-.87,2.59-1.26.56-2.62.92-3.83,1.55a12.35,12.35,0,0,0-3.22,2.23,42.32,42.32,0,0,0-4.48,5.44c-1.35,2-2.38,4.23-3.55,6.37Z"/><path d="M256.8,57.7c1.12-.39,2.23-.8,3.36-1.17a2.83,2.83,0,0,1,.88-.11,46,46,0,0,1,5.87,0A7.11,7.11,0,0,1,270.15,58c1,.75.88,1.75,0,2.66a5.56,5.56,0,0,1-5.05,2.1,17.72,17.72,0,0,0-4-.26,26.91,26.91,0,0,0-3.91.89,13.67,13.67,0,0,0-6.55,2.92c-.9.83-.86,1.63.27,2.17a6.91,6.91,0,0,0,1.33.44,41.37,41.37,0,0,1,13.83,6.57,66.07,66.07,0,0,1,6.87,4.94c2.38,2.11,5,4.12,6.34,7.17.35.76,1,1.42,1.29,2.19.8,1.82,1.11,3.62-.12,5.46-.93,1.39-1.08,3.27-2.65,4.25a23.74,23.74,0,0,1-6.85,3c-5.38,1.37-10.38.23-15.4-1.72a25.76,25.76,0,0,1-8-5.29c-1.58-1.45-1.15-3.09.86-3.9a14.39,14.39,0,0,0,2.41-1.63,3.41,3.41,0,0,1,4.1.7c1.9,2.33,4,4.37,7.2,4.83a5.57,5.57,0,0,1,1.06.42c2.48,1,5.8-.25,6.45-2.6a5.3,5.3,0,0,0-.17-2.61c-.83-3.06-3.07-5.14-5.3-7.18a41.74,41.74,0,0,0-11.76-7.28c-2.64-1.16-5.23-2.62-8.28-2.76a10,10,0,0,1-6.39-3,3,3,0,0,1-.33-4,56,56,0,0,1,4.9-4.59c3-2.5,6.74-3.06,10.37-3.87,1.32-.29,2.68-.45,4-.67Z"/><path d="M136,78.4a37.26,37.26,0,0,0,5,.83,16.1,16.1,0,0,0,3.85-.62c1.2-.27,2.36-.68,3.57-.93a3.17,3.17,0,0,1,3,2.14.86.86,0,0,1,0,.6c-1.06,1.38-1.88,2.81-3.64,3.73-2.64,1.39-5.61,1.61-8.22,2.95-.7.36-1.52.49-2.21.86-.34.18-.79.73-.72,1a15,15,0,0,0,1.18,3.71A9.81,9.81,0,0,0,140.3,96a5.58,5.58,0,0,0,3.55,1,52.7,52.7,0,0,0,7.45-1.45,4.36,4.36,0,0,1,5.09,1.89.87.87,0,0,1,.12.7c-.84,1.5-1.37,3.24-3.16,4s-3.57,2.18-5.77,2.55a18,18,0,0,1-7.7,0c-2.91-.75-5.87-1.55-8.33-3.37-2.63-2-5-4.27-5.87-7.6a65.73,65.73,0,0,1-1.76-7.53,16,16,0,0,1,.22-5.2,65.13,65.13,0,0,1,2.33-9.37A17.77,17.77,0,0,1,133,62.49a11.1,11.1,0,0,1,3.63-1.4c4.59-1.09,9.27-.93,13.93-.58,2,.15,3.28,1.4,3.14,2.83a4.4,4.4,0,0,1-3.8,3.76,24.27,24.27,0,0,1-7.07.18,4.07,4.07,0,0,0-2.58,1.11c-1.46,1.19-1.95,3-2.53,4.71-.25.71-.92,1.27-1.14,2A29.57,29.57,0,0,0,136,78.4Z"/><path d="M178.49,83.91c-.14-2-.4-4-.4-6.07,0-3,.12-6.08.3-9.11.05-1-.38-1.24-1.18-1.15s-1.83.28-2.75.42a6.32,6.32,0,0,1-.75.06c-1.76,0-3.53,0-5.29,0s-3.49.25-5-.25-3.31-.82-4.24-2.47c-.65-1.14-.58-1.65.52-2.32a13,13,0,0,1,6.41-1.88,103.86,103.86,0,0,1,11.7-.13c4.62.36,9-.83,13.55-1.21,2.16-.18,4.24-1.15,6.38-1.66A56,56,0,0,1,204,56.92a4.12,4.12,0,0,1,2.48.8,1.74,1.74,0,0,1,.31,1.68,6,6,0,0,1-2.07,2.26,28.52,28.52,0,0,1-8.76,3.19A24.86,24.86,0,0,0,192,66a1.52,1.52,0,0,0-.75.89,32.37,32.37,0,0,0-1.09,12.61c.3,3.86.53,7.72.9,11.57a21.76,21.76,0,0,0,.89,4.21c.64,2.09,1.46,4.14,2.15,6.22a3.49,3.49,0,0,1-2.53,4.53,9,9,0,0,1-6.26-.87c-3.49-1.54-4.5-4.53-5.05-7.82-.74-4.44-1.35-8.9-2-13.35Z"/><path d="M97.61,103.11c4.11.19,8.24.26,12.34.62,1.87.16,3.57,1,3.74,3.33a1.6,1.6,0,0,1-.3,1.11,7.8,7.8,0,0,1-6.26,2.56c-3.86-.15-7.74,0-11.61.12a14.71,14.71,0,0,1-7.14-1.6c-1.18-.59-2.62-.83-3.55-1.66A8.74,8.74,0,0,1,82,99.93c.3-3.21.94-6.4.93-9.61a59.26,59.26,0,0,1,1.06-10c.46-2.71.87-5.43,1.43-8.12.46-2.2,1.2-4.33,1.6-6.53a17.42,17.42,0,0,0,.09-4.27,1.73,1.73,0,0,1,1.22-2c2.64-.86,5.3-1.73,8-2.35a6.13,6.13,0,0,1,3.1.52c1.08.38.91,1.51.73,2.32-.57,2.57-1.32,5.09-1.93,7.65s-1.15,5.11-1.69,7.68c-.8,3.86-1.73,7.71-2.32,11.6-.48,3.22-.53,6.51-.77,9.76a5.6,5.6,0,0,1,0,1c-.57,1.87.3,3.41,1.15,4.93a1.78,1.78,0,0,0,1.15.61,12.29,12.29,0,0,0,1.92,0Z"/><path d="M650.67,47.33a15.83,15.83,0,0,1-3.29,1.32c-3.48.58-7,1-10.49,1.42-1.69.2-3.4.27-5.08.5a1.45,1.45,0,0,0-1.06.78c-.46,2-.85,3.95-1.13,5.95-.38,2.65-.64,5.32-1,8-.21,1.77-.52,3.54-.63,5.31-.17,2.5-.26,5-.25,7.51a24.9,24.9,0,0,0,.46,4.29,7.06,7.06,0,0,0,1.94,4.18,1.94,1.94,0,0,1,.49,2.65,5,5,0,0,1-2.93,1.46c-3.35.33-5.77-1.41-7.8-3.94a10.9,10.9,0,0,1-2.13-5.87,60.54,60.54,0,0,1,.71-17.77c.51-3,.6-6,.92-9a13.79,13.79,0,0,1,.46-2.47c.25-.86,0-1.22-.87-1.17-2,.11-4.09.13-6.12.36-2.71.31-4.71-1.13-6.73-2.52a7.55,7.55,0,0,1-1.6-1.64c-.94-1.21-.62-2.41.85-2.74a50.75,50.75,0,0,1,5.63-.9c3-.35,5.9.17,8.85.36,3.3.21,6.63-.08,9.94-.11,3.91,0,7.83-.12,11.74,0a19.24,19.24,0,0,1,5.62,1.08,15.8,15.8,0,0,1,3.47,2.41Z"/><path d="M580.24,81.47c3,.68,5.77-.83,8.62-1.81,2.38-.82,4.54-2.32,6.93-3.07,1.67-.52,3.13-2.12,5.11-1.4a3.87,3.87,0,0,1,1.84,1.12c.49.71.12,1.48-.46,2.19a34.54,34.54,0,0,0-2.11,3.06c0,.07-.07.16-.13.21-2.23,1.75-4.06,4-6.93,4.92-4.39,1.47-8.8,2.45-13.44,1.93-2.84-.32-5.66-.79-8.1-2.41a46.9,46.9,0,0,1-4.28-3.13c-2.39-2-2.86-4.83-3.15-7.66-.37-3.72.82-7.15,2.54-10.37,1.38-2.58,2.91-5.07,4.44-7.56a14.31,14.31,0,0,1,1.61-1.79,27.91,27.91,0,0,1,1.93-2.12,37.77,37.77,0,0,1,3.08-2.43c.69-.51,1.44-.91,2.15-1.37a9.47,9.47,0,0,1,7.37-1.09,61.54,61.54,0,0,1,6,1.66c.74.22,1.56.4,1.37,1.61s-.69,2.07-2,2.29a15.07,15.07,0,0,1-1.64.24c-3.17.25-5.31,2.17-7.29,4.41a38.12,38.12,0,0,0-2.85,3,64.17,64.17,0,0,0-3.52,5.87,20.91,20.91,0,0,0-2.53,8c-.17,1.81,0,3.61,1.49,4.9a4.28,4.28,0,0,0,1.92.75A11,11,0,0,0,580.24,81.47Z"/><path d="M367.19,61a32.8,32.8,0,0,1-3.52,1.09,7,7,0,0,1-2.63,0c-3.19-.6-5.41,1.07-7.29,3.21a24,24,0,0,0-4.61,8.42c-1.77,5.28-1.34,10.19,2.34,14.47,1.58,1.82,3.95,2.23,6.33,2.09a8.19,8.19,0,0,0,1.62-.34,4.32,4.32,0,0,1,4.21,1.41c.38.54.38,1-.19,1.67-1.83,2.31-4.22,2.55-6.88,2.8a23.9,23.9,0,0,1-10.06-1.09,13,13,0,0,1-3.71-1.89c-4.19-3.27-6.68-7.37-6.57-13a25.85,25.85,0,0,1,3.1-12.2,24.16,24.16,0,0,1,10-10.06A19.61,19.61,0,0,1,362,56a7.75,7.75,0,0,1,3.38,1.24A4.12,4.12,0,0,1,367.19,61Z"/><path d="M226.34,50.25a36.15,36.15,0,0,1,3.81.55,2.61,2.61,0,0,1,1.52,3.81,10.68,10.68,0,0,0-1.92,5.33c-.24,1.94,0,3.94,0,5.92a2.94,2.94,0,0,1-.49,1.65,4.77,4.77,0,0,1-5.45,1.61c-1.46-.49-2.89-1.09-4.31-1.69-1.58-.66-1.92-2.07-2-3.55a32.67,32.67,0,0,1,1.92-11,2.33,2.33,0,0,1,1.37-1.33C222.69,51,224.64,50.62,226.34,50.25Z"/><path class="cls-1" d="M17.15,77.83a37.26,37.26,0,0,1,1.55-3.66c.52-1,2.47-1.65,3.13-1a5.12,5.12,0,0,1,1.56,2.93,4,4,0,0,1-3.05,3.82,1.13,1.13,0,0,1-.24.08c-.58.1-1.47.48-1.69.24A10.58,10.58,0,0,1,17.15,77.83Z"/><path class="cls-2" d="M401.48,75.12a32.73,32.73,0,0,1-.5,6c-.66,2.52-1.17,5.26-3.07,7.22a14.33,14.33,0,0,1-4.05,2.89,3.93,3.93,0,0,1-2.88-.21c-3.77-1.72-4.48-5.19-4.27-8.76a24.94,24.94,0,0,1,1.72-7.51c.73-1.87,2.32-3.38,3.4-5.13a8.51,8.51,0,0,1,6.29-4,1.43,1.43,0,0,1,1.16.74c.71,2.49,1.31,5,1.92,7.51a7,7,0,0,1,.1,1.13Z"/></svg>