<svg id="Layer_1" data-name="Layer 1" xmlns="http://www.w3.org/2000/svg" viewBox="0 0 185.96 95.97"><defs><style>.cls-1{fill:#97dfaf;}</style></defs><path class="cls-1" d="M88.7,93.59l39.08-15.71,39.09-15.71a4.19,4.19,0,0,0,1-7.18L134.74,29,101.59,3a4.49,4.49,0,0,0-4.32-.62L58.18,18.09,19.09,33.8a4.19,4.19,0,0,0-1,7.18L51.22,67,84.37,93a4.54,4.54,0,0,0,4.33.61Z"/><path d="M66.71,53.7l3.54-13.29h3.07l3.5,13.29h-2l-3-12.05h0L68.72,53.7Zm2.05-3.37V48.71h6v1.62Z"/><path d="M78.73,53.7V39.65h2V53.7Zm5,.18a4,4,0,0,1-2.07-.56,4.37,4.37,0,0,1-1.54-1.54,4.23,4.23,0,0,1-.59-2.22v-.11l1.13,0v.09a2.33,2.33,0,0,0,.39,1.32,2.68,2.68,0,0,0,1,.93,2.61,2.61,0,0,0,1.31.34,2.65,2.65,0,0,0,1.94-.78,3.32,3.32,0,0,0,.78-2.42,3.32,3.32,0,0,0-.78-2.43,2.67,2.67,0,0,0-1.94-.77A2.72,2.72,0,0,0,81.08,47a2.34,2.34,0,0,0-.39,1.33l-1.13,0a4.11,4.11,0,0,1,.59-2.2,4.25,4.25,0,0,1,1.54-1.5A4.15,4.15,0,0,1,83.76,44a4.16,4.16,0,0,1,3.74,2.24,5.38,5.38,0,0,1,.61,2.67,5.67,5.67,0,0,1-.6,2.72,4.08,4.08,0,0,1-1.58,1.68A4.26,4.26,0,0,1,83.76,53.88Z"/><path d="M94.87,53.88a5.24,5.24,0,0,1-2.6-.64,4.58,4.58,0,0,1-1.76-1.76,5.14,5.14,0,0,1-.63-2.56,5.08,5.08,0,0,1,.63-2.55,4.53,4.53,0,0,1,1.76-1.74,5.78,5.78,0,0,1,5.21,0,4.6,4.6,0,0,1,1.76,1.74,5.08,5.08,0,0,1,.63,2.55,5.14,5.14,0,0,1-.63,2.56,4.65,4.65,0,0,1-1.76,1.76A5.28,5.28,0,0,1,94.87,53.88Zm0-1.68a3.08,3.08,0,0,0,1.59-.4,2.75,2.75,0,0,0,1.06-1.15,3.65,3.65,0,0,0,.39-1.73,3.58,3.58,0,0,0-.39-1.72,2.67,2.67,0,0,0-1.06-1.12,3.08,3.08,0,0,0-1.59-.4,3,3,0,0,0-1.57.4,2.71,2.71,0,0,0-1.08,1.12,3.7,3.7,0,0,0-.38,1.72,3.77,3.77,0,0,0,.38,1.73A2.79,2.79,0,0,0,93.3,51.8,3,3,0,0,0,94.87,52.2Z"/><path d="M105.51,53.87a3.71,3.71,0,0,1-1.69-.35,2.89,2.89,0,0,1-1.07-.91,3.6,3.6,0,0,1-.55-1.23,5.4,5.4,0,0,1-.16-1.31V44.15H104v5.43a4.24,4.24,0,0,0,.18,1.27,1.89,1.89,0,0,0,.64.94,2,2,0,0,0,1.27.35,2.08,2.08,0,0,0,1.33-.45,3.13,3.13,0,0,0,.88-1.15,3.38,3.38,0,0,0,.31-1.4l.86.46a4.51,4.51,0,0,1-.28,1.59,4.43,4.43,0,0,1-.78,1.37,3.83,3.83,0,0,1-1.25,1A3.76,3.76,0,0,1,105.51,53.87Zm3.09-.17V44.15h2V53.7Z"/><path d="M117.1,53.86a5,5,0,0,1-.95-.1,2.37,2.37,0,0,1-.86-.37,1.88,1.88,0,0,1-.63-.75,3.19,3.19,0,0,1-.23-1.3V45.77h-2.29V44.15h1.2a4.82,4.82,0,0,0,.61,0,.51.51,0,0,0,.32-.15.71.71,0,0,0,.13-.39,7.12,7.12,0,0,0,0-.74V41h1.95v3.15h2.92v1.62h-2.92v4.92a3.18,3.18,0,0,0,.17,1.14.79.79,0,0,0,.81.41,2.78,2.78,0,0,0,.51,0,2.64,2.64,0,0,0,.37-.1v1.59a2.39,2.39,0,0,1-.46.11A3.51,3.51,0,0,1,117.1,53.86Z"/></svg>