<svg id="Layer_1" data-name="Layer 1" xmlns="http://www.w3.org/2000/svg" viewBox="0 0 1446.35 549.42"><defs><style>.cls-1{fill:#deeeb7;}.cls-2{fill:#97dfaf;}.cls-3{fill:#682d63;}.cls-4{fill:#5fb49b;}.cls-5{fill:#414288;}.cls-6{fill:#fff;}</style></defs><path class="cls-1" d="M1299.48,203.73s-11.68,33.1-11.71,33.52,18.65,2.91,18.65,2.91V203.73Z"/><path d="M1212.44,464.75c.53,4.52-1.63,7.05-4.32,9.1-3.79,2.89-7.77,5.55-11.7,8.26-10.12,7-20.35,13.81-30.37,20.95a85.41,85.41,0,0,1-17.11,9.22c-6,2.49-11.89.75-17.7-1.43-10.74-4.05-16.66-12.91-22.66-21.87-3.61-5.39-7.66-10.5-11.77-15.51a5.63,5.63,0,0,0-7.47-1.51,94.22,94.22,0,0,0-10.82,6.26c-5.48,4-10.53,8.57-16,12.66q-9.51,7.17-19.38,13.87a31.54,31.54,0,0,1-14.09,5.4c-7.81.87-14-2.34-19.48-7.67a79.82,79.82,0,0,1-16.34-23.85,81.89,81.89,0,0,0-4.69-8.31c-1.63-2.65-2.82-3.27-5.81-2.24a27.6,27.6,0,0,0-8.07,4c-5.56,4.38-10.79,9.2-16.18,13.81-6.15,5.26-12.09,10.8-18.56,15.63-5.61,4.18-12,6.94-19.29,7.06a16.91,16.91,0,0,1-9.83-3,42.45,42.45,0,0,1-14.35-15.95C893.76,484.4,891,479.12,888,474a18.1,18.1,0,0,0-5-5.35c-2.92-2-6-.62-8.48,1.09-4.16,2.85-8,6.12-12.08,9.18-6.1,4.63-11.92,9.72-18.41,13.72a39.93,39.93,0,0,1-23.6,6.26c-5.25-.33-9.75-2.73-13.7-6-8.15-6.71-14.13-15.22-19.7-24.09-2.53-4-5.33-7.91-8.1-11.79-1.4-2-3.67-2-6,.12-4.07,3.67-7.84,7.67-12,11.2-6,5-11.28,10.76-17.68,15.34-6.71,4.8-18.14,5.21-25.39-1.12-4.38-3.84-8.56-7.78-11.64-12.71-2-3.15-3.37-6.66-5.28-9.86-2.07-3.48-4.37-6.82-6.69-10.13a16.81,16.81,0,0,0-2.6-2.49c-3.22.84-5,2.86-6.82,5C678.59,460,672.52,467.8,666,475.14a170.1,170.1,0,0,1-13.77,13.2c-7,6.29-18.82,5.67-25.89-.51a77.23,77.23,0,0,1-17.75-21.66,66.67,66.67,0,0,0-10.48-14.31,22.59,22.59,0,0,1-5.64-8.63c-.68-2.12,0-3.33,1.9-4.16a8.51,8.51,0,0,1,7-.06c5.75,2.15,8.71,6.25,11.66,11.42,4.85,8.46,9.22,17.34,16,24.61,4,4.34,7,4.82,11.71,1.47a30,30,0,0,0,4.33-3.61c8.4-8.79,16.63-17.71,23.74-27.63a49.61,49.61,0,0,1,9.78-10.41c4.26-3.27,9.24-3.66,14.71-1.8,5.14,1.75,8.22,5.23,10.82,9.43,4,6.5,8.37,12.78,11.72,19.73,1.77,3.66,5,6.66,7.62,9.86,1.47,1.77,3.44,1.8,5.58,1.23,4.36-1.17,7.86-3.82,11-6.84,6.94-6.78,13.56-13.87,20.38-20.77a40.42,40.42,0,0,1,5.82-5.13,9.48,9.48,0,0,1,7.43-1.47c7.55,1.47,12.64,6,16.41,12.41,3.3,5.61,6.41,11.36,10.06,16.74,3.41,5,7.33,9.69,11.21,14.36,2.5,3,5.85,3.85,9.79,3.37,6.87-.83,12.75-3.85,18.08-7.92,9.2-7,18.23-14.29,27.28-21.51,3.25-2.59,6.65-4.47,11-4.48a16.28,16.28,0,0,1,11.17,4,41,41,0,0,1,10.14,13.38c3,6.26,6.26,12.38,9.64,18.44,1,1.83,2.76,3.28,4.25,4.83,2.45,2.54,5.48,2.39,8.51,1.52,7-2,12.74-6.14,18.1-10.85,4.24-3.72,8.36-7.58,12.45-11.46,1.65-1.57,3.09-3.36,4.63-5.05.28-.31.54-.79.89-.89,3.87-1.1,5.92-4.54,8.86-6.83q2.05-1.6,4-3.29c7.85-6.62,18.4-2.74,23.38,2,3.87,3.68,6.17,8.31,8.56,12.93,3.27,6.29,6.42,12.64,9.88,18.82,4.8,8.57,13.07,10.88,22.21,5.67,8.22-4.68,15.43-10.73,22.82-16.53,7.17-5.63,14.12-11.53,21.22-17.25,3.84-3.11,8.21-5,13.24-4.38a11.92,11.92,0,0,1,5.65,1.9c4.88,3.8,9.49,7.76,12.79,13.34a175.11,175.11,0,0,0,15.46,22.4c4.16,5,10.32,7.26,17.16,6.4a28.79,28.79,0,0,0,12.59-4.42c6.39-4.23,12.77-8.5,19.35-12.41,7.07-4.2,14.38-8,21.58-12,3.15-1.75,6.26-3.56,9.44-5.25C1207.54,466,1209.59,464.6,1212.44,464.75Z"/><path d="M588.33,236.64c-.9,1.67-1.36,2.39-1.69,3.17a11,11,0,0,1-5.64,5.64,81.31,81.31,0,0,1-12.91,5c-5.44,1.69-10,0-14.27-3a29.57,29.57,0,0,1-5.28-5.15c-2.1-2.53-1.5-4.54,1.57-5.51A25.51,25.51,0,0,1,556,235.6a16.47,16.47,0,0,0,10.61-4.35c2.37-2.26,2.81-5.23.8-7.79a83.73,83.73,0,0,0-7.45-8.4c-3.31-3.21-6.91-6.12-10.63-9.37a22.36,22.36,0,0,0-4.11,2.42,48.24,48.24,0,0,1-17.81,10.45c-2.19.71-4.27,1.79-6.4,2.69-3.64,1.51-5.35,3.31-4.95,5.7.69,4.16,2.37,7.45,6.64,8.08,2.43.36,4.91.35,7.33.73,3.64.57,6.15,3,6.39,6,.16,2-2.68,6.35-4.88,7.24-6.87,2.78-13.38,1.69-19.47-2.18-5.36-3.41-9.29-8.3-12.37-13.72-1.6-2.81-2.12-6.23-3.24-9.35-.69-1.93-.82-4.2-2.93-6-1.22,3.35-2.15,6.33-3.36,9.19a134.69,134.69,0,0,1-6.45,14.2c-2.47,4.36-5.88,8.19-8.6,12.43-1.89,3-4.61,4.66-7.51,6.3a4.77,4.77,0,0,1-4.91.35,6.19,6.19,0,0,0-2.9-.65c-7.84.26-12.14-4.43-15.21-10.82-3.53-7.32-2.44-15-1.53-22.61,1-8.19,2-16.38,3-24.56.3-2.44,0-4.56-2.37-6-4.83-3-4.83-13-.9-17.3s8.6-6.86,14.42-7a44.73,44.73,0,0,1,17.9,2.86c11.92,4.81,20.08,13.84,19.85,27.17a4.71,4.71,0,0,0,.93,3,17.66,17.66,0,0,0,.77-2.61A36.59,36.59,0,0,1,504,183.82c3.59-4.66,6.46-9.88,10-14.55,4.5-5.86,11.12-8.28,18.81-5.67,3.87,1.32,5,4.63,6.11,7.87.67,1.93-.66,4.29-2.92,5.28-4.18,1.85-6.88,5.06-9.41,8.7-2.88,4.15-6.45,7.84-7.93,12.85-.39,1.32-.76,2.65-1.37,4.77,9.31-.69,17.23-3.9,26-5.5a25.23,25.23,0,0,0-.69-3.87c-2.32-6.66,1.29-14.6,7-18.12,9.51-5.89,19.75-6,30.14-2.74a7.34,7.34,0,0,1,3.66,2.87c2.87,4.44,2.7,7.1-2.82,8.69-3.89,1.13-7.76,2.32-11.64,3.48a13.82,13.82,0,0,0-1.66.51c-7.44,3.21-8.59,9-2.78,14.52,3.54,3.39,7.68,6.23,10.83,9.94,4.09,4.82,8.93,9.17,11.34,15.28.08.21.44.33,1.25.9.55-3.6,1.2-6.9,1.55-10.24,1-9.93,1.89-19.89.91-29.89-.13-1.29-.25-2.59-.47-3.87-.56-3.23,0-4.24,2.93-5.15,3.92-1.21,12.4,1.32,14.48,4.86a16,16,0,0,1,1.82,7,198.24,198.24,0,0,1-.91,37.65c-.7,5.42-1.24,11,.15,16.4a12,12,0,0,1,.11,2.17c.16,2.32.46,4.78-1.9,6.22-1.93,1.19-6.82.39-8.62-1.28-4-3.68-7.35-7.79-8.59-13.26C589.2,239,588.91,238.33,588.33,236.64Zm-129,5a37.93,37.93,0,0,0,3.62-3.05,47.94,47.94,0,0,0,10.42-20.19c1.32-5,2.39-10.15,4.12-15a19.6,19.6,0,0,0,.47-11.08c-1.06-4.9-3.78-7.11-8.79-7.32-3.28-.14-4.83,1.26-4.93,4.55,0,1.58.21,3.18,0,4.74-.7,6-1.55,12-2.29,18q-1.57,12.91-3.07,25.83A20.15,20.15,0,0,0,459.3,241.65Z"/><path d="M804.46,100.63c1-2.28,2.32-4.4,2.83-6.7,1.48-6.61,2.71-13.18,2.48-20.14-.29-9.36-2.1-18.36-3.86-27.45-1.1-5.66-1.68-11.43-2.47-17.15-.26-1.87.64-2.88,2.38-3.57,6-2.38,13.27,1.27,14.5,7.68,1.3,6.82,2.17,13.72,3.39,20.55,1,5.55,2.63,11,3.27,16.6,1.07,9.41,0,18.82-1.77,28.06-1.06,5.44-3.92,10.25-7.26,14.69-2,2.67-5,3.3-8.07,3.65-5.17.6-9.65-1.2-13.81-4.17-7.29-5.21-12-12.44-15.83-20.3-1.84-3.77-3.38-7.68-5.08-11.52-.56-1.29-1.18-2.55-2.11-4.53-.6,1.4-1.12,2.08-1.15,2.78-.16,4.19-.38,8.4-.25,12.59.19,6.36.64,12.71,1,19.06,0,.73.11,1.45.13,2.17.22,6.57-3.13,8.8-9,6s-6-2.82-9-7.22c-1.15,1.62-.57,3.39-.8,5-.68,4.63-3.28,7.18-7.28,7-3.49-.1-9-4.32-9.42-7.77a103.56,103.56,0,0,1-.42-12.09c0-2.89.33-5.78.38-8.68,0-1.54-.25-3.1-.42-5-4.86-.32-8.17,2-10.66,5.18-2.15,2.75-3.77,5.81-7.34,7.08a3.06,3.06,0,0,0-1.45,2c-1,4.65-2.38,9.29-2.7,14-.24,3.56-2.3,5.71-6.15,5.54-5-.22-8.07-3.57-11.33-6.57-.61-.56-.54-2.19-.36-3.25,3-17.33,7.58-34.2,15.33-50.06,3.42-7,7.25-13.81,11.07-20.61a33.91,33.91,0,0,1,4.49-5.81,6.34,6.34,0,0,1,2.89-1.68c9.21-2.54,16,1.16,18.86,10.27,1.42,4.51,2.74,9,4.32,14.3a24.23,24.23,0,0,0,1.58-3.16c1-3.18,1.88-6.39,2.81-9.59a5.37,5.37,0,0,1,5.49-4.08,41.08,41.08,0,0,1,6.07.3,11.81,11.81,0,0,1,9.16,5.85,66.94,66.94,0,0,1,8,17.26c2.82,10.1,7.4,19.43,12.15,28.69A8.31,8.31,0,0,0,804.46,100.63ZM734.61,60.77C731,66,727.82,71.15,726.17,77.35a20.72,20.72,0,0,0,10.26,0C737.22,71.61,736.12,66.23,734.61,60.77Z"/><path d="M225.94,128.8c.07,1.28.5,2.65.17,3.8-2,7-5.63,13-11.62,17.37a10.37,10.37,0,0,1-10.37,1.14,105.43,105.43,0,0,1-13-6.79c-4.62-2.77-6.85-7.14-7.72-12.46-1.78-10.9-2.9-21.78-1.74-32.86.46-4.42,0-8.94.23-13.4.5-8.38,3.87-15.8,7.38-23.35,3-6.34,8.09-8.32,13.8-9.85,3.31-.89,6.6.43,9.64,1.86a47.35,47.35,0,0,1,4.16,2.41c3.09-1,5.88-2.18,8.78-2.9,6.39-1.59,11.87,2.46,12.64,8.94,1.17,9.92,2.46,19.82,3.76,29.73.5,3.84,2.17,5.06,5.85,3.92A22.76,22.76,0,0,0,254,93.17a3.94,3.94,0,0,0,1.28-3c-.53-11.12-.45-22.29-2.88-33.27A77.64,77.64,0,0,1,251,44.44a4.11,4.11,0,0,1,1.95-3c6.4-3.6,13.22-1.68,16.89,4.61a5.66,5.66,0,0,1,.73,2c1.48,10.6,3.17,21.17,4.28,31.81,1.2,11.36,1.77,22.79,2.75,34.17.39,4.51,2.23,8.64,4.21,12.66.44.91,1,1.74,1.49,2.64,1.83,3.67.14,6.82-4,6.84a19.23,19.23,0,0,1-16.44-8.16,26.57,26.57,0,0,1-5-12.81,47.2,47.2,0,0,0-1.06-4.92l-12.13,2.56a17.5,17.5,0,0,0,.35,9.17c.93,3.64,2.3,7.17,3.35,10.78a34.81,34.81,0,0,1,1.17,5.9c.24,2.15-1.08,3.29-3.12,3.3-4.42,0-8.73-.5-12-4-2.87-3-5.67-6.12-8.48-9.21-.07-1.73,0-3.46-.26-5.16-1-7.74-2.16-15.46-3.09-23.21-1-8.6-1.83-17.22-2.76-25.82-.34-3.13-.76-6.25-1.14-9.4-2-.3-3.59-.47-5.13-.77-3.4-.67-6,.74-7.94,3.31A12.33,12.33,0,0,0,203.38,72c-1.54,5.86-3.3,11.7-4.22,17.67a88.82,88.82,0,0,0,3.75,43.61,38.25,38.25,0,0,0,2,4.07A51.79,51.79,0,0,0,210,134c2.75-2.33,5.33-4.85,8-7.26C222.76,122.48,223.24,122.61,225.94,128.8Z"/><path d="M509.06,366.91c.57,5.77,1.14,11.37,1.68,17,.33,3.45.65,6.91.89,10.37a9.46,9.46,0,0,1-.26,3c-1.16,4.32-4.62,5.62-8.33,3.15a5.69,5.69,0,0,1-1.57-1.48c-2.87-4.3-5.35-8.78-6.42-13.92-1.11-5.35-2.23-10.71-3.59-17.2a23.9,23.9,0,0,0-1.87,3.62,51.25,51.25,0,0,1-10,19.07,28.24,28.24,0,0,1-5.26,5.05,34,34,0,0,1-12.08,5.55,16.18,16.18,0,0,1-9.36-1.07c-6.54-2.47-11.36-6.84-15.15-12.88-5.35-8.54-5.12-17.59-3.71-26.83,1.74-11.43,6.13-22,11.91-31.9a51.42,51.42,0,0,1,7.77-9.83c3-3.1,7.23-4.13,11.48-4.59,8.35-.89,11.29.31,15.88,7.56,3.24,5.12,5.93,10.59,8.89,15.89a26.18,26.18,0,0,0,1.57,2.23c1.61-1.2,1.14-2.71,1.23-4.06.38-5.76.59-11.54,1.27-17.27a22.53,22.53,0,0,1,2.52-6.82c1.38-2.85,3.17-5.5,4.56-8.34,3.35-6.85,8.76-9.19,16.12-6.71,6,2,12.11,3.91,18,6.34a61.18,61.18,0,0,1,11.73,6.46c3.54,2.5,3,7.38-.45,9.87a4.11,4.11,0,0,1-5.2.06c-6.43-4.32-13.92-5.55-21.27-7-4.07-.81-5.34.23-6.8,4.25a16.31,16.31,0,0,0-1.07,3.75c-.95,8.92-1.82,17.85-2.71,26.77a2.75,2.75,0,0,0,2.49,3.39c5.79,1.15,11.45,2.76,17.49,2.64,4.3-.08,8.64.78,12.93,1.37,2.41.33,4.74,1.44,5.19,4a6.56,6.56,0,0,1-2.74,6.44,19.43,19.43,0,0,1-11.09,4.42c-7.12.44-14.2.66-21-2.1a9.37,9.37,0,0,0-2.11-.48A6.94,6.94,0,0,0,509.06,366.91Zm-61.86,3.46c0,1.45-.07,2.9,0,4.34a14.46,14.46,0,0,0,4.25,9.26,5,5,0,0,0,5.89,1.47c2.94-1.15,6-2.28,7.76-5.24s3.94-6.05,5.45-9.29a62.83,62.83,0,0,0,5.89-20.33c.63-6.42,1-13-3.62-18.56-2.92-3.51-6.13-4.24-9.51-1.27a25.61,25.61,0,0,0-4.84,5.51,72,72,0,0,0-5.23,9.95C450,353.93,446.83,361.73,447.2,370.37Z"/><path d="M681.27,368.9c-5.29,1.77-7.3,5.21-9.13,9.14-4.84,10.39-10.27,20.43-19.6,27.66-4.67,3.62-9.89,6.26-15.84,6.46a20.1,20.1,0,0,1-13.87-5.28c-6.76-5.83-10.28-13.27-11.4-22.22-1.41-11.3.8-22,4.66-32.35a217.84,217.84,0,0,1,11.58-26.15c2.73-5.15,6.89-9.63,10.86-14a14.37,14.37,0,0,1,13.81-4.62c2.67.49,5.49.71,7.93,1.77a8.92,8.92,0,0,1,4,4.19c1.46,3.11-.3,5.76-3.71,6.22a8.33,8.33,0,0,1-2.59,0c-2.7-.45-4.69.74-6.67,2.4a47.74,47.74,0,0,0-12.55,16.95c-3,6.43-6,12.86-8.47,19.5a61.47,61.47,0,0,0-3.84,29,25.82,25.82,0,0,0,1.79,6.67c1.62,4,4.24,4.91,8,2.94a32.72,32.72,0,0,0,11.16-9.47c2.92-3.95,5.37-8.24,8.05-12.37,1.26-1.95,1.08-3.57-.34-5.53a40.42,40.42,0,0,1-5.26-8.89c-1.79-4.57-.13-6.73,4.79-7.37,3.73-.49,7.5-.28,10.29,2.3,3.51,3.24,7,2.38,10.85,1.26a39,39,0,0,1,6.29-1.38c2.86-.34,4.79-1.48,5.79-4.38a75.66,75.66,0,0,1,8.68-16.93,54.81,54.81,0,0,1,4-5.11c3.06-3.63,6.94-4.44,11.38-3.14,1.53.44,3.07.86,4.6,1.27,4.09,1.08,7,3.44,8,7.67s2,8.73,3.08,13.09c2.33,9.87,1.92,19.47-2.47,28.8-1.72,3.65-2.86,7.58-4.63,11.2-4,8.13-10.6,12.73-19.65,13.6-2.75.26-5.5,0-7.63-2.23a7.88,7.88,0,0,0-1.8-1.21c-8.74-5.15-11.63-13.14-11-22.8C680.58,373.56,680.93,371.59,681.27,368.9ZM712,344.05l-1.46-.24a39.78,39.78,0,0,0-3.25,4.88c-2.2,4.54-4.33,9.13-6.24,13.81A63.18,63.18,0,0,0,696.17,380a16.08,16.08,0,0,0-.12,3.46c.34,2.81,1.86,3.57,4.09,1.92a15.38,15.38,0,0,0,4-3.91c6-9.51,8.77-20.07,9.1-31.24C713.27,348.17,712.41,346.1,712,344.05Z"/><path d="M114.28,118.2a45.29,45.29,0,0,0-.92,6.28c-.08,10.71-.12,21.43.07,32.13a47.19,47.19,0,0,0,1.5,9,8.52,8.52,0,0,1-2.25,7.6,6.06,6.06,0,0,1-7.16,1.62c-3.51-1.32-7-2.8-10.38-4.37-2.43-1.12-3.52-3.26-3.94-5.87-1-6.28-2-12.57-3.21-18.81-1.34-6.82-2.94-13.58-4.47-20.35a17.87,17.87,0,0,0-1.33-2.82,16,16,0,0,0-1.58,3.06,105.7,105.7,0,0,0-1.9,16.3,165.26,165.26,0,0,0,.82,24.69c.79,8.64,1.76,17.26,2.65,25.88.34,3.2,0,3.67-3.05,3.45-5.94-.45-7-1.34-8.61-7.85-1.59-6.29-2.18-12.83-3.19-19.26-.49-3.15-1.13-6.29-1.34-9.45a126.62,126.62,0,0,1-.27-12.92,103.4,103.4,0,0,0-.31-15.13c-.51-4.51.35-9.2.84-13.79.53-5,1.48-10,1.94-15,.19-2,1-2.94,2.74-3.88,7.45-4.07,13.91-2.68,20.92,3.72,1.14,1,2.14,2.24,3.85,4,.59-2.13,1-3.43,1.3-4.75a41.09,41.09,0,0,1,5.54-13.56c1.9-3,4.21-5.08,8-5.09a12.94,12.94,0,0,0,3.42-.56c6.25-1.78,12.36,1.1,15,7.85,2.05,5.18,3.1,10.8,4.27,16.3,2,9.62,3.79,19.3,5.72,28.94,1.13,5.66,2.21,11.34,3.63,16.93a82.94,82.94,0,0,0,3.63,10.15c1,2.41,2.61,4.79.59,7.26s-5.08,2.46-7.63,1.42a77.44,77.44,0,0,1-10.66-5.7,6.69,6.69,0,0,1-2.2-3.14A83.55,83.55,0,0,1,120.47,143c-1.18-7.42-2.67-14.8-4.07-22.18a17,17,0,0,0-1-2.71Z"/><path d="M202.29,296.7a12.49,12.49,0,0,0-.79-2.61A21.43,21.43,0,0,1,198.85,279c1.48-7.95,2.87-15.92,4.57-23.82a9.84,9.84,0,0,0-2.47-9.48c-4.22-4.85-9.11-8.77-14.14-12.68-2-1.58-3.3-4.29-4.57-6.67-.74-1.4,0-2.85,1.52-3.62a10.26,10.26,0,0,1,1.64-.57c6.47-2,14.45.46,18.88,5.66a64.87,64.87,0,0,0,5,4.66c.87-1.63,1.45-2.58,1.9-3.59,3.48-7.79,7-15.57,10.38-23.4,1.55-3.62,4.29-5.07,8-4.6a30.83,30.83,0,0,1,8.79,2c5.29,2.38,6.17,8.12,2.62,12.72a47,47,0,0,0-5.54,8.71c-3.11,6.67-6.59,13.19-8.19,20.51-.77,3.51-.2,6.15,2.42,8.61,3.38,3.16,6.49,6.6,9.83,9.8,1.54,1.49,3.22,2.94,6.15,3A130.31,130.31,0,0,0,247.5,248a13.35,13.35,0,0,0-.87-3.6,10,10,0,0,0,1.4-3.16c.78-8.35,1.51-16.72,2-25.09.31-5.19.22-10.4.25-15.6,0-2.11.84-3.72,2.8-4.46,4.79-1.82,9.59-1.52,13.71,1.41,3.78,2.7,5.1,6.91,4.64,11.54-.49,4.9-1.17,9.77-1.6,14.67-.68,7.64-1.22,15.28-1.8,22.92-.7,9.07-1.6,18.13-2,27.22-.24,5.61.33,11.26.51,16.89.06,1.71,0,3.42,0,5.16-4.21,2.3-8.34.68-12.42.38a14.36,14.36,0,0,0-1.86-3.16,17.36,17.36,0,0,1-4.77-9.09c-.46-2.27-1.46-3.59-4-3.72-4.08-.22-7.43-2.35-10.58-4.69s-6.05-4.89-9.11-7.29a9.43,9.43,0,0,0-2.18-.9,14.9,14.9,0,0,0-1.27,2.8c-1.25,6.09-2.49,12.18-3.56,18.3a19.68,19.68,0,0,0,0,5.2c.47,4.93-3,7.74-7.86,6.19a28.55,28.55,0,0,1-3.8-2C204.28,297.47,203.32,297.13,202.29,296.7Z"/><path d="M1332.28,96.11c-1.4,4.47-2.6,8.47-3.89,12.45a57.58,57.58,0,0,1-8.38,16.61,24.24,24.24,0,0,1-4.51,4.65c-5.16,4-10.85,4.37-16.78,1.92-8.08-3.34-13.13-9.77-15.59-17.67a93.08,93.08,0,0,1-3.39-37.83c.78-7.33,1.61-14.65,2.24-22a4.25,4.25,0,0,1,3.48-4.28c7.14-2,14.58,4.63,13.12,11.91-.86,4.25-2.1,8.43-2.87,12.69a90.43,90.43,0,0,0,1.3,37.06,14.52,14.52,0,0,0,2.59,5c1.81,2.48,3.73,2.67,5.66.23,2.41-3,4.9-6.23,6.4-9.76,4.16-9.73,7.58-19.72,7.79-30.52.13-7.14-.15-14.19-3-20.9a17.23,17.23,0,0,1-.91-2.91c-.79-3.34.38-5,3.64-4.42a27.74,27.74,0,0,1,8,3.1c1.07.58,1.83,2.26,2.15,3.59a137.93,137.93,0,0,1,3.54,27.89c.07,2,0,4,0,6.1l7.69,1c2.84.38,4.93-.37,6.51-3.08a111.91,111.91,0,0,1,15.22-21.08,34,34,0,0,1,11.8-7.88c3.32-1.37,6.48-3.18,10.38-2.35a11.63,11.63,0,0,1,9,7.35c1.41,3.57-.88,7.2-4.69,6.8-6.17-.65-10.2,2.86-13.92,6.56s-6.6,8-9.81,12.1a9.59,9.59,0,0,0-.8,2.23c1.94.16,3.57.31,5.2.43,2.36.17,4.82.3,5.85,2.89a6.06,6.06,0,0,1-1.65,6.79c-3.47,3.48-7.54,5.81-12.72,5.25-4.83-.52-7.1,1.45-6.71,6.31a32,32,0,0,0,1.54,7.21c.73,2.28,2.73,2.9,4.9,1.72a20.42,20.42,0,0,0,2.75-2.1c.91-.72,1.74-1.55,2.7-2.18,3-2,5.14-2.09,7.17-.42a7.38,7.38,0,0,1,2,7.56c-1.86,4.48-4.53,8.6-8.57,11.26a9.68,9.68,0,0,1-10,0c-11.35-6.27-16.91-16.07-17.1-29a7.74,7.74,0,0,0-1.32-4.4A65,65,0,0,0,1332.28,96.11Z"/><path d="M368.67,99.86a18.75,18.75,0,0,1,1.24-2.25c2.13-2.93,5.42-4.29,8.51-5.78,2.75-1.33,3.59-3.3,3.72-6.2.5-10.55,1.22-21.09,1.81-31.64.29-5.35.48-10.69.69-16,.17-4.24,2-6.09,6.18-6.08,1.3,0,2.6,0,3.9,0,8.48-.24,12.54,5.14,10.9,13.51a123,123,0,0,0-2,18.49c-.45,11.13-.56,22.28-.56,33.41,0,3.56.81,7.11,1.32,11.29,3.29-.72,6.07-1.3,8.84-1.95,3.58-.84,5.08-.11,5.38,3.45.68,8-2,14.77-8.26,19.94a4.24,4.24,0,0,1-1.95.82c-5.45.86-10.68.77-14.89-3.6a15.72,15.72,0,0,0-2.45-1.79c-2.93-2.08-5.21-4.48-5.26-8.45a8.42,8.42,0,0,0-2-4.82c-.76,1.67-1.41,3.41-2.31,5-1.13,2-2.16,4.17-3.77,5.72-3.92,3.79-10.15,4.06-15.7,1.35s-10.24-6-12.62-11.82a64.43,64.43,0,0,1-3.29-10.69c-3.68-16.85-1.75-33.64.63-50.44a94.11,94.11,0,0,0,.79-10.35c.12-4.29.93-5.32,5.36-5.56,3.7-.19,7.38-1.1,11.05.79A9,9,0,0,1,368.83,46c-2.46,10.63-3.24,21.45-3.5,32.31-.14,5.47.17,11,.52,16.43.1,1.57,1,3.08,1.57,4.62Z"/><path d="M567,42.88c1-1.57,2-3,2.81-4.43,3.67-6.2,9.12-9.72,16.25-10.08a93,93,0,0,1,15.11.46,11.48,11.48,0,0,1,10,7.86,4,4,0,0,1-4,5.61,48.41,48.41,0,0,1-8.58-.9c-3.09-.61-5.92-.3-8,2A43.48,43.48,0,0,0,585,51c-2,3.47-1.48,4.94,1.76,7.36,4.75,3.55,9.69,6.86,14.35,10.51,6.63,5.2,12.6,11,16.35,18.77s2.31,14.95-2.52,21.18c-7.16,9.26-17,12.27-28.56,10.13-9-1.67-16.54-6.22-23.66-12.13-4,4.37-8.36,2.9-12.54.45-5.3-3.11-8.07-7.7-7.41-14,.81-7.92,1.88-15.82,2.28-23.76.48-9.38.47-18.79.44-28.18,0-3.74.32-4.55,4.12-5.12a16.85,16.85,0,0,1,4.72-.39c2.42.33,5,.66,7.09,1.79S564.85,40.77,567,42.88Zm-4.81,51.65c2.09-.53,3.6-1,5.12-1.29,4.08-.93,5-.37,6.49,3.55.76,2,1.33,4.29,2.71,5.81,2.8,3.08,8.84,6.23,13.72,4.17,5.71-2.41,11.13-8.93,11.06-13.84a11.42,11.42,0,0,0-.12-1.3c-.77-5.06-2.84-9.4-7.14-12.41-2.71-1.89-5.52-3.62-8.23-5.5-6.73-4.67-14-8.66-18.72-15.79-.25-.38-.85-.53-1.5-.9C564.44,69.65,563.33,81.9,562.19,94.53Z"/><path d="M324.2,373.58c-.14,3-.4,4.8-.29,6.62.57,9.09,1.22,18.15,5,26.68,1.41,3.17.72,6.63-.88,9.65s-6.28,3.74-9.62,1.79c-5.78-3.37-8.13-8.69-9.85-14.94-1.87-6.77-1.53-13.73-3.12-20.49s-2.75-13.6-3.77-20.46c-.87-5.84-1.3-11.75-1.86-17.64a8.77,8.77,0,0,1,.25-2.59c.58-2.88,1.73-4.13,4.68-4.11a35.93,35.93,0,0,1,11.17,2.41c.81-1.3,1.46-2.56,2.3-3.68,3.22-4.25,6.16-8.8,9.86-12.59,4.92-5.05,11.52-6,18.14-4.65,4,.8,8.23,2,11.37,5a10,10,0,0,1,2.7,3.68c3,8.81.34,16.56-5.16,23.48a57,57,0,0,1-11.74,11.47c-4,2.84-3.83,4.63.1,7.64,3,2.29,5.83,4.74,8.8,7.05a15.27,15.27,0,0,0,4,2.59c3.55,1.28,5.94,4,8.54,6.45,2.75,2.6,2.87,5.9,1.58,9.23a6.72,6.72,0,0,1-9.9,3.57A24.23,24.23,0,0,1,351,395.6a87.31,87.31,0,0,0-14-12.27c-2.84-1.93-5.13-4.66-7.8-6.87C328.08,375.49,326.58,374.92,324.2,373.58Zm19.09-38.37c-6.51,1.88-13.78,11.72-14.19,19.14C335.74,349.19,341.12,343.82,343.29,335.21Z"/><path d="M304.91,253.21c4.34-6.54,6.6-12.75,8.95-18.87a71,71,0,0,0,4.26-34.55,37,37,0,0,0-.94-4.66c-1-3.89,1-7.08,4.93-7.28,4.89-.26,9.38,1.49,13.7,3.56.7.34,1.1,1.57,1.4,2.47,2.13,6.47,1.52,13.2,1.58,19.82a190.73,190.73,0,0,0,2.75,32.37c.78,4.28.92,4.43,5.58,4.94a3.54,3.54,0,0,1,3.24,2.4c1.48,3.54.27,9.8-2.31,11.68-3.22,2.34-9.42,2.22-12.57-.12s-6.28-4.49-9.4-6.71c-2.73,3.32-5.22,6.44-7.81,9.5-4,4.72-10.89,6.49-16.3,3.63-7.19-3.8-12.77-9.3-15.47-17.25a49,49,0,0,1-2-6.2c-.48-2.45-1.75-3.53-4.31-3.49,1.9-.22,2.94-.84,2.71-3.06-.74-7-1.41-14.1-1.77-21.16-.28-5.63-.07-11.28-.05-16.93a5.29,5.29,0,0,1,2.65-4.69c4.07-2.54,12.31-2.32,16,.84a8.87,8.87,0,0,1,2.89,5,19.43,19.43,0,0,1-.48,7.7c-1.93,7.1-2.71,14.18-1.34,21.47.83,4.4,1.28,8.86,2.07,13.27A57.84,57.84,0,0,0,304.91,253.21Z"/><path d="M865.06,253.82c-2.21,2.94-1.6,6-1.41,9,.2,3.21-.5,6.06-3,8.2a5.71,5.71,0,0,1-3,1.42c-5.47.4-13.06-4.5-14.81-9.6a7.5,7.5,0,0,1,.15-6.31c2.54-4.66,1.76-9.88,2-14.87.1-1.72-1.18-3.51-1.85-5.26-.8-2.1-.65-4.07,1.14-5.54,1.56-1.28,1.68-2.93,1.67-4.69,0-5.35-.09-10.7-.08-16.05,0-4.74,2-6.24,6.63-4.95a45.77,45.77,0,0,1,5.31,1.86,3.19,3.19,0,0,0,3.88-1c1.49-1.57,2.86-3.26,4.44-4.74,4.37-4.09,9.14-7.21,15.36-8.2,5.65-.89,10.29,1,14.77,3.7,9.42,5.69,11,15.8,8.76,23.33-1.3,4.4-4.35,7.6-7.62,10.31-4,3.31-8.57,5.88-13,8.62-1.06.66-2.5.67-3.73,1.08-2.29.77-4.55,1.61-7.62,2.71,2.7,2.42,4.72,4.38,6.9,6.14,6,4.88,12.3,9.53,18.19,14.58a28.88,28.88,0,0,1,6.24,7.67c2.49,4.47.23,7.41-4.87,7.56-4.73.14-7.34-2.94-10.11-5.83-6.2-6.47-12.72-12.56-20.26-17.48a26.25,26.25,0,0,0-2.62-1.52A5.61,5.61,0,0,0,865.06,253.82Zm4.16-27.95c7.3-1.17,16.77-8.09,19.23-13.73.29-.67,0-1.58,0-3C879.82,212.41,874.31,218.39,869.22,225.87Z"/><path d="M1304.21,212.47c-4.6,5.33-8,10.1-9.67,16.25,2.16.76,17,2.63,18.7,3.29,4.89,1.88,6.19,8.53,1.87,11.46-3.4,2.31-20.41,2.92-24.39,3.86-4.85,1.14-8.12,3.23-9.78,8s-3.86,9.66-5.59,14.56c-.6,1.73-.39,3.72-.76,5.54a57.41,57.41,0,0,1-1.89,7.49c-1.07,3.06-3.43,4.64-7.88,2.95-5.81-2.22-9.15-6.88-10.58-12.86a5,5,0,0,1,.55-2.88c3.91-8.55,7.9-17.06,11.87-25.58a13.15,13.15,0,0,0,.77-1.55c3.83-12.4,11.33-23,17.18-34.37A44.85,44.85,0,0,1,1295.24,195c2.57-2.22,5.25-2.53,8.46-1.43,8.11,2.78,12.72,8.28,14.56,16.66,2.56,11.69,2.9,23.55,3.06,35.4.15,10.4-.24,20.82-.83,31.21a44.59,44.59,0,0,1-2.62,11.79c-1.32,3.83-4.48,5.38-8.21,4.9-4.19-.55-7.8-5.33-6.69-9.47,3.87-14.45,4.49-29.11,3.45-43.94-.49-6.93-.59-13.88-1-20.82A66.3,66.3,0,0,0,1304.21,212.47Z"/><path d="M148.28,294.2a26.79,26.79,0,0,0,2.31-4.44c1.55-5,3.07-9.95,4.27-15,2.12-8.93,3-17.91.92-27.05-1.13-4.91-1.75-9.94-2.62-14.91s-.15-6.1,4.73-6.49c4-.32,8-1.19,11.87,1,2.93,1.67,6.58,7.11,6.48,10.45a122,122,0,0,0,4.06,35.57,19.46,19.46,0,0,1,.81,3.81,27.57,27.57,0,0,0,7.49,18c2.1,2.26,2,5.47,0,6.84s-4.82,2.44-7.4,1.18c-3.08-1.5-6-3.41-8.93-5.17-.85-.5-1.65-1.1-2.9-1.94a71.74,71.74,0,0,0-3.29,6.66c-2.81,7.51-14.53,9.63-20.61,6.45-5.69-3-11.23-6.33-14.91-11.57a44.47,44.47,0,0,1-5.69-12.51c-1.88-6.2-3.16-12.6-4.47-19-1.58-7.69-.54-15.25,1.69-22.7,1.43-4.75,8.53-6.94,12.73-6,2.66.63,5.24,1.48,7,3.95,2.06,2.87,2.75,5.58.56,8.73S140,257,139.94,260.59a84.59,84.59,0,0,0,3.75,27.82c.69,2.09,2.11,3.95,3.2,5.92Z"/><path d="M719,219.74c-1.71,6.21-3.16,11.58-4.69,16.93a77.19,77.19,0,0,0-2.79,13.11c-.64,5.89-4.06,7.52-9.59,6-4-1.12-7-4.15-9.52-7.29-1.75-2.14-1.12-4.87.31-6.94,4.56-6.56,6.67-14.09,8.71-21.6,1.54-5.71,2.24-11.65,3.5-17.44,1.35-6.2,2.91-12.35,4.42-18.5a4.21,4.21,0,0,1,4-3.35c5.38-.56,12.69,3.63,14.87,8.57a9.89,9.89,0,0,1,.63,2.46,218,218,0,0,0,9.08,39.65c.7,2.1,1.27,4.52,4.2,5.82,2.64-3,4.3-6.63,6.08-10.17,5.7-11.32,7.37-23.64,8.88-36a55.74,55.74,0,0,1,1.8-8.47c.83-2.93,2.61-3.88,5.62-3.43,3.29.5,6.42,3.72,7.36,7.09,1.29,4.63.24,9.21-.08,13.77-.7,10.12-2.11,20.14-5.27,29.83-2.79,8.57-7,16.45-11.39,24.3a7.14,7.14,0,0,1-6.5,3.67,13,13,0,0,1-9.48-3.45,64.94,64.94,0,0,1-10.81-12.36c-2.69-4.2-4.42-9-6.4-13.64C720.83,225.71,720.08,223,719,219.74Z"/><path d="M1038.91,365.44c-.89,2.09-1.81,4.18-2.68,6.28-2.61,6.26-5.29,12.5-7.77,18.82-.83,2.13-1,4.48-1.69,6.69-.57,1.9-1.31,3.75-2.06,5.59-1,2.47-3.07,2.78-5.39,2.58-5.72-.49-10.42-7-8.51-12.5,2.81-8,6.05-15.94,9.1-23.9,4.13-10.8,8.52-21.52,10.75-32.94,1-4.95,3.93-6.46,8.49-4.3,1.43.68,2.83,1.42,4.24,2.14,3.33,1.7,4.84,4.12,5.31,8.15,1.89,16.29,7.53,31.42,15.49,45.71.19.35.61.57,1.32,1.21.73-.88,1.73-1.59,2-2.51,1.59-5.41,3.31-10.8,4.38-16.32,1.13-5.8,1.66-11.72,2.29-17.61.59-5.6,1-11.22,1.43-16.84a80,80,0,0,1,.85-8.19c.7-3.65,2.74-7.11,7.86-5.95a33.35,33.35,0,0,1,8.46,3.07c2.7,1.46,3.49,4.4,1.75,6.7-3.87,5.1-3.74,11.11-4.38,16.94-1,9.06-1.16,18.25-2.74,27.2-1.49,8.5-4.3,16.77-6.65,25.11a13.29,13.29,0,0,1-2.06,3.78c-3.5,5-7.57,6.2-12.63,2.85a47.06,47.06,0,0,1-9.68-8.52c-6.12-7.13-9.22-15.95-12.74-24.5-1.19-2.91-2.43-5.8-3.65-8.69Z"/><path d="M1186.22,240.85c.65,8-3,14.68-6.62,21.23a84.83,84.83,0,0,1-19.34,24.24,42,42,0,0,1-7.72,4.77c-1.73.91-3.24,1.73-3.75,3.84-.6,2.44-2.6,2.9-4.76,2.85-4.7-.12-9.94-4.22-10.31-8.92a101.53,101.53,0,0,1,.36-15.09c.59-8.37,1.92-16.71,2-25.07,0-6.3-1.43-12.61-2.13-18.93-.41-3.73-.83-7.48-.88-11.23-.07-4.19.32-8.39.41-12.58a4.36,4.36,0,0,1,2.38-4.25,15,15,0,0,0,3.66-3c6-6.42,11.35-7.8,19.53-4.45,8,3.27,14,9,18.86,16.09,5.37,7.91,7.46,16.84,8.5,26.12A27.38,27.38,0,0,1,1186.22,240.85ZM1152,271.2a13.55,13.55,0,0,0,2.17-1.71c4.61-6.11,9-12.34,12.26-19.35a43.15,43.15,0,0,0,4.14-23.14c-.64-6.17-2.39-11.84-6.68-16.56-2.17-2.39-4.42-3.32-6.82-2.05a15.24,15.24,0,0,0-4.33,3.44c-3,3.52-2.61,7.82-2.17,12,1.21,11.64,2.07,23.28,1.46,35C1151.84,262.67,1152,266.53,1152,271.2Z"/><path d="M312.51,78.58c3.69-2.57,7.21-4.75,10.42-7.31a44.48,44.48,0,0,1,15.47-7.62c2.3-.68,3.14-.14,4,2.07.9,2.42,1.08,4.83-.46,7q-3.6,5.13-7.42,10.12a55.16,55.16,0,0,1-5.55,6.61,39.23,39.23,0,0,1-21.65,10.83c-.19,1-.77,2.16-.53,3.15,1.24,5.18,2.18,10.49,6.07,14.64,2.88,3.07,4.47,3.38,7.69.65,2.64-2.24,5-4.84,7.69-7a74.37,74.37,0,0,1,8.94-6,4.26,4.26,0,0,1,3.62.16c3.93,2.32,5.38,8.08,3.3,12.18-1,1.93-2,3.86-2.95,5.8-3.64,7.39-12.1,11.79-20.41,11.27a36.74,36.74,0,0,1-25.42-12.58c-7.24-8-10.82-18.06-8.34-29,2.18-9.54,4.66-19.09,8.72-28.09,2.61-5.79,4.81-11.85,8.1-17.23,4.5-7.36,10.77-12.82,20.06-13.34,5-.29,9.76,3.5,10.18,8.06a4.9,4.9,0,0,1-2.44,5.17c-5,2.74-8.46,7-11.13,11.81-3,5.42-5.4,11.19-8,16.82C312.26,77.12,312.44,77.6,312.51,78.58Z"/><path d="M1184.78,107.5c.35,3.6.72,7.19,1,10.79.19,2.16,1.36,3.06,3.48,2.85a23.83,23.83,0,0,1,3.46-.27c3.29.12,5.13,2.64,3.74,5.55a59.51,59.51,0,0,1-4.91,8.07c-1.82,2.66-4.59,3-7.4,2.11a22.79,22.79,0,0,1-10.71-6.32c-1.77-2-3.54-4.54-3.94-7.06-2-12.93-2.71-25.82,1.69-38.59a68.82,68.82,0,0,1,5.51-13.08c4.55-7.7,16.94-8.84,22.78-4.58,3.87,2.81,7,2.64,11,.23a120.91,120.91,0,0,1,18.62-9.08,17.12,17.12,0,0,1,16.17,2.08c4.5,3.12,3.72,8.29-1.39,10.45a52.42,52.42,0,0,1-6.81,2.75c-3.47.95-4.83,3.39-5.46,6.55-1,5.1-1.92,10.23-3,15.31-1.83,8.49-3.8,16.94-5.66,25.42-.71,3.2-.75,6.3,1.64,9,1.63,1.83,1.89,4,.33,5.92a5.63,5.63,0,0,1-5.83,2c-7.09-1.59-15.2-8-12.67-18.92,2-8.74,3.67-17.56,5.41-26.36,1.36-6.9,1.32-6.92-4.12-11.28-1-.81-2.17-1.44-3.21-2.23-1.34-1-2.67-1.66-4.39-.81a3.83,3.83,0,0,1-2.1.24c-4.23-.63-6.33,1.78-8,5.19C1186.34,91.06,1185,99.11,1184.78,107.5Z"/><path d="M834.4,361.11c.21,7.79-1.67,16.87-5.27,25.48-3,7.09-8.27,12.51-14.75,16.62-3.39,2.14-6.67,4.69-11.06,4.63a3.48,3.48,0,0,0-2.1,1.3c-3.76,4.19-7.77,5.13-12.59,2.88-5.63-2.64-8-8.2-6.41-14.3a92.54,92.54,0,0,0,1.89-11.12c1.5-11.92,2.91-23.85,4.35-35.78.92-7.62,1.79-15.24,2.77-22.85a73.66,73.66,0,0,1,1.47-8.11c.84-3.39,2.58-4.27,5.79-3,3.9,1.57,7.84,3.09,9.69,7.48.32.76,1.8,1.17,2.82,1.47,3.19.92,6.51,1.43,9.6,2.6,5.88,2.23,8.72,7.41,11.08,12.72C834.27,347,834.48,353.23,834.4,361.11Zm-33.22,33.31c6.44-4.92,10.9-10,13.42-16.71a66.07,66.07,0,0,0,4.62-25.38,34,34,0,0,0-1.34-8.92c-.76-2.53-3.16-2.8-4.54-.56-2.18,3.54-4.51,7.15-5.83,11C803.2,366.67,801.69,379.94,801.18,394.42Z"/><path d="M1092.94,264.28a43.42,43.42,0,0,0,5.29-13.07c1.45-5.73.72-11.51.47-17.29-.14-3-.44-6-.32-9.07a20.11,20.11,0,0,1,1.18-6.35c2.9-7.52,7.86-7.55,14.08-5.93,2.41.63,3.78,4.27,2.39,7-2.87,5.61-2.19,11.51-2,17.36.15,4,.89,8.06,1.17,12.1a54.19,54.19,0,0,1-2.32,18.84c-.57,1.94-1.26,3.85-1.75,5.82-1.48,6-6.55,9.32-12.4,7.65a33.28,33.28,0,0,1-12.69-6.44,68.47,68.47,0,0,1-11.66-12.72,134.54,134.54,0,0,1-10.77-17.2,8.36,8.36,0,0,0-1.28-1.44c-.52.49-1.07.77-1.26,1.21-3.32,8-6.65,16-9.85,24.1-1.06,2.68-1.76,5.51-2.62,8.27-1.07,3.44-2.1,4-5.64,4.06-5,.14-8-3.05-10.81-6.34a4.24,4.24,0,0,1-.55-3.23,64.27,64.27,0,0,1,2.61-9.16c2-5,4.37-9.79,6.34-14.76,2.45-6.18,4.63-12.46,7-18.67a89.78,89.78,0,0,1,3.43-8.44c2-3.95,4.68-5,9-3.8,1.4.38,2.77.87,4.17,1.22,4.34,1.09,6.39,3.75,7.87,8.14,3.68,10.9,6.7,22.19,13.79,31.64A19.64,19.64,0,0,0,1092.94,264.28Z"/><path d="M1007.82,243.44c-6.16-.35-10.58,1.4-13.33,6.43-3,5.45-6,10.91-8.79,16.45-1.38,2.71-2.42,5.56-2,8.77a7.58,7.58,0,0,1-.42,3c-1,3.64-4.06,5.22-7.67,4.58-5.25-.92-8.51-4.55-11.73-8.18a5.13,5.13,0,0,1-.69-6.08q4.59-8.58,9.13-17.2a13.06,13.06,0,0,1,.78-1.54c1.91-2.58,2-5.19.81-8.17s-.63-4.07,2-5.85a4.66,4.66,0,0,1,.77-.4c4.9-2.13,7.69-6.11,10.29-10.63,4.24-7.38,9-14.49,13.75-21.56,1.64-2.44,3.32-5.26,7-5.26,4.78,0,9.4.76,12.61,4.64a28.12,28.12,0,0,1,6.15,14.1,96.79,96.79,0,0,1-.4,29.38q-1.75,11.35-3.55,22.69a21.49,21.49,0,0,1-.63,3c-1.55,5.13-7.3,6.77-11.22,3.11-3.67-3.42-5.77-7.46-4.9-12.75.8-4.85,1.29-9.75,1.87-14.63C1007.77,246.2,1007.74,245.07,1007.82,243.44Zm1.33-17.45c-2.19,1.33-2.85,2.75-2.73,4.43,0,.38,1.21.67,2.41,1.28C1008.94,229.63,1009,228.16,1009.15,226Z"/><path d="M800.18,227.66c3.08-1.84,6.24-3.56,9.23-5.54a40.41,40.41,0,0,1,11.22-5.56,15.53,15.53,0,0,1,10.92.89c-.15,4.45-.65,8.54-4.59,11.75-6.84,5.55-13.48,11.34-20.08,17.16-3.92,3.45-4,3.6-11,2.39-.14.36-.49.8-.4,1.12,1.66,6,7.78,10.23,13.83,9.25a23.38,23.38,0,0,0,7.39-2.34c4.17-2.27,8.44-1.43,12.73-1.14a2.73,2.73,0,0,1,1.51.78c2.64,2.52,2.76,8.09,0,10.48-10,8.72-21.83,10.28-33.65,3.26a46,46,0,0,1-12.47-11.24c-6.72-8.48-10.08-18.17-8.24-29.1a21.14,21.14,0,0,1,3.13-7.55,136.31,136.31,0,0,1,26.39-30.33c3.53-3,8.19-4.78,12.35-7.1a2.07,2.07,0,0,1,1.25-.31c4.35.94,8.93,1.59,12.25,4.84s2.76,9.65-.55,11.89a7.19,7.19,0,0,1-3.59,1.18,15.73,15.73,0,0,0-11.83,5.4c-4.8,5.41-9.9,10.54-14.81,15.85a18.23,18.23,0,0,0-1.94,3.15Z"/><path d="M971.92,334.68A23.66,23.66,0,0,1,968,346.93a86.92,86.92,0,0,1-10.57,14.21,62.55,62.55,0,0,1-15.62,12.24c-.51.28-1,.53-1.57.76-5.19,2.25-8.17,5.64-8.25,11.87-.06,4.6-.7,9.17.08,13.79.58,3.42.41,6.81-3,8.83-3.58,2.14-7.19,1.28-10.12-1.17-4.1-3.41-7.27-7.51-6.29-13.42a119,119,0,0,0,1.52-25,9.34,9.34,0,0,1,.4-3,95.92,95.92,0,0,0,3.55-26.1,14.69,14.69,0,0,1,.64-2.51c1.13-5.46,1.13-5.36,6.61-5.5a5.49,5.49,0,0,0,3.19-1.68c1.76-1.71,3.26-3.68,4.9-5.5,6.47-7.21,14.66-8.27,23.45-6.05,3.58.91,6.95,2.79,10.29,4.48a6.93,6.93,0,0,1,3.73,5.1C971.34,330.39,971.61,332.54,971.92,334.68Zm-17.82-2.46c-4.56-.12-7.49,2.55-10.27,5.46-4.2,4.38-5.8,10.15-8.2,15.49a21.41,21.41,0,0,0-.72,3.81,54,54,0,0,0,17.42-18.68C953.36,336.51,955.07,334.89,954.1,332.22Z"/><path d="M655.37,207.86c2.41.67,4.61,1.29,6.81,1.88,1.53.41,3.31.43,4.58,1.24,4,2.54,8.27,1.77,12.58,1.86a84.21,84.21,0,0,1,12.42,1.58,3.93,3.93,0,0,1,3.39,3.51,4,4,0,0,1-2.56,4.16c-3.39,1.62-6.79,3.22-10.26,4.65a7.31,7.31,0,0,0-4.72,5.13c-2.14,7.25-6.94,12.74-12.46,17.73-5.72,5.18-14.55,4.36-18.94.84A91.67,91.67,0,0,1,632.81,237c-5.32-6.5-5.44-14.38-4.27-22.33a28.75,28.75,0,0,1,5.32-12.22,159.88,159.88,0,0,1,12.63-16.49c4.46-4.86,9.55-9.22,16.55-10.5a28.29,28.29,0,0,1,11.6.55c3.77.86,5.8,3.85,6.89,7.23a6.45,6.45,0,0,1-6,8.26c-7.13.38-11.5,4.65-15.61,9.56C658.25,203,655.72,204.31,655.37,207.86Zm-7.63,12.22a14.37,14.37,0,0,0,.21,13.55c1.08,2.06,2.2,2.65,4.13,1.52,2.29-1.34,4.67-2.82,5.16-5.44Z"/><path d="M450.83,87.53c.9,5.3,2.4,10.12,6.86,13.49a7.53,7.53,0,0,0,6.93,1.54,15.93,15.93,0,0,1,3.44-.48,7.09,7.09,0,0,1,6.77,3.84,8,8,0,0,1-1.65,8c-3.13,3.25-7.16,3.89-11.24,3.31a29.45,29.45,0,0,1-9.46-2.9c-4.72-2.46-9.37-5.24-12.93-9.38-5.13-6-7.9-13-9.52-20.64a37.66,37.66,0,0,1,.13-16.8c1.27-5.34,2-10.87,3.84-16,2.56-7,5.56-14,10.87-19.61s11.48-8.69,19.36-7.9c4.67.47,7.72,3.31,9.84,7,2,3.45-1.22,9-5.19,8.95-5.29-.1-8.32,2.76-10.73,6.81a59,59,0,0,0-6.93,16.79c-.85,3.66.1,5.1,3.85,4.75,3.55-.34,7-1.49,10.54-2.3,5.2-1.21,10.38-2.55,15.62-3.61,2.5-.5,5.16,1,5.83,2.81a5.46,5.46,0,0,1-2.22,6.8c-5.94,3.54-11.19,8.31-17.93,10.46-4.53,1.44-9.13,2.68-13.7,4C452.54,86.79,451.9,87.1,450.83,87.53Z"/><path d="M973.56,56.7c2.91,6.62,3.31,13.74,3.9,20.77.69,8.07,1,16.16,1.46,24.25.32,5-1.28,9.72-2.83,14.37a6.59,6.59,0,0,1-6.83,4.38,34.17,34.17,0,0,1-7.87-2c-7.28-2.77-12-8.21-15.41-15a30.63,30.63,0,0,0-1.72-3c-.22-.33-.67-.5-1.31-.94a6.37,6.37,0,0,0-1.06,1.72c-.91,4.83-1.74,9.66-2.62,14.49A47.81,47.81,0,0,1,938,122a4.85,4.85,0,0,1-5.91,3.19c-5.25-1.26-11.63-5.29-10.07-13.27,2.28-11.62,4.12-23.32,6.14-35,.41-2.43.82-4.85,1.18-7.28.58-4,2.57-5.82,6.62-5.91,2,0,4.06.06,6.08.21a8.59,8.59,0,0,1,7.33,4.67c3.55,6.35,5.88,13.17,8.07,20.06.42,1.33.91,2.64,1.42,4.12,2-.85,1.73-2.31,1.66-3.48-.35-5.63-1-11.25-1.16-16.89a110.09,110.09,0,0,1,.51-12c.16-2.11,1.43-3.22,3.71-3.49,3.39-.39,6.72-2.15,10.12-.07Z"/><path d="M1011.42,117.63c.35-3.15.5-6.35,1.11-9.45.72-3.65,2.05-7.12,1.81-11-.11-1.77,1.25-3.87,2.45-5.43,5-6.38,7.52-14,11.14-21,3.16-6.18,6-12.5,11.2-17.43,4.74-4.54,10.09-6,16.33-3.88,5.92,2,7.25,6.88,2.4,10.7s-8.13,8.54-11.21,13.61a6.34,6.34,0,0,0-.88,1.49c-.37,1.46-1.3,3.32-.76,4.36,1,1.82,2.83.28,4.31,0,3.54-.58,7-1.92,10.7-1,4,1,5.2,2.78,3.64,6.6a16.14,16.14,0,0,1-3.93,5.58,44.36,44.36,0,0,1-17,10.08c-10.16,3.1-15,9.62-12.91,21.59.42,2.42.62,4.85,2.62,6.71,2.72,2.52,5.56,2.9,8,.19a9.65,9.65,0,0,1,6.8-3.22c4.67-.48,7.83,2.17,7.34,6.75a25.55,25.55,0,0,1-2.42,8.21c-1.31,2.76-4,4.09-7,4.45-10,1.18-18.79-1.88-25.65-9.09C1014.53,131.35,1010.9,125.3,1011.42,117.63Z"/><path d="M978,368.48c3.19-1.22,6.09-2.11,8.78-3.42,3.74-1.83,7.13-.6,10.4.94,2.26,1.06,2.44,4.89.48,7.3-5.43,6.69-12.3,10.86-21,11.59-.87.07-1.74.07-2.61.1-1.81.09-2.57,1.07-2.47,2.83a33.12,33.12,0,0,0,4.65,14.74,8.53,8.53,0,0,0,2.13,2.15c2.24,1.84,3.62,1.81,5.6-.38a28.24,28.24,0,0,0,2.93-4.29c1.93-3.17,4-4.21,7.13-3.41,2.87.75,5.6,3.75,5.51,6.55a21.48,21.48,0,0,1-9,17.49,9.33,9.33,0,0,1-9.14.93,30.6,30.6,0,0,1-14.86-11.53c-5.07-7.6-9.78-15.34-10.76-24.79-.29-2.82-1.62-5.52-2.42-8.28a30.93,30.93,0,0,1-1.11-4.61,3.78,3.78,0,0,1,2.63-4.46c3.45-1.14,5.21-3.77,6.9-6.78a86.58,86.58,0,0,1,25.6-28.45c4.61-3.26,10.3-5.22,15.76-7,4.83-1.57,10.74,1.42,13.83,6.1,2.35,3.54.93,7.14-3.1,8.71a9.19,9.19,0,0,1-3.36.81c-5.22-.15-9.73,1.93-13.69,4.88a72.66,72.66,0,0,0-17.9,18.69,9.89,9.89,0,0,0-.91,2A6.65,6.65,0,0,0,978,368.48Z"/><path d="M1075.52,119c-1.51,3.53-.11,7,.69,10.39.37,1.55,1.07,3,1.34,4.58.65,3.85-1.41,6.21-5.24,5.92-8-.62-12-4.63-12.42-12a112.14,112.14,0,0,1,3-34,74.05,74.05,0,0,1,11.83-25.91,58.28,58.28,0,0,1,8.63-9.14,13.49,13.49,0,0,1,6.21-2.9c7.91-1.47,15,.51,20.67,6.32,2.4,2.45,2.2,5.7,1.43,8.64a22.72,22.72,0,0,1-3.31,7.49c-5.3,7.36-11.61,13.62-20.53,16.61a17,17,0,0,0-3,1.64,3.63,3.63,0,0,0-1.72,4.83,52.85,52.85,0,0,0,3.51,7.9c3.33,5.41,6.84,10.74,10.56,15.88,1.49,2.06,3.73,3.58,5.66,5.31.54.48,1.19.82,1.76,1.27,2.36,1.84,3.13,3.53,2.33,5a5.51,5.51,0,0,1-6.11,2.23,33,33,0,0,1-6.17-3.16,61.2,61.2,0,0,1-16.5-15.26c-.5-.69-1-1.43-1.43-2.14Zm16.12-44.52-1-1-2.36,2.84.71.65Z"/><path d="M216.06,414c3.3-4.24,4.08-8.51,4.82-12.48a149.4,149.4,0,0,0,3-24.05c.19-9.35-.74-18.75-1.58-28.09-.41-4.56.84-6.71,5.46-7,6.31-.48,9.54,2.41,10.16,8.77.72,7.47,1.74,14.92,2.4,22.4a116.11,116.11,0,0,1-1.3,29.38c-1.17,7-3.08,13.82-4.63,20.73-.77,3.43-3,5.92-5.35,8.27s-5.29,1.9-8.17,1.33A21,21,0,0,1,209.17,427c-3.06-3.22-6.77-5.73-9.28-9.6A43.88,43.88,0,0,1,194.12,404a73.3,73.3,0,0,1-1.88-12.87c-.49-7.8-.63-15.62-.88-23.43-.16-4.78.55-5.08,4.93-6.54,6.18-2.05,11.19,3.21,11,9.6a149,149,0,0,0,.29,19.49c.69,6.43,2,12.88,5.08,18.73A56.55,56.55,0,0,0,216.06,414Z"/><path d="M1138.32,110.22c-2.34.78-3.86,1.16-5.28,1.79-3.36,1.49-6.77,2.56-10.51,2-1.82-.28-2.74.68-3,2.31-.56,3.28-1.11,6.55-1.5,9.85s-1.72,5.15-4.65,5.24c-5.22.16-9.46-1.18-9.28-7a72.27,72.27,0,0,1,1.31-13.73q3.64-15.84,8.19-31.45c2.12-7.22,6.79-13.06,12.13-18.22s13.53-4.26,18.44,1.68a19,19,0,0,1,3.65,5.86c2.36,7.27,4.91,14.5,5.15,22.3.19,6.07,1,12.12,1.12,18.18.12,7.51,0,15-.47,22.51-.31,5.07-2.09,6.49-6.33,6.41-5-.1-8.54-2.85-8.7-7.27s.25-8.67.26-13C1138.84,115.42,1138.54,113.16,1138.32,110.22ZM1124,98.86c5.26.51,9-2,13.51-2.4.25-6.35-.85-12.14-2-17.91-.16-.82-1.08-1.48-2.11-2.8C1127.78,82.64,1125.3,90.08,1124,98.86Z"/><path d="M188.55,415.6c-.58,7.33-.84,14.71-1.82,22a33.32,33.32,0,0,1-8.11,17.48,11.85,11.85,0,0,1-12.08,4.12c-9.09-1.9-15-7.06-18.51-15.73-4.44-11-4.15-22.26-3.05-33.73a81.72,81.72,0,0,1,4.43-20.7c1.93-5.21,5-10,7.85-14.85,1.52-2.54,4.17-3.39,7.21-2.89,4,.66,7.56,1.77,9.53,5.8a3.74,3.74,0,0,0,2.58,1.94c3.29.06,4.61,2.13,5.41,4.75C185.17,394.14,188.88,404.41,188.55,415.6Zm-18.16-28.69c-2.76.27-4,2.08-4.72,4.14-1.29,3.68-2.22,7.47-3.49,11.15A73.58,73.58,0,0,0,158.57,424a39.62,39.62,0,0,0,2,14.11c.79,2.31,1.82,4.75,4.38,4.78s3.65-2.53,4.31-4.8c1.24-4.3,2.52-8.61,3.53-13a34.35,34.35,0,0,0,.78-7.3c.06-3.91-.13-7.82-.26-11.72A76.06,76.06,0,0,0,170.39,386.91Z"/><path d="M769.74,334.34c4,2.26,5.66,5.7,5.89,10.06a30.91,30.91,0,0,0,1.32,6.32,46.32,46.32,0,0,1,1,16.37,69.94,69.94,0,0,1-10.06,30.61c-4,6.46-8.81,7.79-16,5.46-7.6-2.45-12.69-7.64-16.57-14.33-4.72-8.13-5.15-16.64-2.53-25.53,4.21-14.24,9.92-27.71,19.11-39.57,2-2.63,4.33-3.66,7.45-3.22a29.87,29.87,0,0,1,3.39.67C768.24,322.64,772.15,325.74,769.74,334.34Zm-7.81,7.88-1.25-.16a45.59,45.59,0,0,0-3.38,5.41c-2.56,5.63-5.21,11.26-7.28,17.08-1.92,5.42-3.63,11.05-2.45,16.94a16.42,16.42,0,0,0,2.29,5.44c.82,1.26,2.27,1.18,3.28-.14.52-.69.91-1.48,1.36-2.21A58.49,58.49,0,0,0,763,355.81C763.18,351.3,762.31,346.75,761.93,342.22Z"/><path d="M1159.57,336.51c-11.48.28-21.4,4.62-30.08,11.85-2.35,1.95-2.18,3.8.51,5.58q7.21,4.8,14.68,9.23a91.49,91.49,0,0,1,20.68,16.39,26.71,26.71,0,0,1,5,8.05,12.07,12.07,0,0,1,.31,6.75,23.17,23.17,0,0,1-7.13,12.58c-6.9,6.25-14.22,11.42-23.8,12.39-8.06.81-13.43-4.77-15.09-11.5-.6-2.39,1.23-4.19,3.59-3.29,9.85,3.74,15.77-2.61,22-8.27a20,20,0,0,0,3-3.74c2-3,1.67-5.67-.3-8.75-2.83-4.41-6.83-7.33-11.29-9.81q-9.87-5.45-19.66-11c-4.91-2.78-8.82-6.45-10.78-12-1.61-4.52-1.14-7.36,2.4-10.54,7.91-7.14,16.47-13.37,26.81-16.41A102.52,102.52,0,0,1,1157,320.8c5.2-.63,11.41,4.81,12.12,9.95.25,1.77-.35,3.29-2.09,3.85C1164.56,335.38,1162.05,335.89,1159.57,336.51Z"/><path d="M302.08,404.35a10.42,10.42,0,0,1-.55,8.89c-3.24,6.38-7.7,11.64-15.5,12.46a12.26,12.26,0,0,1-9-2.35c-11.9-9.18-18.1-21.18-17.45-36.34a20,20,0,0,1,2-7.47c.91-1.92,1.12-3.48.09-5.26-4.33-7.47-4.3-15.55-2.77-23.61,1.18-6.2,4.71-11.45,8.25-16.59,1.31-1.89,2.47-4.1,4.26-5.42,7.27-5.37,15.35-7.31,24.15-4.3,3.74,1.28,5.84,4.41,6.72,8,1,4.16-4.76,8.62-9.44,7.23-5.27-1.57-8.84.46-12.24,4.21-1.41,1.57-1.2,3.78-3.22,5.23-1.64,1.17-2.24,4-3,6.11a45.19,45.19,0,0,0-1.64,6.3,33.18,33.18,0,0,0-.32,4.17c4.85-.73,9.23-.91,13.56.6,3.94,1.37,5.44,3.46,4.8,7.45-.19,1.14-.36,2.28-.44,3.42-.3,4.35-3.24,7.61-7.7,7.82-6.6.32-8.59,1.47-8.24,10.11.22,5.19,2.95,9.66,5.68,13.92,1.73,2.71,4.49,2.91,7.69,1.1,2.39-1.35,4.82-2.64,7.1-4.17S299.38,404.33,302.08,404.35Z"/><path d="M973.67,56.83c.5-4.19.72-4.47,4.47-5C989,50.25,1000,50.35,1011,50.54a68,68,0,0,1,10.79.58,6.64,6.64,0,0,1,5,9.22,5,5,0,0,1-4,3c-2.42.41-4.86.77-7.29,1.15-3.92.63-4.11.79-4.82,4.85-.62,3.56-1.16,7.13-1.75,10.7-2,12.13-4.07,24.25-6.06,36.38a30.44,30.44,0,0,0,.19,12.06c1.17,5-1.65,7.71-6.54,6.58-7.82-1.81-11.55-5.35-12.56-13.89-.8-6.74.53-13.29,1.67-19.83,1.41-8.1,3.19-16.14,4.74-24.22.51-2.69.81-5.43,1.17-8.15.23-1.78-.26-3-2.22-3.61-4.18-1.21-8.16-2.8-11.36-6-1.19-1.18-3-1.79-4.45-2.67Z"/><path d="M171.12,163.73c-6.48,0-12.75-4.1-14.63-10.27a120,120,0,0,1-3.35-14.77c-2.5-14.55-4.65-29.15-7.25-43.68-1.27-7.1-3.18-14.09-4.9-21.11-.87-3.54,0-5.22,3.64-5.84a38.47,38.47,0,0,1,7.34-.59,10.59,10.59,0,0,1,9.9,8.21c3.88,18.11,7.24,36.31,9.68,54.7,1.08,8.15,3.28,16.15,5,24.22.12.56.31,1.11.44,1.68C178.37,162,177.06,163.71,171.12,163.73Z"/><path d="M104.81,380.66c6.37,0,9.65,4,9.17,10.39a143.66,143.66,0,0,0-.24,17.73c.58,11.55,1.48,23.09,2.37,34.63.27,3.57.92,7.11,1.41,10.66a5.58,5.58,0,0,0,.4,1.68c1.34,2.84,3.68,3.32,5.85,1.05,2.89-3,5.76-6.05,8.4-9.28a9,9,0,0,1,7.24-3.26c2.4-.05,3.65,1.3,3.13,3.58A29.32,29.32,0,0,1,140,455.1c-2.46,4.57-4.89,9.25-8.05,13.32a25.42,25.42,0,0,1-8.4,6.57c-4,2.05-8,.3-11.34-2.17a22,22,0,0,1-9-14.82c-1-6.43-1.77-12.91-2.1-19.39-.57-11.27-.6-22.56-1.09-33.84-.23-5.47-.84-10.95-1.53-16.39C97.93,383.73,100.29,380.64,104.81,380.66Z"/><path d="M352.83,192.22c5.08-.56,5.17-.56,5.35-4.65.15-3.27,0-6.54,0-10.4,1.08-.3,2.43-1,3.72-1a49.51,49.51,0,0,1,9.82,1.34c3.79,1,6.24,5,6.21,9,0,3-.33,6.08-.17,9.1.35,6.77.88,13.53,1.41,20.3q1.17,14.92,2.46,29.85c.2,2.3.79,4.56,1,6.87a19.32,19.32,0,0,1,.05,5.15c-.48,2.91-2.62,4.47-5.6,4.27-2.77-.19-5.47-.63-7.3-3.16a10.56,10.56,0,0,0-2.5-2.4c-4.76-3.26-5.55-8.12-5.75-13.36-.34-8.82-.69-17.63-1.34-26.43-.48-6.61-1.43-13.19-2.16-19.79C357.64,192.9,357.66,192.9,352.83,192.22Z"/><path d="M1241.87,110.58c1.23-8,2.19-16,3.76-24,2-9.92,4.41-19.76,6.68-29.62a10.46,10.46,0,0,1,1.18-3.69c.66-.92,2-2,3-1.9,3.41.38,6.93.64,9.74,3.13,2.62,2.32,3.82,5,2.87,8.5-1.86,6.82-3.6,13.68-5.53,20.48-2.62,9.22-3.68,18.71-4.93,28.16a22.92,22.92,0,0,0,.24,5.6,4.69,4.69,0,0,0,3,3.9,14.21,14.21,0,0,1,4.09,3c2.93,3,2.76,5.28-.35,8-3.63,3.18-8.45,3.18-13,0-7.51-5.25-11.34-12.22-9.91-21.68Z"/><path d="M92.52,321.45a22.37,22.37,0,0,1-3-.81c-5.81-2.56-11.15-5.62-12.8-12.47-.2-.84-.58-1.63-.83-2.47-.64-2.19-2.18-2.91-4.32-2.69a9.84,9.84,0,0,0-1.72.19c-5.75,1.68-10.49-.7-15-3.76-2.95-2-3.19-5.38-.36-7.59a16.43,16.43,0,0,1,5.4-2.58c2.62-.77,5.35-1.17,8-1.7,3.87-.76,4.3-1.16,3.94-5.11-.43-4.6-1.07-9.19-1.64-13.78-.44-3.6.64-5.62,4.14-7.61,2.65-1.5,4.64-1.19,7.51,1.12a11.12,11.12,0,0,1,4.38,7.67c.29,2.57,1.11,5.06,1.6,7.61.63,3.25,1.62,5.82,5.44,6.91s4.8,4.37,3.08,7.92c-.38.78-.8,1.54-1.22,2.3-1.1,2-3,3.87-3.15,5.9a18,18,0,0,0,2.86,10.7A19.69,19.69,0,0,0,96.1,313c1.36,1.69,2.34,3.81,1,5.55C96.05,320,93.9,320.61,92.52,321.45Z"/><path d="M914.33,49.55c6.4-.81,9,2.24,9.81,8.24a9,9,0,0,1-.2,2.92c-1.13,5.36-2.41,10.69-3.45,16.07s-1.75,10.55-2.65,15.83c-1.5,8.8-1.58,17.56.76,26.25a8.91,8.91,0,0,1,.3,1.7c.28,4-1.51,5.38-5.27,4.17-8.44-2.71-13.13-9-14-18-1.18-12.11.76-23.93,2.66-35.78.78-4.85,1.52-9.73,1.9-14.62.36-4.46,1.32-5.86,5.82-6.52C911.44,49.64,912.89,49.64,914.33,49.55Z"/><path d="M1184.91,368c.69-9.07,1.55-16.21,4-23.12q4.77-13.28,9-26.74a41.17,41.17,0,0,0,1.34-9c.51-6.56,3.51-8.32,9.48-5.26a22.75,22.75,0,0,1,4.25,2.92c3.48,2.89,4,6.35,2.23,10.52-1.36,3.18-2.11,6.61-3.26,9.88-3.35,9.55-6.81,19.06-10.13,28.62-1,3-1.85,6.06-2.64,9.13-.87,3.36-1.37,6.84-2.49,10.11a13,13,0,0,1-3.34,4.92,3.66,3.66,0,0,1-6.24-1.52C1186,374.55,1185.38,370.4,1184.91,368Z"/><path d="M1212.91,367.17c.64-11.39,2.62-21.26,6.72-30.66,2.55-5.81,5.15-11.61,7.47-17.51.82-2.08.89-4.45,1.32-6.69.3-1.55.6-3.1.95-4.63.82-3.72,5.94-6,9.9-3.11a32.61,32.61,0,0,1,5.36,5.58c1.53,1.83,1.51,3.86.56,6.09-2.42,5.71-4.49,11.57-7,17.22-2.3,5.14-4.85,10.18-7.61,15.09-2.24,4-3.27,8.29-4.23,12.67q-1.6,7.41-3.44,14.77c-.51,2-3.58,4.13-5.66,4.07-1.6-.05-2.28-1.13-2.53-2.5C1214,373.73,1213.37,369.88,1212.91,367.17Z"/><path d="M1179.92,402.48c1.13-3.21,3.11-6.87,6.75-9.09,2.79-1.7,4.95-.67,6,2.49a77.7,77.7,0,0,1,2.47,9.63c.5,2.56-1.64,6.65-3.91,7.61-2.69,1.14-4.89.13-7.07-1.74C1181.61,409.19,1179.76,406.88,1179.92,402.48Z"/><path d="M356.46,155.6c1.72.18,3.44.39,5.16.54,4.72.4,7.45,3.34,9.34,7.32,1.09,2.31.15,4.21-1.48,5.85s-3.44,3.35-6,2.21c-4.39-1.94-8.4-4.46-11.19-8.52-1.08-1.56-2.06-3.2-1.05-5.2C352,156.22,353.75,155.51,356.46,155.6Z"/><path d="M1217.09,400.48a9,9,0,0,1,8.32,5.26c1.44,2.76.89,5-1.51,7.41s-3.74,2.52-7,.82a26.33,26.33,0,0,1-3.67-2.31c-2.54-1.93-3.52-4.64-2.73-7.18S1213.79,400.5,1217.09,400.48Z"/><path d="M557.82,28.54c-.29.47-.71,2-1.63,2.39s-2.35-.22-3.44-.67a11.32,11.32,0,0,1-2.89-1.86c-1.7-1.43-2.18-3.93-1.16-5.42s3.2-1.91,5.1-1.23C556.3,22.65,557.93,25.09,557.82,28.54Z"/><path d="M342.91,192.19H347v.1h-4.14Z"/><path d="M667.8,290.1l-.06-1.14.22,0c0,.4.08.8.11,1.19Z"/><path d="M422.92,294H421.8V294h1.12Z"/><path class="cls-2" d="M459.3,241.65a20.15,20.15,0,0,1-.42-3.52q1.49-12.91,3.07-25.83c.74-6,1.59-12,2.29-18,.18-1.56-.07-3.16,0-4.74.1-3.29,1.65-4.69,4.93-4.55,5,.21,7.73,2.42,8.79,7.32a19.6,19.6,0,0,1-.47,11.08c-1.73,4.88-2.8,10-4.12,15a47.94,47.94,0,0,1-10.42,20.19A37.93,37.93,0,0,1,459.3,241.65Z"/><path class="cls-3" d="M734.61,60.77c1.51,5.46,2.61,10.84,1.82,16.59a20.72,20.72,0,0,1-10.26,0C727.82,71.15,731,66,734.61,60.77Z"/><path class="cls-4" d="M447.2,370.37c-.37-8.64,2.75-16.44,6.05-24.16a72,72,0,0,1,5.23-9.95,25.61,25.61,0,0,1,4.84-5.51c3.38-3,6.59-2.24,9.51,1.27,4.65,5.59,4.25,12.14,3.62,18.56a62.83,62.83,0,0,1-5.89,20.33c-1.51,3.24-3.62,6.2-5.45,9.29s-4.82,4.09-7.76,5.24a5,5,0,0,1-5.89-1.47,14.46,14.46,0,0,1-4.25-9.26C447.13,373.27,447.2,371.82,447.2,370.37Z"/><path class="cls-5" d="M712,344.05c.44,2.05,1.3,4.12,1.24,6.17-.33,11.17-3.05,21.73-9.1,31.24a15.38,15.38,0,0,1-4,3.91c-2.23,1.65-3.75.89-4.09-1.92a16.08,16.08,0,0,1,.12-3.46A63.18,63.18,0,0,1,701,362.5c1.91-4.68,4-9.27,6.24-13.81a39.78,39.78,0,0,1,3.25-4.88Z"/><path class="cls-2" d="M343.29,335.21c-2.17,8.61-7.55,14-14.19,19.14C329.51,346.93,336.78,337.09,343.29,335.21Z"/><path class="cls-5" d="M869.22,225.87c5.09-7.48,10.6-13.46,19.27-16.71,0,1.4.25,2.31,0,3C886,217.78,876.52,224.7,869.22,225.87Z"/><path class="cls-4" d="M1152,271.2c0-4.67-.17-8.53,0-12.36.61-11.72-.25-23.36-1.46-35-.44-4.19-.82-8.49,2.17-12a15.24,15.24,0,0,1,4.33-3.44c2.4-1.27,4.65-.34,6.82,2.05,4.29,4.72,6,10.39,6.68,16.56a43.15,43.15,0,0,1-4.14,23.14c-3.26,7-7.65,13.24-12.26,19.35A13.55,13.55,0,0,1,1152,271.2Z"/><path class="cls-3" d="M801.18,394.42c.51-14.48,2-27.75,6.33-40.52,1.32-3.9,3.65-7.51,5.83-11,1.38-2.24,3.78-2,4.54.56a34,34,0,0,1,1.34,8.92,66.07,66.07,0,0,1-4.62,25.38C812.08,384.38,807.62,389.5,801.18,394.42Z"/><path class="cls-1" d="M1009.15,226c-.12,2.17-.21,3.64-.32,5.71-1.2-.61-2.39-.9-2.41-1.28C1006.3,228.74,1007,227.32,1009.15,226Z"/><path class="cls-4" d="M954.1,332.22c1,2.67-.74,4.29-1.77,6.08A54,54,0,0,1,934.91,357a21.41,21.41,0,0,1,.72-3.81c2.4-5.34,4-11.11,8.2-15.49C946.61,334.77,949.54,332.1,954.1,332.22Z"/><path class="cls-2" d="M647.74,220.08l9.5,9.63c-.49,2.62-2.87,4.1-5.16,5.44-1.93,1.13-3.05.54-4.13-1.52A14.37,14.37,0,0,1,647.74,220.08Z"/><path class="cls-6" d="M1091.64,74.44,1089,76.9l-.71-.65,2.36-2.84Z"/><path class="cls-1" d="M1124,98.86c1.29-8.78,3.77-16.22,9.39-23.11,1,1.32,1.95,2,2.11,2.8,1.16,5.77,2.26,11.56,2,17.91C1133.05,96.9,1129.27,99.37,1124,98.86Z"/><path class="cls-3" d="M170.39,386.91a76.06,76.06,0,0,1,2.88,19.14c.13,3.9.32,7.81.26,11.72a34.35,34.35,0,0,1-.78,7.3c-1,4.36-2.29,8.67-3.53,13-.66,2.27-1.68,4.82-4.31,4.8s-3.59-2.47-4.38-4.78a39.62,39.62,0,0,1-2-14.11,73.58,73.58,0,0,1,3.61-21.75c1.27-3.68,2.2-7.47,3.49-11.15C166.39,389,167.63,387.18,170.39,386.91Z"/><path class="cls-1" d="M761.93,342.22c.38,4.53,1.25,9.08,1.05,13.59a58.49,58.49,0,0,1-8.48,28.77c-.45.73-.84,1.52-1.36,2.21-1,1.32-2.46,1.4-3.28.14a16.42,16.42,0,0,1-2.29-5.44c-1.18-5.89.53-11.52,2.45-16.94,2.07-5.82,4.72-11.45,7.28-17.08a45.59,45.59,0,0,1,3.38-5.41Z"/></svg>