<svg id="Layer_1" data-name="Layer 1" xmlns="http://www.w3.org/2000/svg" viewBox="0 0 556 213"><defs><style>.cls-1{fill:#682d63;}.cls-2{fill:#fff;}.cls-3{fill:#deeeb7;}.cls-4{fill:#5fb49b;}</style></defs><path d="M114.05,56.88c1.6.38,3,2,5,1-.54-1.71-2-1.59-3.17-1.94-2.35-.74-2.73-1.33-1.52-3.5a44.36,44.36,0,0,1,3.51-4.66,8.85,8.85,0,0,1,0-2.35c.52-2.34,1-4.77,3.95-5.38a1.85,1.85,0,0,0,.9-.35c4.24-4.31,9.5-1.48,14.26-2A2.8,2.8,0,0,1,139,38.77c2,2.29,4.27,4.27,5.1,7.45s2.17,6.06,3.29,9.08a6.27,6.27,0,0,1,.32.92c.87,4.93,1.65,9.87,2.62,14.77.59,3,.09,6.14,1.72,8.91a3.43,3.43,0,0,1,.32,1.57c.05,3.36,0,6.73.13,10.09.17,3.6.82,4.13,4.36,4.18,2.77,0,3.4.65,2.94,3.29s-1.22,5.12-3.53,6.78a4.59,4.59,0,0,0-1.89,4.28c.18,3.81.41,7.61.53,11.42.15,4.89.2,9.79.31,14.68.16,6.87.3,13.73.52,20.59.08,2.4.57,4.8.53,7.19-.09,5-.38,10-.66,15.05a53.56,53.56,0,0,1-.65,5.5c-.44,2.7-2.42,4.07-4.76,4.92a3.56,3.56,0,0,1-3.93-.82,7.18,7.18,0,0,0-3-1.92c-4.44-1-5.88-4.18-6.16-8.17-.22-3.16-.14-6.33-.3-9.5-.29-5.88-.75-11.75-1-17.64-.22-5.23-.13-10.48-.41-15.7a61.91,61.91,0,0,1,.23-12.4,5.74,5.74,0,0,0-.22-2.25,1.61,1.61,0,0,0-2.25-1.26c-1.77.55-3.55,1.09-5.27,1.77-4.24,1.68-8.45,3.47-12.69,5.18-2.81,1.12-5.62,2.28-8.49,3.23s-4.12,3.23-4.63,5.87c-1.39,7.18-2.48,14.42-3.91,21.59a71.61,71.61,0,0,0-.89,15,21.75,21.75,0,0,1-1.12,6.4c-.73,2.47-2,3.26-4.44,2.7-3.48-.79-6.91-1.85-10.32-2.91a5,5,0,0,1-3.52-4.68,25.87,25.87,0,0,1,.41-8.76c1-4.24,1.33-8.62,2.1-12.91,1.06-5.9,2.18-11.79,3.48-17.64.45-2,.43-3.62-1.37-4.92a6.76,6.76,0,0,1-1.33-1.44c-1.83-2.5-1.62-3.47,1-5.21a7.36,7.36,0,0,1,1.62-1.1c4.41-1.44,5.35-5.36,6.57-9.07,1.45-4.43,2.93-8.86,4.29-13.32.61-2,.7-4.14,1.47-6,2.16-5.23,4-10.61,6.81-15.56,1.16-2,1.53-4.51,2.52-6.67a31.15,31.15,0,0,1,3.58-5.71c0-1.58-.7-3.41,1.38-4.5,4,.45,4,.45,3.65-3.6,0-.21,0-.43,0-.65Zm14.25,9.28-1.09-.1c-1.74,3.09-3.71,6.07-5.15,9.29-2.45,5.47-4.67,11.05-6.8,16.66-2,5.38-3.89,10.83-5.76,16.28-.65,1.87.11,2.75,2,2.45a22.14,22.14,0,0,0,3.5-.88c4.43-1.49,8.88-3,13.27-4.59,3.91-1.45,4.91-3.41,4.26-7.57-.14-.86-.16-1.74-.25-2.6-.93-8.46-1.84-16.93-2.84-25.38A18.77,18.77,0,0,0,128.3,66.16Zm-4.2-11.08a9.22,9.22,0,0,0-.94-1s-.52.33-.51.47a1.11,1.11,0,0,0,.47.7C123.28,55.36,123.59,55.19,124.1,55.08Z"/><path d="M171.5,58.34c1.54-1.12,2.88-2.05,4.18-3,2.63-2,3.83-5,5.5-7.64,1.78-2.83,3.26-5.86,5-8.73a8.55,8.55,0,0,1,2.5-2.89c3.67-2.29,7.31-4.79,11.9-4.92a5.1,5.1,0,0,0,1.29-.2c6.29-1.78,12.19-.35,18.11,1.87,3.95,1.49,7.66,3.17,10.41,6.45A27.68,27.68,0,0,1,233.79,44c4.31,8.23,4.53,16.92,2.42,25.75A113.39,113.39,0,0,1,232.76,82c-1.52,4.18-3.56,8.17-5.39,12.24-.22.5-.56.94-.77,1.44-.8,1.89-.6,2.57,1.37,3.21a17.86,17.86,0,0,1,6.21,3.49,14.41,14.41,0,0,1,5.13,9.18,15.41,15.41,0,0,1-.39,5.77A44.92,44.92,0,0,1,232,132.44c-7.31,10.19-14.86,20.38-27,25.5-2.84,1.2-5.71,2.81-9.11,2a4.27,4.27,0,0,0-2.4.74,10,10,0,0,1-7.26.55c-3.31-.84-5.85-2.82-8.64-4.45-2-1.19-2.53-3.21-2.62-5.33-.26-5.66-.23-11.34-.7-17-.58-6.84-1.31-13.69-2.44-20.45a118.44,118.44,0,0,1-1.7-17.2c0-2.39-.18-4.79-.33-7.17a46.7,46.7,0,0,1,1.53-14.54,38.23,38.23,0,0,0,.81-9.09A74.85,74.85,0,0,0,171.5,58.34Zm22.59,29.3h-.19c0,1.21-.07,2.41,0,3.61.16,2.12.68,2.64,2.79,2.84,1.09.11,2.28-.2,3.26.15,3.81,1.35,6-1,7.47-3.66a86.68,86.68,0,0,0,9.49-23.92c.63-3,1-6,1.41-9.06a16.69,16.69,0,0,0-2.19-11,5.64,5.64,0,0,0-7.61-2.33,21,21,0,0,0-8.39,7c-4.26,5.72-5.27,12.42-5.94,19.09C193.63,76.07,194.09,81.88,194.09,87.64Zm.31,30.69c0,4.11-.26,8.35.08,12.54.24,3.08-.18,6.31,1.45,9.23,1,1.77,1.58,2.38,3.28,1.32a24.82,24.82,0,0,0,5.9-5,140.12,140.12,0,0,0,9.13-12.29,77.59,77.59,0,0,0,4.84-9.54,5.12,5.12,0,0,0,.3-2.56c-.2-2.17-1.64-2.83-3.39-1.61-.54.37-1,.92-1.49,1.28-3.66,2.49-7,5.6-11.74,6C200.12,118,197.46,118.11,194.4,118.33Z"/><path d="M347.51,123.78c2.82-1.79,3.26-4.18,4.13-6.17,2.79-6.39,5.35-12.88,8-19.34a186.35,186.35,0,0,0,10.27-32.68c1.13-5.55,1.83-11.18.93-16.9a11.12,11.12,0,0,1,.48-5.15A5.2,5.2,0,0,1,374,41a12.64,12.64,0,0,1,4.16-.67c1.52-.11,3.05,0,4.58-.09,5.56-.18,9.2,2.69,9.09,7.34a40.87,40.87,0,0,1-.41,6.16,64.85,64.85,0,0,0-.47,16c.14,2.16.17,4.34.21,6.52.15,7,0,13.94.49,20.89.56,8.13,1.09,16.31,4.35,24,2,4.82-1.83,9.43-7,8.56a32.65,32.65,0,0,1-5.66-1.53,11.3,11.3,0,0,1-6.74-6.76c-.77-1.87-1.55-3.75-2.47-5.95a13.4,13.4,0,0,0-3.66,5.61,79.2,79.2,0,0,1-8.91,16.66,10.58,10.58,0,0,1-12.38,4.3c-4.59-1.36-9.1-2.91-13.13-5.64a17.31,17.31,0,0,1-5.27-5.66c-3.67-6.15-4.7-13.08-6.33-19.87s-1.66-13.49-1.49-20.18c.21-8.91.32-17.88,1.81-26.76A129.38,129.38,0,0,0,326,48.26c.09-1.91.87-2.39,2.48-3.14,4.11-1.9,8.18-.83,12.21-.35,3.85.47,6.42,4.68,5.64,8.55-.39,1.91-1.13,3.75-1.5,5.66s-.33,3.68-.65,5.49a173.43,173.43,0,0,0-2.31,28A90.25,90.25,0,0,0,344,114.29C344.76,117.4,346.22,120.34,347.51,123.78Z"/><path d="M287.92,37,293,34.77a3.6,3.6,0,0,1,.9-.36c3.4-.45,6.51.75,9.36,2.24,2.66,1.39,3.71,4.2,4.06,7.13,1,8.53,2.08,17,3,25.6a95.28,95.28,0,0,1,.39,10.14A97.74,97.74,0,0,1,308,102.19c-1.95,7.94-3.92,15.89-7.36,23.37-.19.39-.32.82-.54,1.19-3.34,5.5-6.75,11-11.8,15.09-3.72,3-8,4.71-12.74,3.22-7.15-2.25-13.94-5.45-18.35-11.81a41.86,41.86,0,0,1-4.75-10.31c-3.43-9.88-2.15-19.83.35-29.66A86.94,86.94,0,0,1,257,80.62c2.64-6.21,6.42-11.84,8.83-18.08a53.65,53.65,0,0,1,6.47-11.66c2.45-3.45,4.88-6.94,9.24-8.43a5.41,5.41,0,0,1,3.71-.31c2,.63,2.89-.15,2.85-2.16C288.11,38.92,288,37.87,287.92,37Zm2.71,23.24c-3.63.18-4.72,2.61-5.77,4.82-3.25,6.85-6.34,13.77-9.49,20.66a10.49,10.49,0,0,0-.53,1.55c-1.78,7.07-3.58,14.13-4.09,21.45a31.46,31.46,0,0,0,3.52,17c1.37,2.63,2.63,2.74,4.22.41a57.15,57.15,0,0,0,7.89-16.08c1.28-4.39,2.08-8.89,3.08-13.34,2.47-11,2.52-22.05,1.75-33.17A32.07,32.07,0,0,0,290.63,60.26Z"/><path d="M424.25,51.89c-4.25.21-8.49.49-12.73.61a17.71,17.71,0,0,1-8.53-2c-1.81-.9-3.82-1.23-5.57-2.47a7.4,7.4,0,0,1-3.05-5.18,4.22,4.22,0,0,1,1.3-3.08,10.42,10.42,0,0,1,8.06-2.87c5.12.23,10.24.64,15.34.44,5.54-.21,11.05-1.08,16.58-1.59,3.68-.34,7.37-.56,11.05-.82,2.38-.17,4.77-.19,7.12-.55a7,7,0,0,0,3.89-1.54c1.61-1.77,3.65-2,5.64-2.17a21.06,21.06,0,0,1,12.86,2.69c.7.42,1.62,1.16,1.7,1.83.26,2.35.69,4.87.11,7.08s-2.73,3.7-5.1,4.19c-3.51.74-7.06,1.34-10.62,1.85-4.21.6-8.44,1-12.66,1.53A2.13,2.13,0,0,0,447.56,52c-.39,3.91-1.08,7.81-1.2,11.73q-.47,15.72-.5,31.44c0,6.21.44,12.42.49,18.64,0,5-.22,10-.34,15-.05,1.85-.12,3.7-.1,5.55.08,5-.24,10,.72,15,0,.21,0,.44.08.65,1.35,5-1.53,7.72-5.2,10.07a1.76,1.76,0,0,1-.87.42c-4.61-.06-9-1-12.65-4a5.93,5.93,0,0,1-2.29-4.88,39.27,39.27,0,0,1,.48-6.52c1.55-7.78,1.36-15.61,1.1-23.47-.17-5.21,0-10.43.06-15.64.06-10.8,0-21.6.2-32.4.08-4.69.57-9.37.88-14,.1-1.42.27-2.83.32-4.25.12-3.1-.2-3.43-3.19-3.48h-1.31Z"/><path d="M114.1,56.83l-1.54.58-.09-.68,1.58.16Z"/><path class="cls-1" d="M128.3,66.16a18.77,18.77,0,0,1,1.17,3.56c1,8.45,1.91,16.92,2.84,25.38.09.86.11,1.74.25,2.6.65,4.16-.35,6.12-4.26,7.57-4.39,1.63-8.84,3.1-13.27,4.59a22.14,22.14,0,0,1-3.5.88c-1.92.3-2.68-.58-2-2.45,1.87-5.45,3.72-10.9,5.76-16.28,2.13-5.61,4.35-11.19,6.8-16.66,1.44-3.22,3.41-6.2,5.15-9.29Z"/><path class="cls-2" d="M124.1,55.08c-.51.11-.82.28-1,.19a1.11,1.11,0,0,1-.47-.7c0-.14.48-.49.51-.47A9.22,9.22,0,0,1,124.1,55.08Z"/><path class="cls-3" d="M194.09,87.64c0-5.76-.46-11.57.12-17.28.67-6.67,1.68-13.37,5.94-19.09a21,21,0,0,1,8.39-7,5.64,5.64,0,0,1,7.61,2.33,16.69,16.69,0,0,1,2.19,11c-.41,3-.78,6.08-1.41,9.06a86.68,86.68,0,0,1-9.49,23.92c-1.45,2.61-3.66,5-7.47,3.66-1-.35-2.17,0-3.26-.15-2.11-.2-2.63-.72-2.79-2.84-.09-1.2,0-2.4,0-3.61Z"/><path class="cls-3" d="M194.4,118.33c3.06-.22,5.72-.36,8.36-.6,4.72-.42,8.08-3.53,11.74-6,.54-.36.95-.91,1.49-1.28,1.75-1.22,3.19-.56,3.39,1.61a5.12,5.12,0,0,1-.3,2.56,77.59,77.59,0,0,1-4.84,9.54,140.12,140.12,0,0,1-9.13,12.29,24.82,24.82,0,0,1-5.9,5c-1.7,1.06-2.3.45-3.28-1.32-1.63-2.92-1.21-6.15-1.45-9.23C194.14,126.68,194.4,122.44,194.4,118.33Z"/><path class="cls-4" d="M290.63,60.26a32.07,32.07,0,0,1,.58,3.33c.77,11.12.72,22.16-1.75,33.17-1,4.45-1.8,8.95-3.08,13.34a57.15,57.15,0,0,1-7.89,16.08c-1.59,2.33-2.85,2.22-4.22-.41a31.46,31.46,0,0,1-3.52-17c.51-7.32,2.31-14.38,4.09-21.45a10.49,10.49,0,0,1,.53-1.55c3.15-6.89,6.24-13.81,9.49-20.66C285.91,62.87,287,60.44,290.63,60.26Z"/></svg>