<svg id="Layer_1" data-name="Layer 1" xmlns="http://www.w3.org/2000/svg" viewBox="0 0 803 213"><defs><style>.cls-1{fill:#414288;}.cls-2{fill:#97dfaf;}</style></defs><path d="M355.06,107.23c0,1.84-.05,3.67,0,5.51.14,4.13.29,8.26.53,12.38a28.12,28.12,0,0,0,1.14,8,27.6,27.6,0,0,1,1,6.78,6.73,6.73,0,0,1-2.1,5.3c-1.87,2-3.54,4.17-6.51,4.53a4.31,4.31,0,0,1-1.9.13c-3.94-1.55-7.87-3.14-11.73-4.89a4.1,4.1,0,0,1-1.69-2.19,20.66,20.66,0,0,1-1.21-7.68c0-4.9-.4-9.82-.61-14.73-.17-4-.4-8-.4-12.06,0-3.58.42-7.17.36-10.74,0-2.59-.57-5.16-.87-7.74-.23-1.95-.56-3.9-.61-5.86-.07-2.8.24-5.62.09-8.41a53.9,53.9,0,0,0-1.08-8.41c-1.05-4.9-2.34-9.73-3.54-14.59a1.86,1.86,0,0,0-.36-.91c-2.17-2-2.35-4.56-2.68-7.3-.57-4.74,1-7,5.82-7.37,4.42-.31,8.69.23,12.55,2.51a10.87,10.87,0,0,1,4.8,6,30.79,30.79,0,0,0,1.91,3.81c2.59-3.12,4.81-5.91,7.15-8.6,5.81-6.67,13.14-10.42,21.82-12.17,6.67-1.34,12.89,0,18.93,2.15,3.84,1.37,7.37,3.75,10.81,6s5.35,5.51,7,9.22c3.13,7,2,13.54-1.41,19.94a65.48,65.48,0,0,1-4.89,7.74A54.25,54.25,0,0,1,393.14,87c-1.36.89-2.42,2.27-3.82,3.06-3.76,2.16-7.64,4.12-11.47,6.15-.48.26-1,.44-1.47.72-1.58,1-1.72,1.78-.46,3.1,4.68,4.89,9.28,9.85,14.08,14.61s10.19,9.21,14.82,14.25c2.8,3,5.11,6.8,3.53,11.51a7.58,7.58,0,0,1-9.45,4.71,27.83,27.83,0,0,1-11.34-7.7c-3.89-4.11-8-8-12-12-2.14-2.17-4.1-4.51-6.26-6.66-3.55-3.54-7.17-7-10.83-10.43a14.63,14.63,0,0,0-2.62-1.59Zm39.81-55.67a4.18,4.18,0,0,0-1.75-4.29c-3.41-2.66-6.95-2.29-10.5-.81-4.2,1.74-7.51,4.84-10.62,8a68.32,68.32,0,0,0-13.09,20.21,32.3,32.3,0,0,0-2.29,6.72c-.52,2.62.4,3.41,3.11,2.9a38.91,38.91,0,0,0,5-1.52,48,48,0,0,0,14.14-8,68.48,68.48,0,0,0,8.5-8.11C391.39,62.3,394.67,57.43,394.87,51.56Z"/><path d="M592.58,114.31a10.55,10.55,0,0,0,1.17-1.92A320.16,320.16,0,0,0,602,74.06c.85-5.68.7-11.51,1-17.27.27-6.09.75-12.19.61-18.27-.1-4,.32-8.27-2.37-12a3.76,3.76,0,0,1,1.45-5.63,10.05,10.05,0,0,1,4.89-1.44,18.92,18.92,0,0,1,11.57,4,11.2,11.2,0,0,1,3.34,5.81,33.64,33.64,0,0,1,.63,8.75c-.21,6.76-.7,13.51-1,20.27-.34,7.31-.45,14.62-.95,21.91A159.32,159.32,0,0,1,615.55,111c-1,3.9-2,7.81-3.29,11.65a26.68,26.68,0,0,1-7.09,11.23,9.42,9.42,0,0,1-8.41,2.55c-9.32-1.59-16.16-6.61-21.06-14.55-2.84-4.61-4.4-9.69-5.7-14.9-1.57-6.24-3.3-12.44-5-18.66q-1.81-6.78-3.66-13.55c0-.16-.31-.27-.7-.59a10.27,10.27,0,0,0-.8,2,244.08,244.08,0,0,0-3.49,27.24c-.6,8.91-1.85,17.78-2.8,26.67-.36,3.35-.78,6.7-1,10.07a4,4,0,0,1-2.2,3.7c-2,1.09-3.73,2.63-6.14,2.76-.43,0-.86.32-1.26.27a16.84,16.84,0,0,1-9.46-4.8c-2.37-2.22-2.46-5.24-2-8.24.88-5.5,1.94-11,2.73-16.47.65-4.52,1-9.09,1.53-13.63q1.06-8.42,2.33-16.81,1.44-9.37,3.11-18.72a89.15,89.15,0,0,1,2.23-9.57c2.12-7.1,4.42-14.13,6.65-21.19.2-.63.43-1.24.61-1.87,1.44-5.1,4.22-7.06,9.6-6.69,2.28.15,4.56.54,6.84.5a4.15,4.15,0,0,1,3.59,1.86c2,2.51,3.83,5,3.36,8.56a13.77,13.77,0,0,0,.43,4.54c1.29,6,2.58,12,4,17.91q3.89,15.9,8,31.76c1.59,6.13,3.39,12.2,5.12,18.3A16.12,16.12,0,0,0,592.58,114.31Z"/><path d="M210.24,109.62c-1.53,5.38-1.06,10.5-.75,15.61.33,5.42.54,10.86,1.09,16.25a96.45,96.45,0,0,0,2.07,13.13,10.19,10.19,0,0,1-6.59,11.82c-5.1,1.66-9.64.28-14.1-1.92a6,6,0,0,1-2-2.08c-1.84-2.83-2.18-6.14-2.29-9.35-.23-6.64-.06-13.29-.14-19.93-.06-4.8-.2-9.61-.41-14.4-.31-7-.75-14-1.05-20.93-.2-4.68-.18-9.38-.42-14.07-.25-5.12-.65-10.23-1.08-15.34-.11-1.29-.63-2.54-.83-3.83a29.25,29.25,0,0,1-.45-4.84c0-.78.48-2,1-2.23,2.26-.83,4.14-2.68,7-2.08,2.39.51,4.93,0,7.19,1.52,1.1.74,2.14-.21,2.76-1.11a35.12,35.12,0,0,0,4-6.37A39.42,39.42,0,0,1,210,41.72c2.88-4.1,5.75-8.23,10.4-10.6A7.25,7.25,0,0,1,223,30c6-.22,12-.83,17.73,1.66a18.86,18.86,0,0,1,9.52,8.51c3.61,6.55,3.7,13.54,3.36,20.66a46,46,0,0,1-3.91,16.13c-3.16,7.31-6.59,14.53-12.23,20.33a32.79,32.79,0,0,1-5.64,4.34c-2.55,1.67-5.22,3.16-7.87,4.68a16.32,16.32,0,0,1-7.77,2.29A41.2,41.2,0,0,0,210.24,109.62Zm2.11-19.68a14.33,14.33,0,0,0,6-5.43,166.31,166.31,0,0,0,9.13-16.18c1.92-4.2,2.81-8.9,4-13.43a11.28,11.28,0,0,0,.09-4.22,1.24,1.24,0,0,0-2.18-.8,48.81,48.81,0,0,0-6,6.84,88.11,88.11,0,0,0-8.7,17.53A42.82,42.82,0,0,0,212,87,20.32,20.32,0,0,0,212.35,89.94Z"/><path d="M17.77,125.2c.27-3,.42-8.34,1.33-13.58.85-4.8,2.52-9.44,3.83-14.16,1-3.47,1.9-6.94,2.89-10.4a55.26,55.26,0,0,1,1.76-5.56c1.45-3.53,3-7,4.58-10.49,2.78-6.24,7-11.52,11.2-16.82a40.84,40.84,0,0,1,6.82-6.47c2.45-1.95,5.34-3.34,8-5,4-2.51,8.72-2.31,13.07-3.51a5.25,5.25,0,0,1,2.79.58c1.11.41,2.16,1.42,3.25,1.44,2.6.06,4.25,1.58,5.76,3.27a6.81,6.81,0,0,1,1.6,3.42c.48,3.49-1.06,5.61-4.6,5.77-5.39.24-9.77,2.89-14.27,5.33a7.62,7.62,0,0,0-2,1.67c-2.74,3.09-5.56,6.13-8.1,9.38a28,28,0,0,0-3.15,5.71c-2.64,5.85-5.35,11.68-7.71,17.65a123.59,123.59,0,0,0-3.65,11.88A56.22,56.22,0,0,0,39,118.5c-.1,2.44.36,2.87,2.74,2.63a32,32,0,0,0,12.6-4.27c4.36-2.45,8.8-4.79,13.37-6.81,1.79-.8,4-.69,6-.85.85-.07,1.77.48,2.58.32,2-.4,3.43,0,4.22,2s1.81,4.39-.12,6.42A90.26,90.26,0,0,1,73,125.26a83.08,83.08,0,0,1-10.46,7.8c-5.13,3.09-10.52,5.76-16.77,5.77a27,27,0,0,0-3.91.37c-2.28.34-3.4,1.65-2.8,3.89,1.78,6.62,2.94,13.45,6.14,19.63,1.66,3.2,4.34,4.3,7.46,2.66a42,42,0,0,0,6.79-4.48c3.81-3.07,7.4-6.4,11.19-9.48a6.78,6.78,0,0,1,3.29-1.19,42.26,42.26,0,0,1,4.91-.12c3.4,0,6.38,3,5.73,6.29a22.86,22.86,0,0,1-4.92,10.86c-3.44,4-6.79,8-11.17,10.93a25.82,25.82,0,0,1-12.74,4.6c-4.22.31-8.26-.46-12.32-1.07a15.49,15.49,0,0,1-6.26-2.61c-3.28-2.26-6.77-4.42-8.41-8.43a18.67,18.67,0,0,0-2.29-3.55c-3.29-4.55-4.73-9.86-5.84-15.18A132.74,132.74,0,0,1,17.77,125.2Z"/><path d="M130.54,89.93c1-2.44,2-4.59,2.83-6.81,1.65-4.62,3-9.36,4.83-13.92,1.73-4.32,3.91-8.47,5.88-12.71a24,24,0,0,0,1-2.75c1-3.15,3.5-5,6.19-6.47a4.83,4.83,0,0,1,3.15,0c2.75.66,5.48,1.45,8.17,2.33a6.42,6.42,0,0,1,4.15,8.38c-1,2.63-2.32,5.12-3.5,7.68-.13.29-.31.58-.42.88q-4,11.06-8,22.12c-1.41,3.91-2.85,7.8-4.09,11.76-.94,3-1.64,6.11-2.34,9.19a5.63,5.63,0,0,0,.87,4.36c2.86,4.64,5.65,9.33,8.32,14.08,2.29,4.07,4.37,8.25,6.56,12.38a13.44,13.44,0,0,0,.87,1.39,9.08,9.08,0,0,1-3.78,13.8,3.5,3.5,0,0,1-2.48.34c-3.36-1.72-7.32-1.93-10.37-4.47a19.35,19.35,0,0,1-4.83-5.69c-1.69-3.11-3.33-6.25-5-9.35-1.91.11-2.33,1.38-2.87,2.56-1.48,3.26-3.1,6.46-4.46,9.76a73.63,73.63,0,0,0-2.75,8c-1.19,4.19-2.17,8.44-3.31,12.64a43,43,0,0,1-1.84,5.59,6.93,6.93,0,0,1-9.72,3,7.45,7.45,0,0,0-2.26-1.22c-6.55-1.26-7.9-6.32-7.16-11.57a61.17,61.17,0,0,1,3-11.39c3.43-9.77,7.1-19.46,10.66-29.18,1.16-3.16,2.18-6.38,3.52-9.46a6.79,6.79,0,0,0-.92-7.62c-4.12-5.06-8.11-10.22-12.34-15.18a19.42,19.42,0,0,0-5.1-4,15.79,15.79,0,0,1-6.67-6.91,36.61,36.61,0,0,0-2.49-3.85c-3-4.64-.31-7.76,4.4-9.58,1.12-.43,2.58-.06,3.88,0s2.41.57,3.56.41c3.17-.45,5.82,1,8.36,2.35,1.54.83,2.71,2.48,3.84,3.92,3.64,4.63,7.17,9.34,10.79,14A8.66,8.66,0,0,0,130.54,89.93Z"/><path d="M275,94l8.35-3.54c2.31-1,4.54-2.29,6.95-2.82a42.24,42.24,0,0,1,9.7-1.08c2.87,0,5,3.74,4.68,6.67-.45,4.37-3.59,6.56-6.71,8.72a120.85,120.85,0,0,1-21.42,11.7c-1,.43-2,1-3,1.37-4.41,1.65-5.1,3.6-4,8.56.52,2.33,1.45,4.58,1.87,6.92.49,2.78,2.36,4.6,4,6.59a1.94,1.94,0,0,0,1.38.73c2.24-.2,4.79.17,6.5-1.59a62.12,62.12,0,0,0,6.26-7.49c2-2.81,4-5.44,7.31-6.78,2.89-1.19,5.5-1,7.58,1.65a2.52,2.52,0,0,0,.21.25c1.59,1.27,3.7,2.15,3.79,4.61.13,3.18.18,6.45-1.39,9.28a112.6,112.6,0,0,1-6.66,10.41c-.92,1.28-2.48,2.1-3.75,3.13-6.68,5.35-14,6.75-22.35,4.5-5.64-1.51-9.91-4.77-14-8.59-.24-.22-.37-.58-.64-.74-4.79-3-6.53-8-8.15-12.93a125.82,125.82,0,0,1-3.4-14.29,9.69,9.69,0,0,0-3.54-5.35,6.44,6.44,0,0,1-2.33-5.15c0-2.15-1.6-4.38.85-6.36,1.75-1.41,2.76-3.6,5.13-4.43,3.11-1.07,3.86-4.2,4.63-6.77A80.86,80.86,0,0,1,261,73.32c5.76-9.82,13-18.54,20.57-27a35.31,35.31,0,0,1,4.29-3.44,18.3,18.3,0,0,0,2.66-2.38,10.31,10.31,0,0,1,9.81-4,3.73,3.73,0,0,0,1,.17c4.92-.85,8,2.23,11,5.28,1.61,1.65,2.57,3.84,1.2,6.27a1.85,1.85,0,0,0-.27.93c0,4.4-3,7.06-5.66,9.88a6.9,6.9,0,0,1-2.42,1.63c-2.3.91-4.77,1.45-7,2.53A15.78,15.78,0,0,0,290.94,67c-2.41,2.91-4.33,6.22-6.5,9.33-1.42,2-3.08,3.95-4.35,6.09-1.75,3-3.25,6.11-4.81,9.21A10.07,10.07,0,0,0,275,94Z"/><path d="M654.85,102.31A61.67,61.67,0,0,0,656,115.64a57.88,57.88,0,0,0,4.2,15.07c1.62,3.57,3.26,7,6.91,9.25,4.49,2.71,8,2.22,12.08-.79,4.25-3.18,7.25-7.53,10.8-11.37,1.26-1.37,2.6-2.66,3.77-4.1,2-2.43,4.89-3.17,7.6-4.25a6.24,6.24,0,0,1,2.56-.1,1.82,1.82,0,0,1,1.92,2.12,5.21,5.21,0,0,0,.3,2.57c1.42,2.7.55,5-.85,7.35-2.64,4.37-5.15,8.82-8,13.07-3.71,5.61-8.44,10-15.39,11.25-4.06,2.66-8.71,2.32-13.06,1.78a29.74,29.74,0,0,1-17-7.83,31.32,31.32,0,0,1-7.53-10.16c-1.23-2.8-3-5.39-3.93-8.26-1.52-4.64-2.61-9.43-3.78-14.17a53.28,53.28,0,0,1-.92-5.49c-1.66-11.9-.2-23.49,3.44-34.86,1.49-4.68,2.83-9.42,4.59-14a110.72,110.72,0,0,1,4.94-10.24c1.62-3.19,3.29-6.36,5-9.47.74-1.32,1.84-2.43,2.66-3.7,3.77-5.88,7.6-11.71,12.37-16.86,4.09-4.41,8.9-7.93,14.73-9.33,3.41-.81,7.16-.46,10.74-.31a19.87,19.87,0,0,1,10.28,3.78,9.24,9.24,0,0,1,2.35,2.55c.66,1,.92,2.26,1.62,3.21,2.38,3.23,1.75,6.45-.19,9.44s-4.93,4.92-8.87,4.32c-1.18-.19-2.36-.43-3.54-.66a5.69,5.69,0,0,1-4.33-3.07c-1.21-2.32-1.9-2.2-4.16-.95A27.63,27.63,0,0,0,678,40.82c-4.14,6.26-8.09,12.66-11.78,19.19a84.69,84.69,0,0,0-8.9,24.5C656,90.62,654.52,96.66,654.85,102.31Z"/><path d="M748.8,93.38A29.92,29.92,0,0,0,765.92,90c.58-.3,1.21-.5,1.82-.75,1.71-.69,3.41-1.65,5.29-.5,2.39,1.47,4.37,3.33,5,6.17a3.69,3.69,0,0,1-.22,2.55,23,23,0,0,1-4.07,5.45,54.39,54.39,0,0,1-7.37,4.78,15,15,0,0,1-8.8,1.93c-3.35-.18-6.72.24-10.09.29-2.71,0-5.44-.16-8.15-.1-2.12.05-2.55.53-2.39,2.57.44,5.57,1.27,11,4.49,15.84,3,4.52,7,7.75,12.54,8.55,2.23.32,4.37.85,6.74.54a17.92,17.92,0,0,0,8-3.41,73.8,73.8,0,0,0,7.52-6.28c2.4-2.21,4.74-2,6.37.79a27,27,0,0,1,2.17,4.38c.75,2.08-.61,3.76-1.55,5.4a16,16,0,0,1-2.75,3.24c-2.19,2.11-4.38,4.23-6.72,6.16a9.91,9.91,0,0,1-3.74,1.94c-3.89,1-7.82,1.9-11.78,2.59a13.56,13.56,0,0,1-4.55-.35c-2.36-.41-4.67-1.19-7-1.43-6.27-.65-11-4.11-15.12-8.41a44.13,44.13,0,0,1-10.18-16.61,59.44,59.44,0,0,1-2.86-18c-.09-5.87-.78-11.73,2.31-17.13,1.55-9.84,5.55-18.79,10-27.57,2.46-4.86,4.77-9.81,7.47-14.54a53.29,53.29,0,0,1,6.87-9.88c3.34-3.6,6.61-7.22,10.61-10.11a9.81,9.81,0,0,1,1.81-1.39c8.49-3.35,16.94-4.16,24.22,3.93,3.46,3.84,2.35,6.56-.42,9.84a4.23,4.23,0,0,1-5.34,1.13,8.6,8.6,0,0,1-1.18-.58c-3.18-2.07-6-1.09-8.74,1a42.28,42.28,0,0,0-4.44,3.22,30,30,0,0,0-3.91,4.78A90.66,90.66,0,0,0,751.48,60c-2.93,5.84-5.55,11.84-8.1,17.85-1.53,3.59-2.78,7.3-4,11-1,3.14-.16,4.06,3.18,4.16C744.67,93.06,746.73,93.25,748.8,93.38Z"/><path d="M462.15,101.58c3.86-1.11,4-4.5,4.63-7.58,1.24-6.4,2.26-12.87,5.37-18.73,1.47-2.77,3.07-5.49,4.69-8.18a60.84,60.84,0,0,1,4.24-6.57,113.2,113.2,0,0,1,8.85-10.42c3.49-3.49,8-5.62,12.53-7.48a12.07,12.07,0,0,0,2.18-.68c3.49-2.41,7.58-2.62,11.56-3.19,6.75-1,13.15,6.55,11,13a7.58,7.58,0,0,1-2.95,3.76c-2.07,1.26-4.25,2.33-7,1.86-4.68-.79-8.48.84-12,4.3a63,63,0,0,0-10,12.35,56.47,56.47,0,0,0-7.89,19.54c-.39,2.19.37,3.08,2.64,2.74,2.8-.43,5.6-.93,8.34-1.63,6.12-1.54,12.34-1.57,18.55-1.34a6.07,6.07,0,0,1,6.14,5.28c.18,1.54-.12,2.84-1.61,3.61a70.75,70.75,0,0,1-7.26,3.69c-4.07,1.54-8.46,2.32-12.35,4.19-3.7,1.77-7.64,2.39-11.41,3.68-2.36.8-3.2,2-2.65,4.49a49.1,49.1,0,0,0,2.4,8.17c1.68,4.13,3.68,8.14,5.6,12.18a7.54,7.54,0,0,0,1.39,1.81c1.24,1.29,2.05,1.35,3.35.22a17.13,17.13,0,0,0,2-2.15c2.64-3.32,6.56-4.57,10.2-6.21a4.63,4.63,0,0,1,5.14,1.21c3.57,3.38,4.14,7.14,2.06,11.74-1.93,4.26-4.54,8.07-8.38,10.64-6.14,4.12-12.85,5.19-19.91,2.31a24.31,24.31,0,0,1-3-1.2,31.83,31.83,0,0,1-3.7-2.53c-1.21-.92-2.29-2-3.51-2.94-2.83-2.13-4.1-5.36-5.57-8.33a94.93,94.93,0,0,1-5.29-13c-2.07-6.43-3.66-13-5.55-19.52-.78-2.7-1.8-5.32-2.69-8A5,5,0,0,1,462.15,101.58Z"/><path d="M445.33,81.3c.41,8.27.87,16.54,1.22,24.81.19,4.57,0,9.15.29,13.71a140.33,140.33,0,0,0,2.84,21c1,4.48-3.13,9.64-7.76,9.79-2.67.09-5.53-.26-7.34-2.21A18.91,18.91,0,0,1,431,142c-2.3-6.41-2.76-13.16-3.17-19.9-.39-6.31-.9-12.6-1.24-18.91-.14-2.49.18-5,0-7.5-.49-8.59-.92-17.2-1.72-25.76-.48-5.2-1.54-10.34-2.47-15.49-.38-2.14-1.16-4.2-1.68-6.32a62.46,62.46,0,0,1-1.38-6.32c-.57-4.08.16-5.18,4-6.69s12.8,1.16,14.9,4.86a18.57,18.57,0,0,1,2.15,6.14c1.24,7.86,2.26,15.75,3.37,23.63.23,1.62.5,3.24.74,4.86.33,2.23.65,4.47,1,6.7Z"/><path class="cls-1" d="M394.87,51.56c-.2,5.87-3.48,10.74-7.53,15.14a68.48,68.48,0,0,1-8.5,8.11,48,48,0,0,1-14.14,8,38.91,38.91,0,0,1-5,1.52c-2.71.51-3.63-.28-3.11-2.9a32.3,32.3,0,0,1,2.29-6.72A68.32,68.32,0,0,1,372,54.5c3.11-3.2,6.42-6.3,10.62-8,3.55-1.48,7.09-1.85,10.5.81A4.18,4.18,0,0,1,394.87,51.56Z"/><path class="cls-2" d="M212.35,89.94a20.32,20.32,0,0,1-.37-3,42.82,42.82,0,0,1,2.65-12.74,88.11,88.11,0,0,1,8.7-17.53,48.81,48.81,0,0,1,6-6.84,1.24,1.24,0,0,1,2.18.8,11.28,11.28,0,0,1-.09,4.22c-1.18,4.53-2.07,9.23-4,13.43a166.31,166.31,0,0,1-9.13,16.18A14.33,14.33,0,0,1,212.35,89.94Z"/></svg>