<svg id="Layer_1" data-name="Layer 1" xmlns="http://www.w3.org/2000/svg" viewBox="0 0 185.96 95.97"><defs><style>.cls-1{fill:#414288;}.cls-2{fill:#fff;}</style></defs><path class="cls-1" d="M118.05,5.93A41.85,41.85,0,0,0,93,14.22a42.06,42.06,0,1,0,0,67.53A42.06,42.06,0,1,0,118.05,5.93Z"/><path class="cls-2" d="M73.63,53.7l-2-13.26h2l1.66,12.62H75L77.6,40.44h2.5l2.64,12.61h-.3L84.1,40.44h2L84.06,53.7h-3L78.75,42H79L76.64,53.7Z"/><path class="cls-2" d="M92.06,53.88a5.22,5.22,0,0,1-2.6-.64,4.6,4.6,0,0,1-1.77-1.76,5.14,5.14,0,0,1-.63-2.56,5.08,5.08,0,0,1,.63-2.55,4.55,4.55,0,0,1,1.77-1.74,5.76,5.76,0,0,1,5.2,0,4.53,4.53,0,0,1,1.76,1.74,5.08,5.08,0,0,1,.63,2.55,5.14,5.14,0,0,1-.63,2.56,4.58,4.58,0,0,1-1.76,1.76A5.24,5.24,0,0,1,92.06,53.88Zm0-1.68a3,3,0,0,0,1.58-.4,2.84,2.84,0,0,0,1.07-1.15,3.77,3.77,0,0,0,.38-1.73,3.7,3.7,0,0,0-.38-1.72,2.75,2.75,0,0,0-1.07-1.12,3.32,3.32,0,0,0-3.16,0,2.63,2.63,0,0,0-1.07,1.12A3.58,3.58,0,0,0,89,48.92a3.65,3.65,0,0,0,.39,1.73,2.71,2.71,0,0,0,1.07,1.15A3,3,0,0,0,92.06,52.2Z"/><path class="cls-2" d="M99.22,53.7V44.15h2V47.2l-.52-.24a3.87,3.87,0,0,1,.29-1.11,3.57,3.57,0,0,1,.63-1,2.74,2.74,0,0,1,1-.66,3.47,3.47,0,0,1,1.33-.24,3.83,3.83,0,0,1,.93.09,2.22,2.22,0,0,1,.44.14l-.41,1.84a1.46,1.46,0,0,0-.37-.17,3.09,3.09,0,0,0-2,.17,2.06,2.06,0,0,0-.77.69,2.92,2.92,0,0,0-.41.94,4.44,4.44,0,0,0-.12,1v5Z"/><path class="cls-2" d="M106.79,53.7V39.65h1.86v8.42l-.48-.22,4.26-3.7h2.45l-4.62,4.09.47-.87,4.15,6.33h-2.07l-3.35-5.28.44.14-1.5,1.33.25-.89v4.7Z"/></svg>