<svg id="Layer_1" data-name="Layer 1" xmlns="http://www.w3.org/2000/svg" viewBox="0 0 221.72 221.72"><defs><style>.cls-1{fill:#682d63;}.cls-2{fill:#fff;}</style></defs><ellipse class="cls-1" cx="110.68" cy="107.21" rx="108.5" ry="51"/><path class="cls-2" d="M49.67,115.15V96.71h2.68v18.44Z"/><path class="cls-2" d="M55.87,115.15V101.87h2.71v13.28Zm9.45,0v-7.74a4.59,4.59,0,0,0-.3-1.72,2.42,2.42,0,0,0-1-1.16,3.53,3.53,0,0,0-1.84-.42,3.44,3.44,0,0,0-1.83.5,3.69,3.69,0,0,0-1.3,1.36,3.91,3.91,0,0,0-.49,1.94l-1.16-.57a5.63,5.63,0,0,1,2.81-4.93,5.45,5.45,0,0,1,2.81-.75,5.54,5.54,0,0,1,2.69.61A4.11,4.11,0,0,1,67.44,104a5.6,5.6,0,0,1,.6,2.67v8.49Z"/><path class="cls-2" d="M76.69,115.41a9.42,9.42,0,0,1-2.24-.26,6.31,6.31,0,0,1-1.85-.77,3.7,3.7,0,0,1-1.23-1.26,3.31,3.31,0,0,1-.45-1.73v-.34h2.7v.25a1.48,1.48,0,0,0,.85,1.38,4.74,4.74,0,0,0,2.29.47,6.3,6.3,0,0,0,1.56-.18,2.6,2.6,0,0,0,1.12-.53,1.17,1.17,0,0,0,.42-.93,1.34,1.34,0,0,0-.89-1.3,12.24,12.24,0,0,0-2.71-.69,14.76,14.76,0,0,1-1.91-.45,6.51,6.51,0,0,1-1.65-.73,3.69,3.69,0,0,1-1.16-1.13,3,3,0,0,1-.43-1.65,3.14,3.14,0,0,1,.75-2.12,4.59,4.59,0,0,1,2-1.33,8.32,8.32,0,0,1,2.81-.45,7.68,7.68,0,0,1,2.75.48,5,5,0,0,1,2,1.39,3.31,3.31,0,0,1,.77,2.22V106H79.58v-.17a1.41,1.41,0,0,0-.41-1.06,2.5,2.5,0,0,0-1.07-.62,4.5,4.5,0,0,0-1.39-.21,6.37,6.37,0,0,0-1.36.15,2.71,2.71,0,0,0-1.13.48,1.11,1.11,0,0,0-.45.93,1.19,1.19,0,0,0,.44,1,3.49,3.49,0,0,0,1.24.59q.8.23,1.86.42a16.93,16.93,0,0,1,1.9.44,7,7,0,0,1,1.67.71,3.55,3.55,0,0,1,1.19,1.12,3.1,3.1,0,0,1,.44,1.69,3.34,3.34,0,0,1-.47,1.79,3.87,3.87,0,0,1-1.3,1.24,6.29,6.29,0,0,1-1.86.74A9.8,9.8,0,0,1,76.69,115.41Z"/><path class="cls-2" d="M91,115.37a6.56,6.56,0,0,1-1.32-.13,3.21,3.21,0,0,1-1.2-.51,2.57,2.57,0,0,1-.87-1.06,4.3,4.3,0,0,1-.32-1.8v-7.75H84.06v-2.25h1.68a6.35,6.35,0,0,0,.84,0,.73.73,0,0,0,.45-.21,1,1,0,0,0,.18-.55,9.23,9.23,0,0,0,0-1V97.49H90v4.38H94v2.25H90V111a4.19,4.19,0,0,0,.24,1.58,1.09,1.09,0,0,0,1.12.57,4.2,4.2,0,0,0,.72-.06,2.54,2.54,0,0,0,.51-.14v2.22a3.46,3.46,0,0,1-.64.16A5.34,5.34,0,0,1,91,115.37Z"/><path class="cls-2" d="M100.81,115.41a6.86,6.86,0,0,1-2.63-.47,3.93,3.93,0,0,1-1.76-1.37,3.64,3.64,0,0,1-.62-2.13,3.43,3.43,0,0,1,.7-2.22,4.55,4.55,0,0,1,2-1.35,10.69,10.69,0,0,1,2.84-.63,30.48,30.48,0,0,0,3.33-.47c.64-.15,1-.39,1-.73v0a1.69,1.69,0,0,0-.86-1.54,4.74,4.74,0,0,0-2.46-.52,4.9,4.9,0,0,0-2.61.59,2.09,2.09,0,0,0-.92,1.88H96.07a4.17,4.17,0,0,1,.8-2.58,4.93,4.93,0,0,1,2.19-1.62,9.37,9.37,0,0,1,6.24,0,5,5,0,0,1,2.18,1.5,3.79,3.79,0,0,1,.82,2.49v6.34c0,.31,0,.61,0,.89a4.85,4.85,0,0,0,.14.77,3,3,0,0,0,.27.64,2.23,2.23,0,0,0,.26.35h-2.7a1.64,1.64,0,0,1-.22-.32,3,3,0,0,1-.26-.57,4.24,4.24,0,0,1-.17-.72,7.89,7.89,0,0,1-.05-.88l.5.35a3.46,3.46,0,0,1-1.13,1.26,5.88,5.88,0,0,1-1.82.84A8.51,8.51,0,0,1,100.81,115.41Zm.56-2.25a5.75,5.75,0,0,0,2.12-.37,3.36,3.36,0,0,0,1.53-1.12,3,3,0,0,0,.58-1.91v-2.2l.63.84a9.77,9.77,0,0,1-2,.51c-.77.13-1.57.23-2.38.31a7.18,7.18,0,0,0-2.54.59,1.47,1.47,0,0,0-.85,1.43,1.63,1.63,0,0,0,.71,1.44A3.87,3.87,0,0,0,101.37,113.16Z"/><path class="cls-2" d="M120.31,114.09a7.06,7.06,0,0,1,2,.42,3,3,0,0,1,1.33.93,2.61,2.61,0,0,1,.48,1.63,2.89,2.89,0,0,1-.77,2,5,5,0,0,1-2.29,1.31,13.18,13.18,0,0,1-3.79.47,10.48,10.48,0,0,1-4.94-.94,2.86,2.86,0,0,1-1.7-2.55,3.15,3.15,0,0,1,.11-.86,2.64,2.64,0,0,1,.28-.63l2.52.38a1.44,1.44,0,0,0-.17.37,1.7,1.7,0,0,0-.09.59c0,.59.36,1,1.09,1.26a9.54,9.54,0,0,0,3,.38,11.64,11.64,0,0,0,2.34-.2,3.48,3.48,0,0,0,1.4-.55,1.07,1.07,0,0,0,.46-.85.86.86,0,0,0-.64-.93,8.06,8.06,0,0,0-1.53-.26l-5-.41a3.9,3.9,0,0,1-2.15-.79,2.12,2.12,0,0,1-.83-1.7,2.27,2.27,0,0,1,.33-1.19,3.82,3.82,0,0,1,.75-.92,2.18,2.18,0,0,1,.75-.47l1.77.85a1.54,1.54,0,0,0-.69.39,1,1,0,0,0-.41.8.83.83,0,0,0,.36.7,2.7,2.7,0,0,0,1.39.36ZM122,101.87h2.47l-1,5.19a7.59,7.59,0,0,1-1,2.62,5.24,5.24,0,0,1-2,1.84,6.42,6.42,0,0,1-3.09.68,7.6,7.6,0,0,1-3.31-.66,4.84,4.84,0,0,1-2.88-4.54,5,5,0,0,1,.77-2.75,5.28,5.28,0,0,1,2.12-1.9,6.78,6.78,0,0,1,3.11-.69,6.55,6.55,0,0,1,2.62.5,5.12,5.12,0,0,1,1.82,1.28,2.79,2.79,0,0,1,.74,1.61l-.78.09ZM117.34,110a4.46,4.46,0,0,0,1.87-.36,2.63,2.63,0,0,0,1.21-1,3.32,3.32,0,0,0,0-3.27,2.65,2.65,0,0,0-1.21-1,4.29,4.29,0,0,0-1.86-.37,4.24,4.24,0,0,0-1.83.38,3,3,0,0,0-1.25,1.07,3.24,3.24,0,0,0,0,3.26,2.77,2.77,0,0,0,1.21,1A4.5,4.5,0,0,0,117.34,110Z"/><path class="cls-2" d="M127,115.15V101.87h2.71v4.24l-.72-.32a4.87,4.87,0,0,1,.41-1.55,4.45,4.45,0,0,1,.87-1.32,3.77,3.77,0,0,1,1.34-.92,4.63,4.63,0,0,1,1.85-.34,5.07,5.07,0,0,1,1.29.13,2.39,2.39,0,0,1,.61.2l-.57,2.55a2.6,2.6,0,0,0-.51-.23,3.31,3.31,0,0,0-1.06-.14,3.48,3.48,0,0,0-1.7.37,2.85,2.85,0,0,0-1.07,1,3.84,3.84,0,0,0-.57,1.31,6.18,6.18,0,0,0-.17,1.41v6.93Z"/><path class="cls-2" d="M141.88,115.41a6.9,6.9,0,0,1-2.63-.47,3.91,3.91,0,0,1-1.75-1.37,3.58,3.58,0,0,1-.63-2.13,3.43,3.43,0,0,1,.71-2.22,4.55,4.55,0,0,1,1.95-1.35,10.61,10.61,0,0,1,2.83-.63,30.48,30.48,0,0,0,3.33-.47c.65-.15,1-.39,1-.73v0a1.71,1.71,0,0,0-.86-1.54,6.07,6.07,0,0,0-5.07.07,2.09,2.09,0,0,0-.92,1.88h-2.66a4.17,4.17,0,0,1,.79-2.58,4.93,4.93,0,0,1,2.19-1.62,8.73,8.73,0,0,1,3.22-.56,8.6,8.6,0,0,1,3,.51,5,5,0,0,1,2.18,1.5,3.84,3.84,0,0,1,.81,2.49v6.34a8.45,8.45,0,0,0,0,.89,3.31,3.31,0,0,0,.14.77,2.24,2.24,0,0,0,.27.64,2.34,2.34,0,0,0,.25.35h-2.7a2.26,2.26,0,0,1-.22-.32,3,3,0,0,1-.25-.57,3.46,3.46,0,0,1-.17-.72,6,6,0,0,1-.06-.88l.5.35a3.46,3.46,0,0,1-1.13,1.26,5.82,5.82,0,0,1-1.81.84A8.63,8.63,0,0,1,141.88,115.41Zm.57-2.25a5.79,5.79,0,0,0,2.12-.37,3.47,3.47,0,0,0,1.53-1.12,3.09,3.09,0,0,0,.57-1.91v-2.2l.64.84a9.88,9.88,0,0,1-2,.51c-.77.13-1.56.23-2.38.31a7.24,7.24,0,0,0-2.54.59,1.48,1.48,0,0,0-.85,1.43,1.63,1.63,0,0,0,.71,1.44A3.88,3.88,0,0,0,142.45,113.16Z"/><path class="cls-2" d="M152.67,115.15V101.87h2.71v13.28Zm8.21,0v-7.89a9.76,9.76,0,0,0-.06-1,3.6,3.6,0,0,0-.3-1,1.92,1.92,0,0,0-.72-.78,2.56,2.56,0,0,0-1.34-.3,2.79,2.79,0,0,0-1.44.34,2.7,2.7,0,0,0-1,.89,4,4,0,0,0-.52,1.24,5.84,5.84,0,0,0-.17,1.37l-1.15-.63a6.46,6.46,0,0,1,.62-2.84,5.22,5.22,0,0,1,1.75-2,4.68,4.68,0,0,1,2.67-.77,4.39,4.39,0,0,1,2.51.65,3.67,3.67,0,0,1,1.37,1.75,7,7,0,0,1,.42,2.5v8.59Zm8.18,0v-7.93a9.51,9.51,0,0,0-.06-1,2.89,2.89,0,0,0-.3-1,1.81,1.81,0,0,0-.73-.75,2.65,2.65,0,0,0-1.37-.3,2.91,2.91,0,0,0-1.45.33,2.8,2.8,0,0,0-.93.88,3.81,3.81,0,0,0-.5,1.19,5.74,5.74,0,0,0-.15,1.29l-1.15-.6a6.2,6.2,0,0,1,.61-2.76,5,5,0,0,1,1.72-2,5.18,5.18,0,0,1,5.12-.16,3.67,3.67,0,0,1,1.43,1.66,6.12,6.12,0,0,1,.46,2.47v8.76Z"/></svg>