<?xml version="1.0" encoding="utf-8"?>
<!-- Generator: Adobe Illustrator 26.0.3, SVG Export Plug-In . SVG Version: 6.00 Build 0)  -->
<svg version="1.1" id="Layer_1" xmlns="http://www.w3.org/2000/svg" xmlns:xlink="http://www.w3.org/1999/xlink" x="0px" y="0px"
	 viewBox="0 0 1446.4 549.4" style="enable-background:new 0 0 1446.4 549.4;" xml:space="preserve">
<style type="text/css">
	.st0{fill:#DEEEB7;}
	.st1{fill:#414288;}
	.st2{fill:#682D63;}
	.st3{fill:#A4E3B9;}
	.st4{fill:#97DFAF;}
	.st5{fill:#5FB49B;}
	.st6{fill:#FFFFFF;}
</style>
<path class="st0" d="M1299.5,203.7c0,0-11.7,33.1-11.7,33.5c0,0.4,18.7,2.9,18.7,2.9v-36.4H1299.5z"/>
<path d="M1212.4,464.8c0.5,4.5-1.6,7-4.3,9.1c-3.8,2.9-7.8,5.5-11.7,8.3c-10.1,7-20.4,13.8-30.4,20.9c-5.3,3.8-11.1,6.8-17.1,9.2
	c-6,2.5-11.9,0.8-17.7-1.4c-10.7-4-16.7-12.9-22.7-21.9c-3.6-5.4-7.7-10.5-11.8-15.5c-1.9-2.3-4.6-3.1-7.5-1.5
	c-3.7,2-7.5,3.8-10.8,6.3c-5.5,4-10.5,8.6-16,12.7c-6.3,4.8-12.8,9.4-19.4,13.9c-4.2,2.9-9,4.8-14.1,5.4c-7.8,0.9-14-2.3-19.5-7.7
	c-7-6.9-12.2-15-16.3-23.8c-1.3-2.9-3-5.6-4.7-8.3c-1.6-2.6-2.8-3.3-5.8-2.2c-2.8,1-5.7,2.2-8.1,4c-5.6,4.4-10.8,9.2-16.2,13.8
	c-6.1,5.3-12.1,10.8-18.6,15.6c-5.6,4.2-12,6.9-19.3,7.1c-3.6,0.1-6.9-1-9.8-3c-6.1-4.1-10.9-9.4-14.3-16
	c-2.7-5.3-5.5-10.5-8.5-15.6c-1.2-2.1-3-4-5-5.3c-2.9-2-6-0.6-8.5,1.1c-4.2,2.9-8.1,6.1-12.1,9.2c-6.1,4.6-11.9,9.7-18.4,13.7
	c-7.1,4.4-15.1,6.8-23.6,6.3c-5.3-0.3-9.8-2.7-13.7-6c-8.1-6.7-14.1-15.2-19.7-24.1c-2.5-4-5.3-7.9-8.1-11.8c-1.4-2-3.7-2-6,0.1
	c-4.1,3.7-7.8,7.7-12,11.2c-6,5-11.3,10.8-17.7,15.3c-6.7,4.8-18.1,5.2-25.4-1.1c-4.4-3.8-8.6-7.8-11.6-12.7c-2-3.2-3.4-6.7-5.3-9.9
	c-2.1-3.5-4.4-6.8-6.7-10.1c-0.7-1-1.8-1.7-2.6-2.5c-3.2,0.8-5.1,2.9-6.8,5c-6.2,7.6-12.3,15.4-18.9,22.7c-4.2,4.7-9,9-13.8,13.2
	c-7,6.3-18.8,5.7-25.9-0.5c-7.2-6.3-13.3-13.3-17.8-21.7c-2.8-5.3-6.4-10-10.5-14.3c-2.4-2.5-4.5-5.2-5.6-8.6
	c-0.7-2.1,0-3.3,1.9-4.2c2.3-1,4.4-1,7-0.1c5.7,2.1,8.7,6.2,11.7,11.4c4.8,8.5,9.2,17.3,16,24.6c4,4.3,7,4.8,11.7,1.5
	c1.5-1.1,3-2.3,4.3-3.6c8.4-8.8,16.6-17.7,23.7-27.6c2.8-3.8,6-7.5,9.8-10.4c4.3-3.3,9.2-3.7,14.7-1.8c5.1,1.7,8.2,5.2,10.8,9.4
	c4,6.5,8.4,12.8,11.7,19.7c1.8,3.7,5,6.7,7.6,9.9c1.5,1.8,3.4,1.8,5.6,1.2c4.4-1.2,7.9-3.8,11-6.8c6.9-6.8,13.6-13.9,20.4-20.8
	c1.8-1.8,3.7-3.7,5.8-5.1c2.2-1.5,4.6-2,7.4-1.5c7.6,1.5,12.6,6,16.4,12.4c3.3,5.6,6.4,11.4,10.1,16.7c3.4,5,7.3,9.7,11.2,14.4
	c2.5,3,5.8,3.8,9.8,3.4c6.9-0.8,12.8-3.8,18.1-7.9c9.2-7,18.2-14.3,27.3-21.5c3.2-2.6,6.7-4.5,11-4.5c4.3,0,8,1.3,11.2,4
	c4.3,3.8,7.7,8.2,10.1,13.4c3,6.3,6.3,12.4,9.6,18.4c1,1.8,2.8,3.3,4.3,4.8c2.4,2.5,5.5,2.4,8.5,1.5c7-2,12.7-6.1,18.1-10.8
	c4.2-3.7,8.4-7.6,12.5-11.5c1.7-1.6,3.1-3.4,4.6-5c0.3-0.3,0.5-0.8,0.9-0.9c3.9-1.1,5.9-4.5,8.9-6.8c1.4-1.1,2.7-2.2,4-3.3
	c7.8-6.6,18.4-2.7,23.4,2c3.9,3.7,6.2,8.3,8.6,12.9c3.3,6.3,6.4,12.6,9.9,18.8c4.8,8.6,13.1,10.9,22.2,5.7
	c8.2-4.7,15.4-10.7,22.8-16.5c7.2-5.6,14.1-11.5,21.2-17.3c3.8-3.1,8.2-5,13.2-4.4c1.9,0.2,4.2,0.7,5.6,1.9
	c4.9,3.8,9.5,7.8,12.8,13.3c4.6,7.8,9.7,15.4,15.5,22.4c4.2,5,10.3,7.3,17.2,6.4c4.5-0.6,8.7-1.9,12.6-4.4
	c6.4-4.2,12.8-8.5,19.3-12.4c7.1-4.2,14.4-8,21.6-12c3.2-1.7,6.3-3.6,9.4-5.2C1207.5,466,1209.6,464.6,1212.4,464.8z"/>
<path d="M588.3,236.6c-0.9,1.7-1.4,2.4-1.7,3.2c-1.1,2.7-3,4.3-5.6,5.6c-4.2,2.1-8.5,3.6-12.9,5c-5.4,1.7-10,0-14.3-3
	c-2-1.4-3.7-3.3-5.3-5.1c-2.1-2.5-1.5-4.5,1.6-5.5c1.9-0.6,3.9-1,5.9-1.2c4-0.3,7.6-1.5,10.6-4.3c2.4-2.3,2.8-5.2,0.8-7.8
	c-2.3-2.9-4.8-5.8-7.5-8.4c-3.3-3.2-6.9-6.1-10.6-9.4c-1.4,0.8-3,1.4-4.1,2.4c-5.2,4.7-11.1,8.3-17.8,10.5c-2.2,0.7-4.3,1.8-6.4,2.7
	c-3.6,1.5-5.3,3.3-4.9,5.7c0.7,4.2,2.4,7.4,6.6,8.1c2.4,0.4,4.9,0.3,7.3,0.7c3.6,0.6,6.1,3,6.4,6c0.2,2-2.7,6.4-4.9,7.2
	c-6.9,2.8-13.4,1.7-19.5-2.2c-5.4-3.4-9.3-8.3-12.4-13.7c-1.6-2.8-2.1-6.2-3.2-9.4c-0.7-1.9-0.8-4.2-2.9-6c-1.2,3.4-2.2,6.3-3.4,9.2
	c-2,4.8-3.9,9.7-6.4,14.2c-2.5,4.4-5.9,8.2-8.6,12.4c-1.9,3-4.6,4.7-7.5,6.3c-1.6,0.9-3.1,1.3-4.9,0.4c-0.9-0.4-1.9-0.7-2.9-0.6
	c-7.8,0.3-12.1-4.4-15.2-10.8c-3.5-7.3-2.4-15-1.5-22.6c1-8.2,2-16.4,3-24.6c0.3-2.4,0-4.6-2.4-6c-4.8-3-4.8-13-0.9-17.3
	c3.9-4.3,8.6-6.9,14.4-7c6.1-0.1,12.2,0.5,17.9,2.9c11.9,4.8,20.1,13.8,19.9,27.2c0,1,0.2,1.9,0.9,3c0.3-0.9,0.7-1.7,0.8-2.6
	c0.9-6.6,3.1-12.5,7.3-17.8c3.6-4.7,6.5-9.9,10-14.6c4.5-5.9,11.1-8.3,18.8-5.7c3.9,1.3,5,4.6,6.1,7.9c0.7,1.9-0.7,4.3-2.9,5.3
	c-4.2,1.8-6.9,5.1-9.4,8.7c-2.9,4.2-6.5,7.8-7.9,12.9c-0.4,1.3-0.8,2.6-1.4,4.8c9.3-0.7,17.2-3.9,26-5.5c-0.2-1.5-0.3-2.7-0.7-3.9
	c-2.3-6.7,1.3-14.6,7-18.1c9.5-5.9,19.7-6,30.1-2.7c1.4,0.4,2.9,1.6,3.7,2.9c2.9,4.4,2.7,7.1-2.8,8.7c-3.9,1.1-7.8,2.3-11.6,3.5
	c-0.6,0.2-1.1,0.3-1.7,0.5c-7.4,3.2-8.6,9-2.8,14.5c3.5,3.4,7.7,6.2,10.8,9.9c4.1,4.8,8.9,9.2,11.3,15.3c0.1,0.2,0.4,0.3,1.3,0.9
	c0.6-3.6,1.2-6.9,1.5-10.2c1-9.9,1.9-19.9,0.9-29.9c-0.1-1.3-0.2-2.6-0.5-3.9c-0.6-3.2,0-4.2,2.9-5.1c3.9-1.2,12.4,1.3,14.5,4.9
	c1.2,2,1.7,4.6,1.8,7c0.8,12.6,0.7,25.1-0.9,37.7c-0.7,5.4-1.2,10.9,0.1,16.4c0.2,0.7,0.1,1.4,0.1,2.2c0.2,2.3,0.5,4.8-1.9,6.2
	c-1.9,1.2-6.8,0.4-8.6-1.3c-4-3.7-7.3-7.8-8.6-13.3C589.2,239,588.9,238.3,588.3,236.6z M459.3,241.6c1.7-1.4,2.8-2.1,3.6-3
	c5.2-5.8,8.4-12.7,10.4-20.2c1.3-5,2.4-10.1,4.1-15c1.3-3.8,1.3-7.4,0.5-11.1c-1.1-4.9-3.8-7.1-8.8-7.3c-3.3-0.1-4.8,1.3-4.9,4.6
	c0,1.6,0.2,3.2,0,4.7c-0.7,6-1.6,12-2.3,18c-1.1,8.6-2.1,17.2-3.1,25.8C458.8,238.9,459.1,239.8,459.3,241.6z"/>
<path d="M804.5,100.6c1-2.3,2.3-4.4,2.8-6.7c1.5-6.6,2.7-13.2,2.5-20.1c-0.3-9.4-2.1-18.4-3.9-27.4c-1.1-5.7-1.7-11.4-2.5-17.1
	c-0.3-1.9,0.6-2.9,2.4-3.6c6-2.4,13.3,1.3,14.5,7.7c1.3,6.8,2.2,13.7,3.4,20.5c1,5.6,2.6,11,3.3,16.6c1.1,9.4,0,18.8-1.8,28.1
	c-1.1,5.4-3.9,10.2-7.3,14.7c-2,2.7-5,3.3-8.1,3.7c-5.2,0.6-9.7-1.2-13.8-4.2c-7.3-5.2-12-12.4-15.8-20.3c-1.8-3.8-3.4-7.7-5.1-11.5
	c-0.6-1.3-1.2-2.5-2.1-4.5c-0.6,1.4-1.1,2.1-1.1,2.8c-0.2,4.2-0.4,8.4-0.3,12.6c0.2,6.4,0.6,12.7,1,19.1c0,0.7,0.1,1.4,0.1,2.2
	c0.2,6.6-3.1,8.8-9,6c-6-2.8-6-2.8-9-7.2c-1.1,1.6-0.6,3.4-0.8,5c-0.7,4.6-3.3,7.2-7.3,7.1c-3.5-0.1-9-4.3-9.4-7.8
	c-0.5-4-0.4-8.1-0.4-12.1c0-2.9,0.3-5.8,0.4-8.7c0-1.5-0.2-3.1-0.4-5c-4.9-0.3-8.2,2-10.7,5.2c-2.2,2.7-3.8,5.8-7.3,7.1
	c-0.7,0.2-1.3,1.2-1.4,2c-1,4.6-2.4,9.3-2.7,14c-0.2,3.6-2.3,5.7-6.2,5.5c-5-0.2-8.1-3.6-11.3-6.6c-0.6-0.6-0.5-2.2-0.4-3.3
	c3-17.3,7.6-34.2,15.3-50.1c3.4-7,7.3-13.8,11.1-20.6c1.2-2.1,2.9-4,4.5-5.8c0.7-0.8,1.8-1.4,2.9-1.7c9.2-2.5,16,1.2,18.9,10.3
	c1.4,4.5,2.7,9.1,4.3,14.3c0.7-1.3,1.3-2.2,1.6-3.2c1-3.2,1.9-6.4,2.8-9.6c0.8-2.8,2.8-4,5.5-4.1c2-0.1,4.1,0.1,6.1,0.3
	c4,0.5,7,2.4,9.2,5.9c3.4,5.4,6.3,11.1,8,17.3c2.8,10.1,7.4,19.4,12.1,28.7C800.1,97.9,801.5,99.8,804.5,100.6z M734.6,60.8
	c-3.7,5.2-6.8,10.4-8.4,16.6c3.6,1,6.8,0.7,10.3,0C737.2,71.6,736.1,66.2,734.6,60.8z"/>
<path d="M225.9,128.8c0.1,1.3,0.5,2.6,0.2,3.8c-2,7-5.6,13-11.6,17.4c-3.1,2.3-6.9,2.6-10.4,1.1c-4.5-1.9-8.8-4.3-13-6.8
	c-4.6-2.8-6.8-7.1-7.7-12.5c-1.8-10.9-2.9-21.8-1.7-32.9c0.5-4.4,0-8.9,0.2-13.4c0.5-8.4,3.9-15.8,7.4-23.4c3-6.3,8.1-8.3,13.8-9.9
	c3.3-0.9,6.6,0.4,9.6,1.9c1.6,0.7,3,1.7,4.2,2.4c3.1-1,5.9-2.2,8.8-2.9c6.4-1.6,11.9,2.5,12.6,8.9c1.2,9.9,2.5,19.8,3.8,29.7
	c0.5,3.8,2.2,5.1,5.9,3.9c2.2-0.7,4.2-1.9,6.1-3.2c0.8-0.5,1.3-2,1.3-3c-0.5-11.1-0.4-22.3-2.9-33.3c-0.9-4.1-1.2-8.3-1.4-12.5
	c-0.1-1,1-2.4,1.9-3c6.4-3.6,13.2-1.7,16.9,4.6c0.4,0.6,0.6,1.3,0.7,2c1.5,10.6,3.2,21.2,4.3,31.8c1.2,11.4,1.8,22.8,2.8,34.2
	c0.4,4.5,2.2,8.6,4.2,12.7c0.4,0.9,1,1.7,1.5,2.6c1.8,3.7,0.1,6.8-4,6.8c-6.8,0-12.5-2.6-16.4-8.2c-2.7-3.8-4.5-8.1-5-12.8
	c-0.2-1.5-0.6-3-1.1-4.9c-4.3,0.9-8.2,1.7-12.1,2.6c-0.9,3.2-0.4,6.3,0.3,9.2c0.9,3.6,2.3,7.2,3.4,10.8c0.6,1.9,1,3.9,1.2,5.9
	c0.2,2.2-1.1,3.3-3.1,3.3c-4.4,0-8.7-0.5-12-4C231.5,135,228.7,131.9,225.9,128.8c-0.1-1.7-0.1-3.4-0.3-5.1
	c-1-7.7-2.2-15.5-3.1-23.2c-1-8.6-1.8-17.2-2.8-25.8c-0.3-3.1-0.8-6.2-1.1-9.4c-2-0.3-3.6-0.5-5.1-0.8c-3.4-0.7-6,0.7-7.9,3.3
	c-0.9,1.2-1.8,2.7-2.2,4.2c-1.5,5.9-3.3,11.7-4.2,17.7c-2.3,14.8-1.3,29.4,3.7,43.6c0.5,1.3,1.2,2.5,2,4.1c2-1.3,3.7-2.1,5.1-3.3
	c2.7-2.3,5.3-4.8,8-7.3C222.8,122.5,223.2,122.6,225.9,128.8z"/>
<path d="M509.1,366.9c0.6,5.8,1.1,11.4,1.7,17c0.3,3.5,0.7,6.9,0.9,10.4c0.1,1,0,2-0.3,3c-1.2,4.3-4.6,5.6-8.3,3.2
	c-0.6-0.4-1.2-0.9-1.6-1.5c-2.9-4.3-5.4-8.8-6.4-13.9c-1.1-5.4-2.2-10.7-3.6-17.2c-1,1.8-1.6,2.7-1.9,3.6c-2,7-5.3,13.5-10,19.1
	c-1.6,1.9-3.3,3.7-5.3,5.1c-3.7,2.5-7.6,4.6-12.1,5.6c-3.3,0.7-6.4,0-9.4-1.1c-6.5-2.5-11.4-6.8-15.1-12.9
	c-5.4-8.5-5.1-17.6-3.7-26.8c1.7-11.4,6.1-22,11.9-31.9c2.1-3.6,4.9-6.9,7.8-9.8c3-3.1,7.2-4.1,11.5-4.6c8.3-0.9,11.3,0.3,15.9,7.6
	c3.2,5.1,5.9,10.6,8.9,15.9c0.4,0.7,1,1.4,1.6,2.2c1.6-1.2,1.1-2.7,1.2-4.1c0.4-5.8,0.6-11.5,1.3-17.3c0.3-2.3,1.5-4.6,2.5-6.8
	c1.4-2.8,3.2-5.5,4.6-8.3c3.3-6.8,8.8-9.2,16.1-6.7c6,2,12.1,3.9,18,6.3c4.1,1.7,8.1,3.9,11.7,6.5c3.5,2.5,3,7.4-0.5,9.9
	c-1.8,1.3-3.4,1.3-5.2,0.1c-6.4-4.3-13.9-5.5-21.3-7c-4.1-0.8-5.3,0.2-6.8,4.2c-0.4,1.2-0.9,2.5-1.1,3.7c-1,8.9-1.8,17.8-2.7,26.8
	c-0.2,1.9,0.5,3,2.5,3.4c5.8,1.2,11.4,2.8,17.5,2.6c4.3-0.1,8.6,0.8,12.9,1.4c2.4,0.3,4.7,1.4,5.2,4c0.4,2.5-0.6,4.7-2.7,6.4
	c-3.3,2.6-6.9,4.2-11.1,4.4c-7.1,0.4-14.2,0.7-21-2.1c-0.7-0.3-1.4-0.4-2.1-0.5C510.3,366.6,510,366.7,509.1,366.9z M447.2,370.4
	c0,1.4-0.1,2.9,0,4.3c0.2,3.6,1.8,6.6,4.2,9.3c1.7,1.9,3.7,2.3,5.9,1.5c2.9-1.2,6-2.3,7.8-5.2c1.8-3.1,3.9-6,5.5-9.3
	c3-6.4,5.2-13.3,5.9-20.3c0.6-6.4,1-13-3.6-18.6c-2.9-3.5-6.1-4.2-9.5-1.3c-1.8,1.6-3.6,3.5-4.8,5.5c-2,3.2-3.8,6.5-5.2,9.9
	C450,353.9,446.8,361.7,447.2,370.4z"/>
<path d="M681.3,368.9c-5.3,1.8-7.3,5.2-9.1,9.1c-4.8,10.4-10.3,20.4-19.6,27.7c-4.7,3.6-9.9,6.3-15.8,6.5c-5.2,0.2-9.9-1.9-13.9-5.3
	c-6.8-5.8-10.3-13.3-11.4-22.2c-1.4-11.3,0.8-22,4.7-32.3c3.3-8.9,7.1-17.8,11.6-26.2c2.7-5.1,6.9-9.6,10.9-14
	c3.6-4,8.4-5.6,13.8-4.6c2.7,0.5,5.5,0.7,7.9,1.8c1.7,0.7,3.2,2.5,4,4.2c1.5,3.1-0.3,5.8-3.7,6.2c-0.9,0.1-1.8,0.2-2.6,0
	c-2.7-0.5-4.7,0.7-6.7,2.4c-5.6,4.7-9.5,10.5-12.6,17c-3,6.4-6,12.9-8.5,19.5c-3.4,9.3-5.1,19-3.8,29c0.3,2.3,0.9,4.6,1.8,6.7
	c1.6,4,4.2,4.9,8,2.9c4.4-2.3,8.2-5.5,11.2-9.5c2.9-3.9,5.4-8.2,8-12.4c1.3-1.9,1.1-3.6-0.3-5.5c-2-2.8-4-5.7-5.3-8.9
	c-1.8-4.6-0.1-6.7,4.8-7.4c3.7-0.5,7.5-0.3,10.3,2.3c3.5,3.2,7,2.4,10.9,1.3c2.1-0.6,4.2-1.1,6.3-1.4c2.9-0.3,4.8-1.5,5.8-4.4
	c2.1-6,5.2-11.6,8.7-16.9c1.2-1.8,2.6-3.4,4-5.1c3.1-3.6,6.9-4.4,11.4-3.1c1.5,0.4,3.1,0.9,4.6,1.3c4.1,1.1,7,3.4,8,7.7
	c1.1,4.4,2.1,8.7,3.1,13.1c2.3,9.9,1.9,19.5-2.5,28.8c-1.7,3.7-2.9,7.6-4.6,11.2c-4,8.1-10.6,12.7-19.6,13.6c-2.8,0.3-5.5,0-7.6-2.2
	c-0.5-0.5-1.2-0.8-1.8-1.2c-8.7-5.2-11.6-13.1-11-22.8C680.6,373.6,680.9,371.6,681.3,368.9z M712,344c-0.5-0.1-1-0.2-1.5-0.2
	c-1.1,1.6-2.4,3.1-3.2,4.9c-2.2,4.5-4.3,9.1-6.2,13.8c-2.3,5.6-4.2,11.4-4.9,17.5c-0.1,1.1-0.2,2.3-0.1,3.5c0.3,2.8,1.9,3.6,4.1,1.9
	c1.5-1.1,3-2.4,4-3.9c6-9.5,8.8-20.1,9.1-31.2C713.3,348.2,712.4,346.1,712,344z"/>
<path d="M114.3,118.2c-0.3,2.1-0.9,4.2-0.9,6.3c-0.1,10.7-0.1,21.4,0.1,32.1c0.1,3,0.9,6,1.5,9c0.7,3-0.4,5.5-2.2,7.6
	c-1.9,2.2-4.5,2.6-7.2,1.6c-3.5-1.3-7-2.8-10.4-4.4c-2.4-1.1-3.5-3.3-3.9-5.9c-1-6.3-2-12.6-3.2-18.8c-1.3-6.8-2.9-13.6-4.5-20.3
	c-0.2-0.7-0.7-1.4-1.3-2.8c-0.8,1.4-1.4,2.2-1.6,3.1c-1.2,5.4-1.6,10.8-1.9,16.3c-0.5,8.3,0.1,16.5,0.8,24.7
	c0.8,8.6,1.8,17.3,2.7,25.9c0.3,3.2,0,3.7-3.1,3.4c-5.9-0.4-7-1.3-8.6-7.8c-1.6-6.3-2.2-12.8-3.2-19.3c-0.5-3.1-1.1-6.3-1.3-9.5
	c-0.3-4.3-0.4-8.6-0.3-12.9c0.2-5.1,0.3-10-0.3-15.1c-0.5-4.5,0.3-9.2,0.8-13.8c0.5-5,1.5-10,1.9-15c0.2-2,1-2.9,2.7-3.9
	c7.4-4.1,13.9-2.7,20.9,3.7c1.1,1,2.1,2.2,3.8,4c0.6-2.1,1-3.4,1.3-4.8c1-4.9,2.9-9.4,5.5-13.6c1.9-3,4.2-5.1,8-5.1
	c1.1,0,2.3-0.2,3.4-0.6c6.3-1.8,12.4,1.1,15,7.8c2.1,5.2,3.1,10.8,4.3,16.3c2,9.6,3.8,19.3,5.7,28.9c1.1,5.7,2.2,11.3,3.6,16.9
	c0.9,3.5,2.3,6.8,3.6,10.1c1,2.4,2.6,4.8,0.6,7.3c-2,2.5-5.1,2.5-7.6,1.4c-3.7-1.5-7.2-3.6-10.7-5.7c-1-0.6-1.7-2-2.2-3.1
	c-2.7-6.3-4.8-12.7-5.9-19.5c-1.2-7.4-2.7-14.8-4.1-22.2c-0.2-0.9-0.7-1.8-1-2.7C115,118.1,114.7,118.2,114.3,118.2z"/>
<path d="M202.3,296.7c-0.3-1-0.4-1.9-0.8-2.6c-2.7-4.7-3.6-9.7-2.7-15.1c1.5-7.9,2.9-15.9,4.6-23.8c0.8-3.7,0.1-6.5-2.5-9.5
	c-4.2-4.9-9.1-8.8-14.1-12.7c-2-1.6-3.3-4.3-4.6-6.7c-0.7-1.4,0-2.8,1.5-3.6c0.5-0.3,1.1-0.4,1.6-0.6c6.5-2,14.4,0.5,18.9,5.7
	c1.4,1.6,3,2.9,5,4.7c0.9-1.6,1.4-2.6,1.9-3.6c3.5-7.8,7-15.6,10.4-23.4c1.6-3.6,4.3-5.1,8-4.6c3,0.4,6.1,0.8,8.8,2
	c5.3,2.4,6.2,8.1,2.6,12.7c-2.1,2.7-4.1,5.6-5.5,8.7c-3.1,6.7-6.6,13.2-8.2,20.5c-0.8,3.5-0.2,6.2,2.4,8.6c3.4,3.2,6.5,6.6,9.8,9.8
	c1.5,1.5,3.2,2.9,6.2,3c1.2-6,1.6-12.1,1.9-18.3c0.1-1.1-0.5-2.3-0.9-3.6c0.4-0.8,1.3-1.9,1.4-3.2c0.8-8.4,1.5-16.7,2-25.1
	c0.3-5.2,0.2-10.4,0.2-15.6c0-2.1,0.8-3.7,2.8-4.5c4.8-1.8,9.6-1.5,13.7,1.4c3.8,2.7,5.1,6.9,4.6,11.5c-0.5,4.9-1.2,9.8-1.6,14.7
	c-0.7,7.6-1.2,15.3-1.8,22.9c-0.7,9.1-1.6,18.1-2,27.2c-0.2,5.6,0.3,11.3,0.5,16.9c0.1,1.7,0,3.4,0,5.2c-4.2,2.3-8.3,0.7-12.4,0.4
	c-0.6-1-1-2.3-1.9-3.2c-2.6-2.6-4.1-5.6-4.8-9.1c-0.5-2.3-1.5-3.6-4-3.7c-4.1-0.2-7.4-2.3-10.6-4.7c-3.1-2.3-6-4.9-9.1-7.3
	c-0.5-0.4-1.3-0.5-2.2-0.9c-0.5,1.1-1.1,1.9-1.3,2.8c-1.3,6.1-2.5,12.2-3.6,18.3c-0.3,1.7-0.2,3.5,0,5.2c0.5,4.9-3,7.7-7.9,6.2
	c-1.3-0.4-2.5-1.4-3.8-2C204.3,297.5,203.3,297.1,202.3,296.7z"/>
<path d="M1332.3,96.1c-1.4,4.5-2.6,8.5-3.9,12.4c-1.9,6-4.7,11.6-8.4,16.6c-1.3,1.7-2.8,3.3-4.5,4.7c-5.2,4-10.8,4.4-16.8,1.9
	c-8.1-3.3-13.1-9.8-15.6-17.7c-3.8-12.3-4.8-25-3.4-37.8c0.8-7.3,1.6-14.7,2.2-22c0.2-2.4,1.2-3.6,3.5-4.3c7.1-2,14.6,4.6,13.1,11.9
	c-0.9,4.3-2.1,8.4-2.9,12.7c-2.2,12.4-1.6,24.8,1.3,37.1c0.4,1.8,1.5,3.4,2.6,4.9c1.8,2.5,3.7,2.7,5.7,0.2c2.4-3.1,4.9-6.2,6.4-9.8
	c4.2-9.7,7.6-19.7,7.8-30.5c0.1-7.1-0.1-14.2-3-20.9c-0.4-0.9-0.7-1.9-0.9-2.9c-0.8-3.3,0.4-5,3.6-4.4c2.8,0.5,5.5,1.7,8,3.1
	c1.1,0.6,1.8,2.3,2.2,3.6c2.2,9.2,3.2,18.5,3.5,27.9c0.1,2,0,4,0,6.1c2.6,0.4,5.2,0.7,7.7,1c2.8,0.4,4.9-0.4,6.5-3.1
	c4.4-7.5,9.2-14.7,15.2-21.1c3.3-3.5,7.4-6,11.8-7.9c3.3-1.4,6.5-3.2,10.4-2.4c4.3,0.9,7.4,3.3,9,7.4c1.4,3.6-0.9,7.2-4.7,6.8
	c-6.2-0.7-10.2,2.9-13.9,6.6c-3.7,3.6-6.6,8-9.8,12.1c-0.3,0.4-0.4,1-0.8,2.2c1.9,0.2,3.6,0.3,5.2,0.4c2.4,0.2,4.8,0.3,5.8,2.9
	c1,2.6,0.2,4.9-1.7,6.8c-3.5,3.5-7.5,5.8-12.7,5.3c-4.8-0.5-7.1,1.4-6.7,6.3c0.2,2.4,0.8,4.9,1.5,7.2c0.7,2.3,2.7,2.9,4.9,1.7
	c1-0.5,1.9-1.4,2.8-2.1c0.9-0.7,1.7-1.5,2.7-2.2c3-2,5.1-2.1,7.2-0.4c1.8,1.5,3,5.2,2,7.6c-1.9,4.5-4.5,8.6-8.6,11.3
	c-3,2-6.9,1.7-10,0c-11.3-6.3-16.9-16.1-17.1-29c0-1.5-0.4-3.3-1.3-4.4C1336.6,99.9,1334.5,98.2,1332.3,96.1z"/>
<path d="M368.7,99.9c0.4-0.8,0.7-1.6,1.2-2.2c2.1-2.9,5.4-4.3,8.5-5.8c2.8-1.3,3.6-3.3,3.7-6.2c0.5-10.6,1.2-21.1,1.8-31.6
	c0.3-5.3,0.5-10.7,0.7-16c0.2-4.2,2-6.1,6.2-6.1c1.3,0,2.6,0,3.9,0c8.5-0.2,12.5,5.1,10.9,13.5c-1.2,6.1-1.8,12.3-2,18.5
	C403.2,75,403,86.1,403,97.3c0,3.6,0.8,7.1,1.3,11.3c3.3-0.7,6.1-1.3,8.8-1.9c3.6-0.8,5.1-0.1,5.4,3.4c0.7,8-2,14.8-8.3,19.9
	c-0.5,0.4-1.3,0.7-2,0.8c-5.4,0.9-10.7,0.8-14.9-3.6c-0.7-0.7-1.6-1.2-2.4-1.8c-2.9-2.1-5.2-4.5-5.3-8.4c0-1.6-0.8-3.2-2-4.8
	c-0.8,1.7-1.4,3.4-2.3,5c-1.1,2-2.2,4.2-3.8,5.7c-3.9,3.8-10.2,4.1-15.7,1.3c-5.5-2.7-10.2-6-12.6-11.8c-1.4-3.4-2.5-7.1-3.3-10.7
	c-3.7-16.8-1.8-33.6,0.6-50.4c0.5-3.4,0.7-6.9,0.8-10.4c0.1-4.3,0.9-5.3,5.4-5.6c3.7-0.2,7.4-1.1,11.1,0.8c3.6,1.9,5.8,5.9,4.9,9.9
	c-2.5,10.6-3.2,21.5-3.5,32.3c-0.1,5.5,0.2,11,0.5,16.4c0.1,1.6,1,3.1,1.6,4.6C367.8,99.5,368.3,99.7,368.7,99.9z"/>
<path d="M567,42.9c1-1.6,2-3,2.8-4.4c3.7-6.2,9.1-9.7,16.2-10.1c5-0.3,10.1-0.1,15.1,0.5c4.7,0.5,8.4,3.2,10,7.9
	c1.1,3-0.8,5.7-4,5.6c-2.9,0-5.8-0.3-8.6-0.9c-3.1-0.6-5.9-0.3-8,2c-2.1,2.3-4.1,4.9-5.6,7.6c-2,3.5-1.5,4.9,1.8,7.4
	c4.8,3.5,9.7,6.9,14.4,10.5c6.6,5.2,12.6,11,16.3,18.8c3.7,7.7,2.3,14.9-2.5,21.2c-7.2,9.3-17,12.3-28.6,10.1
	c-9-1.7-16.5-6.2-23.7-12.1c-4,4.4-8.4,2.9-12.5,0.4c-5.3-3.1-8.1-7.7-7.4-14c0.8-7.9,1.9-15.8,2.3-23.8c0.5-9.4,0.5-18.8,0.4-28.2
	c0-3.7,0.3-4.5,4.1-5.1c1.6-0.2,3.2-0.6,4.7-0.4c2.4,0.3,5,0.7,7.1,1.8C563.4,38.7,564.8,40.8,567,42.9z M562.2,94.5
	c2.1-0.5,3.6-0.9,5.1-1.3c4.1-0.9,5-0.4,6.5,3.6c0.8,2,1.3,4.3,2.7,5.8c2.8,3.1,8.8,6.2,13.7,4.2c5.7-2.4,11.1-8.9,11.1-13.8
	c0-0.4-0.1-0.9-0.1-1.3c-0.8-5.1-2.8-9.4-7.1-12.4c-2.7-1.9-5.5-3.6-8.2-5.5c-6.7-4.7-14.1-8.7-18.7-15.8c-0.2-0.4-0.9-0.5-1.5-0.9
	C564.4,69.7,563.3,81.9,562.2,94.5z"/>
<path d="M324.2,373.6c-0.1,3-0.4,4.8-0.3,6.6c0.6,9.1,1.2,18.2,5,26.7c1.4,3.2,0.7,6.6-0.9,9.6c-1.6,3-6.3,3.7-9.6,1.8
	c-5.8-3.4-8.1-8.7-9.9-14.9c-1.9-6.8-1.5-13.7-3.1-20.5c-1.6-6.7-2.8-13.6-3.8-20.5c-0.9-5.8-1.3-11.8-1.9-17.6
	c-0.1-0.8,0.1-1.7,0.3-2.6c0.6-2.9,1.7-4.1,4.7-4.1c2.4,0,4.8,0.6,7.2,1.1c1.2,0.3,2.4,0.8,4,1.3c0.8-1.3,1.5-2.6,2.3-3.7
	c3.2-4.3,6.2-8.8,9.9-12.6c4.9-5,11.5-6,18.1-4.7c4,0.8,8.2,2,11.4,5c1.1,1.1,2.2,2.3,2.7,3.7c3,8.8,0.3,16.6-5.2,23.5
	c-3.4,4.3-7.2,8.3-11.7,11.5c-4,2.8-3.8,4.6,0.1,7.6c3,2.3,5.8,4.7,8.8,7c1.2,1,2.5,2.1,4,2.6c3.6,1.3,5.9,4,8.5,6.5
	c2.8,2.6,2.9,5.9,1.6,9.2c-1.6,4.2-6,5.8-9.9,3.6c-2-1.1-3.9-2.5-5.5-4.2c-4.3-4.5-8.8-8.7-14-12.3c-2.8-1.9-5.1-4.7-7.8-6.9
	C328.1,375.5,326.6,374.9,324.2,373.6z M343.3,335.2c-6.5,1.9-13.8,11.7-14.2,19.1C335.7,349.2,341.1,343.8,343.3,335.2z"/>
<path d="M304.9,253.2c4.3-6.5,6.6-12.7,8.9-18.9c4.3-11.1,5.7-22.7,4.3-34.6c-0.2-1.6-0.5-3.1-0.9-4.7c-1-3.9,1-7.1,4.9-7.3
	c4.9-0.3,9.4,1.5,13.7,3.6c0.7,0.3,1.1,1.6,1.4,2.5c2.1,6.5,1.5,13.2,1.6,19.8c0.1,10.9,0.8,21.7,2.7,32.4c0.8,4.3,0.9,4.4,5.6,4.9
	c1.7,0.2,2.6,0.9,3.2,2.4c1.5,3.5,0.3,9.8-2.3,11.7c-3.2,2.3-9.4,2.2-12.6-0.1c-3.1-2.3-6.3-4.5-9.4-6.7c-2.7,3.3-5.2,6.4-7.8,9.5
	c-4,4.7-10.9,6.5-16.3,3.6c-7.2-3.8-12.8-9.3-15.5-17.2c-0.7-2.1-1.6-4.1-2-6.2c-0.5-2.5-1.8-3.5-4.3-3.5c1.9-0.2,2.9-0.8,2.7-3.1
	c-0.7-7-1.4-14.1-1.8-21.2c-0.3-5.6-0.1-11.3-0.1-16.9c0-2,0.9-3.6,2.7-4.7c4.1-2.5,12.3-2.3,16,0.8c1.4,1.2,2.6,3.2,2.9,5
	c0.4,2.5,0.2,5.2-0.5,7.7c-1.9,7.1-2.7,14.2-1.3,21.5c0.8,4.4,1.3,8.9,2.1,13.3C303.3,248.7,304,250.4,304.9,253.2z"/>
<path d="M865.1,253.8c-2.2,2.9-1.6,6-1.4,9c0.2,3.2-0.5,6.1-3,8.2c-0.8,0.7-2,1.3-3,1.4c-5.5,0.4-13.1-4.5-14.8-9.6
	c-0.7-2-1-4.2,0.1-6.3c2.5-4.7,1.8-9.9,2-14.9c0.1-1.7-1.2-3.5-1.8-5.3c-0.8-2.1-0.7-4.1,1.1-5.5c1.6-1.3,1.7-2.9,1.7-4.7
	c0-5.4-0.1-10.7-0.1-16.1c0-4.7,2-6.2,6.6-4.9c1.8,0.5,3.6,1.1,5.3,1.9c1.6,0.7,2.8,0.1,3.9-1c1.5-1.6,2.9-3.3,4.4-4.7
	c4.4-4.1,9.1-7.2,15.4-8.2c5.7-0.9,10.3,1,14.8,3.7c9.4,5.7,11,15.8,8.8,23.3c-1.3,4.4-4.4,7.6-7.6,10.3c-4,3.3-8.6,5.9-13,8.6
	c-1.1,0.7-2.5,0.7-3.7,1.1c-2.3,0.8-4.6,1.6-7.6,2.7c2.7,2.4,4.7,4.4,6.9,6.1c6,4.9,12.3,9.5,18.2,14.6c2.5,2.1,4.6,4.8,6.2,7.7
	c2.5,4.5,0.2,7.4-4.9,7.6c-4.7,0.1-7.3-2.9-10.1-5.8c-6.2-6.5-12.7-12.6-20.3-17.5c-0.8-0.6-1.7-1.1-2.6-1.5
	C866.2,253.8,865.7,253.9,865.1,253.8z M869.2,225.9c7.3-1.2,16.8-8.1,19.2-13.7c0.3-0.7,0-1.6,0-3
	C879.8,212.4,874.3,218.4,869.2,225.9z"/>
<path d="M1304.2,212.5c-4.6,5.3-8,10.1-9.7,16.3c2.2,0.8,17,2.6,18.7,3.3c4.9,1.9,6.2,8.5,1.9,11.5c-3.4,2.3-20.4,2.9-24.4,3.9
	c-4.8,1.1-8.1,3.2-9.8,8c-1.7,4.9-3.9,9.7-5.6,14.6c-0.6,1.7-0.4,3.7-0.8,5.5c-0.5,2.5-1,5.1-1.9,7.5c-1.1,3.1-3.4,4.6-7.9,2.9
	c-5.8-2.2-9.1-6.9-10.6-12.9c-0.2-0.9,0.1-2,0.5-2.9c3.9-8.5,7.9-17.1,11.9-25.6c0.2-0.5,0.6-1,0.8-1.6c3.8-12.4,11.3-23,17.2-34.4
	c2.7-5.2,6.2-9.8,10.6-13.6c2.6-2.2,5.3-2.5,8.5-1.4c8.1,2.8,12.7,8.3,14.6,16.7c2.6,11.7,2.9,23.5,3.1,35.4
	c0.1,10.4-0.2,20.8-0.8,31.2c-0.2,4-1.3,8-2.6,11.8c-1.3,3.8-4.5,5.4-8.2,4.9c-4.2-0.6-7.8-5.3-6.7-9.5c3.9-14.5,4.5-29.1,3.4-43.9
	c-0.5-6.9-0.6-13.9-1-20.8C1305.3,217.4,1304.8,215.5,1304.2,212.5z"/>
<path d="M148.3,294.2c0.8-1.5,1.8-2.9,2.3-4.4c1.5-5,3.1-10,4.3-15c2.1-8.9,3-17.9,0.9-27c-1.1-4.9-1.8-9.9-2.6-14.9
	c-0.9-5-0.1-6.1,4.7-6.5c4-0.3,8-1.2,11.9,1c2.9,1.7,6.6,7.1,6.5,10.4c-0.4,12.1,0.9,23.9,4.1,35.6c0.3,1.3,0.7,2.5,0.8,3.8
	c0.4,6.9,2.7,12.9,7.5,18c2.1,2.3,2,5.5,0,6.8c-2.2,1.5-4.8,2.4-7.4,1.2c-3.1-1.5-6-3.4-8.9-5.2c-0.8-0.5-1.6-1.1-2.9-1.9
	c-1.2,2.4-2.5,4.4-3.3,6.7c-2.8,7.5-14.5,9.6-20.6,6.4c-5.7-3-11.2-6.3-14.9-11.6c-2.6-3.7-4.4-8.1-5.7-12.5
	c-1.9-6.2-3.2-12.6-4.5-19c-1.6-7.7-0.5-15.3,1.7-22.7c1.4-4.8,8.5-6.9,12.7-6c2.7,0.6,5.2,1.5,7,3.9c2.1,2.9,2.8,5.6,0.6,8.7
	c-2.2,3.1-2.3,6.9-2.4,10.4c-0.2,9.4,0.8,18.8,3.8,27.8c0.7,2.1,2.1,4,3.2,5.9C147.4,294.3,147.8,294.2,148.3,294.2z"/>
<path d="M719,219.7c-1.7,6.2-3.2,11.6-4.7,16.9c-1.2,4.3-2.3,8.6-2.8,13.1c-0.6,5.9-4.1,7.5-9.6,6c-4-1.1-7-4.2-9.5-7.3
	c-1.7-2.1-1.1-4.9,0.3-6.9c4.6-6.6,6.7-14.1,8.7-21.6c1.5-5.7,2.2-11.7,3.5-17.4c1.4-6.2,2.9-12.3,4.4-18.5c0.5-2.1,1.9-3.1,4-3.3
	c5.4-0.6,12.7,3.6,14.9,8.6c0.3,0.8,0.5,1.6,0.6,2.5c1.8,13.5,4.8,26.7,9.1,39.6c0.7,2.1,1.3,4.5,4.2,5.8c2.6-3,4.3-6.6,6.1-10.2
	c5.7-11.3,7.4-23.6,8.9-36c0.4-2.9,1-5.7,1.8-8.5c0.8-2.9,2.6-3.9,5.6-3.4c3.3,0.5,6.4,3.7,7.4,7.1c1.3,4.6,0.2,9.2-0.1,13.8
	c-0.7,10.1-2.1,20.1-5.3,29.8c-2.8,8.6-7.1,16.5-11.4,24.3c-1.4,2.5-3.8,3.6-6.5,3.7c-3.5,0-6.7-0.9-9.5-3.4
	c-4.1-3.8-7.9-7.8-10.8-12.4c-2.7-4.2-4.4-9-6.4-13.6C720.8,225.7,720.1,223,719,219.7z"/>
<path d="M1038.9,365.4c-0.9,2.1-1.8,4.2-2.7,6.3c-2.6,6.3-5.3,12.5-7.8,18.8c-0.8,2.1-1,4.5-1.7,6.7c-0.6,1.9-1.3,3.8-2.1,5.6
	c-1,2.5-3.1,2.8-5.4,2.6c-5.7-0.5-10.4-7-8.5-12.5c2.8-8,6.1-15.9,9.1-23.9c4.1-10.8,8.5-21.5,10.7-32.9c1-5,3.9-6.5,8.5-4.3
	c1.4,0.7,2.8,1.4,4.2,2.1c3.3,1.7,4.8,4.1,5.3,8.2c1.9,16.3,7.5,31.4,15.5,45.7c0.2,0.3,0.6,0.6,1.3,1.2c0.7-0.9,1.7-1.6,2-2.5
	c1.6-5.4,3.3-10.8,4.4-16.3c1.1-5.8,1.7-11.7,2.3-17.6c0.6-5.6,1-11.2,1.4-16.8c0.2-2.7,0.3-5.5,0.8-8.2c0.7-3.7,2.7-7.1,7.9-6
	c2.9,0.7,5.8,1.7,8.5,3.1c2.7,1.5,3.5,4.4,1.8,6.7c-3.9,5.1-3.7,11.1-4.4,16.9c-1,9.1-1.2,18.3-2.7,27.2c-1.5,8.5-4.3,16.8-6.7,25.1
	c-0.4,1.4-1.2,2.6-2.1,3.8c-3.5,5-7.6,6.2-12.6,2.9c-3.6-2.4-6.9-5.3-9.7-8.5c-6.1-7.1-9.2-15.9-12.7-24.5c-1.2-2.9-2.4-5.8-3.6-8.7
	C1039.6,365.5,1039.3,365.5,1038.9,365.4z"/>
<path d="M1186.2,240.8c0.6,8-3,14.7-6.6,21.2c-5,9.1-11.3,17.4-19.3,24.2c-2.3,1.9-5,3.4-7.7,4.8c-1.7,0.9-3.2,1.7-3.8,3.8
	c-0.6,2.4-2.6,2.9-4.8,2.8c-4.7-0.1-9.9-4.2-10.3-8.9c-0.4-5,0-10.1,0.4-15.1c0.6-8.4,1.9-16.7,2-25.1c0.1-6.3-1.4-12.6-2.1-18.9
	c-0.4-3.7-0.8-7.5-0.9-11.2c-0.1-4.2,0.3-8.4,0.4-12.6c0-1.9,0.6-3.3,2.4-4.2c1.4-0.7,2.6-1.8,3.7-3c6-6.4,11.3-7.8,19.5-4.5
	c8,3.3,14,9,18.9,16.1c5.4,7.9,7.5,16.8,8.5,26.1C1186.6,237.9,1186.3,239.4,1186.2,240.8z M1152,271.2c1.1-0.9,1.8-1.2,2.2-1.7
	c4.6-6.1,9-12.3,12.3-19.4c3.4-7.4,5-15,4.1-23.1c-0.6-6.2-2.4-11.8-6.7-16.6c-2.2-2.4-4.4-3.3-6.8-2c-1.6,0.9-3.1,2.1-4.3,3.4
	c-3,3.5-2.6,7.8-2.2,12c1.2,11.6,2.1,23.3,1.5,35C1151.8,262.7,1152,266.5,1152,271.2z"/>
<path d="M312.5,78.6c3.7-2.6,7.2-4.8,10.4-7.3c4.6-3.7,9.9-6,15.5-7.6c2.3-0.7,3.1-0.1,4,2.1c0.9,2.4,1.1,4.8-0.5,7
	c-2.4,3.4-4.9,6.8-7.4,10.1c-1.8,2.3-3.5,4.6-5.6,6.6c-6,5.7-13,9.5-21.6,10.8c-0.2,1-0.8,2.2-0.5,3.1c1.2,5.2,2.2,10.5,6.1,14.6
	c2.9,3.1,4.5,3.4,7.7,0.7c2.6-2.2,5-4.8,7.7-7c2.8-2.2,5.8-4.2,8.9-6c0.9-0.5,2.7-0.4,3.6,0.2c3.9,2.3,5.4,8.1,3.3,12.2
	c-1,1.9-2,3.9-2.9,5.8c-3.6,7.4-12.1,11.8-20.4,11.3c-10.3-0.6-18.9-5.3-25.4-12.6c-7.2-8-10.8-18.1-8.3-29
	c2.2-9.5,4.7-19.1,8.7-28.1c2.6-5.8,4.8-11.8,8.1-17.2c4.5-7.4,10.8-12.8,20.1-13.3c5-0.3,9.8,3.5,10.2,8.1c0.2,2.2-0.5,4.1-2.4,5.2
	c-5,2.7-8.5,7-11.1,11.8c-3,5.4-5.4,11.2-8,16.8C312.3,77.1,312.4,77.6,312.5,78.6z"/>
<path d="M1184.8,107.5c0.4,3.6,0.7,7.2,1,10.8c0.2,2.2,1.4,3.1,3.5,2.9c1.2-0.1,2.3-0.3,3.5-0.3c3.3,0.1,5.1,2.6,3.7,5.6
	c-1.3,2.8-3.1,5.5-4.9,8.1c-1.8,2.7-4.6,3-7.4,2.1c-4.1-1.2-7.9-3.2-10.7-6.3c-1.8-2-3.5-4.5-3.9-7.1c-2-12.9-2.7-25.8,1.7-38.6
	c1.6-4.5,3-8.9,5.5-13.1c4.6-7.7,16.9-8.8,22.8-4.6c3.9,2.8,7,2.6,11,0.2c5.9-3.5,12.2-6.6,18.6-9.1c5.4-2.1,11.2-1.3,16.2,2.1
	c4.5,3.1,3.7,8.3-1.4,10.5c-2.3,1-4.5,2.1-6.8,2.8c-3.5,0.9-4.8,3.4-5.5,6.5c-1,5.1-1.9,10.2-3,15.3c-1.8,8.5-3.8,16.9-5.7,25.4
	c-0.7,3.2-0.7,6.3,1.6,9c1.6,1.8,1.9,4,0.3,5.9c-1.4,1.8-3.5,2.6-5.8,2c-7.1-1.6-15.2-8-12.7-18.9c2-8.7,3.7-17.6,5.4-26.4
	c1.4-6.9,1.3-6.9-4.1-11.3c-1-0.8-2.2-1.4-3.2-2.2c-1.3-1-2.7-1.7-4.4-0.8c-0.6,0.3-1.4,0.3-2.1,0.2c-4.2-0.6-6.3,1.8-8,5.2
	C1186.3,91.1,1185,99.1,1184.8,107.5z"/>
<path d="M834.4,361.1c0.2,7.8-1.7,16.9-5.3,25.5c-3,7.1-8.3,12.5-14.8,16.6c-3.4,2.1-6.7,4.7-11.1,4.6c-0.7,0-1.6,0.7-2.1,1.3
	c-3.8,4.2-7.8,5.1-12.6,2.9c-5.6-2.6-8-8.2-6.4-14.3c0.9-3.6,1.4-7.4,1.9-11.1c1.5-11.9,2.9-23.8,4.3-35.8
	c0.9-7.6,1.8-15.2,2.8-22.9c0.4-2.7,0.8-5.4,1.5-8.1c0.8-3.4,2.6-4.3,5.8-3c3.9,1.6,7.8,3.1,9.7,7.5c0.3,0.8,1.8,1.2,2.8,1.5
	c3.2,0.9,6.5,1.4,9.6,2.6c5.9,2.2,8.7,7.4,11.1,12.7C834.3,347,834.5,353.2,834.4,361.1z M801.2,394.4c6.4-4.9,10.9-10,13.4-16.7
	c3.1-8.2,4.9-16.6,4.6-25.4c-0.1-3-0.5-6.1-1.3-8.9c-0.8-2.5-3.2-2.8-4.5-0.6c-2.2,3.5-4.5,7.1-5.8,11
	C803.2,366.7,801.7,379.9,801.2,394.4z"/>
<path d="M1092.9,264.3c2.7-4.3,4.2-8.6,5.3-13.1c1.5-5.7,0.7-11.5,0.5-17.3c-0.1-3-0.4-6.1-0.3-9.1c0.1-2.1,0.4-4.4,1.2-6.4
	c2.9-7.5,7.9-7.5,14.1-5.9c2.4,0.6,3.8,4.3,2.4,7c-2.9,5.6-2.2,11.5-2,17.4c0.2,4,0.9,8.1,1.2,12.1c0.4,6.4-0.6,12.7-2.3,18.8
	c-0.6,1.9-1.3,3.9-1.7,5.8c-1.5,6-6.6,9.3-12.4,7.6c-4.6-1.3-8.9-3.2-12.7-6.4c-4.4-3.8-8.3-7.9-11.7-12.7
	c-3.9-5.5-7.7-11.1-10.8-17.2c-0.2-0.5-0.7-0.8-1.3-1.4c-0.5,0.5-1.1,0.8-1.3,1.2c-3.3,8-6.7,16-9.9,24.1c-1.1,2.7-1.8,5.5-2.6,8.3
	c-1.1,3.4-2.1,4-5.6,4.1c-5,0.1-8-3.1-10.8-6.3c-0.6-0.7-0.8-2.2-0.5-3.2c0.7-3.1,1.5-6.2,2.6-9.2c2-5,4.4-9.8,6.3-14.8
	c2.5-6.2,4.6-12.5,7-18.7c1.1-2.8,2.1-5.7,3.4-8.4c2-4,4.7-5,9-3.8c1.4,0.4,2.8,0.9,4.2,1.2c4.3,1.1,6.4,3.8,7.9,8.1
	c3.7,10.9,6.7,22.2,13.8,31.6C1087.6,260.2,1089.5,262.5,1092.9,264.3z"/>
<path d="M1007.8,243.4c-6.2-0.3-10.6,1.4-13.3,6.4c-3,5.5-6,10.9-8.8,16.5c-1.4,2.7-2.4,5.6-1.9,8.8c0.1,1-0.2,2-0.4,3
	c-1,3.6-4.1,5.2-7.7,4.6c-5.2-0.9-8.5-4.6-11.7-8.2c-1.5-1.7-1.9-3.9-0.7-6.1c3.1-5.7,6.1-11.5,9.1-17.2c0.3-0.5,0.4-1.1,0.8-1.5
	c1.9-2.6,2-5.2,0.8-8.2c-1.2-3-0.6-4.1,2-5.8c0.2-0.2,0.5-0.3,0.8-0.4c4.9-2.1,7.7-6.1,10.3-10.6c4.2-7.4,9-14.5,13.8-21.6
	c1.6-2.4,3.3-5.3,7-5.3c4.8,0,9.4,0.8,12.6,4.6c3.4,4.1,5.3,8.8,6.1,14.1c1.5,9.8,1.1,19.6-0.4,29.4c-1.2,7.6-2.4,15.1-3.6,22.7
	c-0.2,1-0.3,2-0.6,3c-1.6,5.1-7.3,6.8-11.2,3.1c-3.7-3.4-5.8-7.5-4.9-12.7c0.8-4.8,1.3-9.7,1.9-14.6
	C1007.8,246.2,1007.7,245.1,1007.8,243.4z M1009.1,226c-2.2,1.3-2.8,2.8-2.7,4.4c0,0.4,1.2,0.7,2.4,1.3
	C1008.9,229.6,1009,228.2,1009.1,226z"/>
<path d="M800.2,227.7c3.1-1.8,6.2-3.6,9.2-5.5c3.5-2.3,7.1-4.4,11.2-5.6c3.7-1,7.1-0.8,10.9,0.9c-0.1,4.4-0.6,8.5-4.6,11.7
	c-6.8,5.5-13.5,11.3-20.1,17.2c-3.9,3.4-4,3.6-11,2.4c-0.1,0.4-0.5,0.8-0.4,1.1c1.7,6,7.8,10.2,13.8,9.3c2.5-0.4,5.2-1.1,7.4-2.3
	c4.2-2.3,8.4-1.4,12.7-1.1c0.5,0,1.1,0.4,1.5,0.8c2.6,2.5,2.8,8.1,0,10.5c-10,8.7-21.8,10.3-33.7,3.3c-4.9-2.9-9-6.9-12.5-11.2
	c-6.7-8.5-10.1-18.2-8.2-29.1c0.4-2.6,1.7-5.3,3.1-7.6c7.2-11.4,16.2-21.5,26.4-30.3c3.5-3,8.2-4.8,12.4-7.1
	c0.4-0.2,0.9-0.4,1.2-0.3c4.4,0.9,8.9,1.6,12.2,4.8c3.2,3.1,2.8,9.6-0.5,11.9c-1,0.7-2.4,1.1-3.6,1.2c-4.7,0.2-8.6,1.8-11.8,5.4
	c-4.8,5.4-9.9,10.5-14.8,15.8c-0.8,0.9-1.3,2.1-1.9,3.2C799.5,227.1,799.9,227.4,800.2,227.7z"/>
<path d="M971.9,334.7c-0.1,4.5-1.6,8.4-3.9,12.3c-3.1,5.1-6.5,9.9-10.6,14.2c-4.6,4.9-9.7,9-15.6,12.2c-0.5,0.3-1,0.5-1.6,0.8
	c-5.2,2.3-8.2,5.6-8.3,11.9c-0.1,4.6-0.7,9.2,0.1,13.8c0.6,3.4,0.4,6.8-3,8.8c-3.6,2.1-7.2,1.3-10.1-1.2c-4.1-3.4-7.3-7.5-6.3-13.4
	c1.4-8.3,1.9-16.6,1.5-25c0-1,0.1-2,0.4-3c2.5-8.5,3.5-17.2,3.6-26.1c0-0.8,0.5-1.7,0.6-2.5c1.1-5.5,1.1-5.4,6.6-5.5
	c1.1,0,2.4-0.9,3.2-1.7c1.8-1.7,3.3-3.7,4.9-5.5c6.5-7.2,14.7-8.3,23.4-6c3.6,0.9,7,2.8,10.3,4.5c2,1,3.3,2.8,3.7,5.1
	C971.3,330.4,971.6,332.5,971.9,334.7z M954.1,332.2c-4.6-0.1-7.5,2.5-10.3,5.5c-4.2,4.4-5.8,10.2-8.2,15.5
	c-0.4,0.8-0.4,1.8-0.7,3.8c7.9-5.2,13.2-11.4,17.4-18.7C953.4,336.5,955.1,334.9,954.1,332.2z"/>
<path d="M655.4,207.9c2.4,0.7,4.6,1.3,6.8,1.9c1.5,0.4,3.3,0.4,4.6,1.2c4,2.5,8.3,1.8,12.6,1.9c4.2,0.1,8.3,0.9,12.4,1.6
	c1.8,0.3,3.2,1.6,3.4,3.5c0.2,2-0.9,3.4-2.6,4.2c-3.4,1.6-6.8,3.2-10.3,4.6c-2.4,1-3.9,2.4-4.7,5.1c-2.1,7.3-6.9,12.7-12.5,17.7
	c-5.7,5.2-14.6,4.4-18.9,0.8c-4.9-3.9-9.4-8.6-13.4-13.5c-5.3-6.5-5.4-14.4-4.3-22.3c0.7-4.6,2.8-8.6,5.3-12.2
	c4-5.7,8-11.4,12.6-16.5c4.5-4.9,9.5-9.2,16.5-10.5c4-0.7,7.8-0.3,11.6,0.6c3.8,0.9,5.8,3.9,6.9,7.2c1.2,3.8-1.6,8-6,8.3
	c-7.1,0.4-11.5,4.7-15.6,9.6C658.3,203,655.7,204.3,655.4,207.9z M647.7,220.1c-2.2,4.1-2.1,9.1,0.2,13.6c1.1,2.1,2.2,2.6,4.1,1.5
	c2.3-1.3,4.7-2.8,5.2-5.4C654,226.4,651,223.4,647.7,220.1z"/>
<path d="M450.8,87.5c0.9,5.3,2.4,10.1,6.9,13.5c2,1.5,4.3,2.3,6.9,1.5c1.1-0.3,2.3-0.4,3.4-0.5c2.9-0.2,5.8,1.5,6.8,3.8
	c1.1,2.5,0.3,6-1.6,8.1c-3.1,3.3-7.2,3.9-11.2,3.3c-3.2-0.5-6.6-1.4-9.5-2.9c-4.7-2.5-9.4-5.2-12.9-9.4c-5.1-6-7.9-13-9.5-20.6
	c-1.2-5.6-1.2-11.2,0.1-16.8c1.3-5.3,2-10.9,3.8-16c2.6-7,5.6-14,10.9-19.6c5.2-5.5,11.5-8.7,19.4-7.9c4.7,0.5,7.7,3.3,9.8,7
	c2,3.5-1.2,9-5.2,8.9c-5.3-0.1-8.3,2.8-10.7,6.8c-3.1,5.3-5.5,10.8-6.9,16.8c-0.9,3.7,0.1,5.1,3.8,4.7c3.6-0.3,7-1.5,10.5-2.3
	c5.2-1.2,10.4-2.5,15.6-3.6c2.5-0.5,5.2,1,5.8,2.8c1,2.6,0.2,5.4-2.2,6.8c-5.9,3.5-11.2,8.3-17.9,10.5c-4.5,1.4-9.1,2.7-13.7,4
	C452.5,86.8,451.9,87.1,450.8,87.5z"/>
<path d="M973.6,56.7c2.9,6.6,3.3,13.7,3.9,20.8c0.7,8.1,1,16.2,1.5,24.2c0.3,5.1-1.3,9.7-2.8,14.4c-0.9,2.8-3.9,4.7-6.8,4.4
	c-2.7-0.3-5.3-1.1-7.9-2c-7.3-2.8-12-8.2-15.4-15c-0.5-1-1.1-2-1.7-3c-0.2-0.3-0.7-0.5-1.3-0.9c-0.4,0.6-0.9,1.1-1.1,1.7
	c-0.9,4.8-1.7,9.7-2.6,14.5c-0.4,2.1-0.6,4.3-1.3,6.3c-0.8,2.5-3.3,3.8-5.9,3.2c-5.3-1.3-11.6-5.3-10.1-13.3
	c2.3-11.6,4.1-23.3,6.1-35c0.4-2.4,0.8-4.8,1.2-7.3c0.6-4,2.6-5.8,6.6-5.9c2,0,4.1,0.1,6.1,0.2c3.3,0.2,5.7,1.7,7.3,4.7
	c3.6,6.4,5.9,13.2,8.1,20.1c0.4,1.3,0.9,2.6,1.4,4.1c2-0.8,1.7-2.3,1.7-3.5c-0.3-5.6-1-11.3-1.2-16.9c-0.1-4,0.2-8,0.5-12
	c0.2-2.1,1.4-3.2,3.7-3.5c3.4-0.4,6.7-2.2,10.1-0.1L973.6,56.7z"/>
<path d="M1011.4,117.6c0.3-3.2,0.5-6.3,1.1-9.4c0.7-3.7,2.1-7.1,1.8-11c-0.1-1.8,1.2-3.9,2.5-5.4c4.9-6.4,7.5-14,11.1-21
	c3.2-6.2,6.1-12.5,11.2-17.4c4.7-4.5,10.1-6,16.3-3.9c5.9,2,7.2,6.9,2.4,10.7c-4.8,3.8-8.1,8.5-11.2,13.6c-0.3,0.5-0.7,1-0.9,1.5
	c-0.4,1.5-1.3,3.3-0.8,4.4c1,1.8,2.8,0.3,4.3,0c3.5-0.6,7-1.9,10.7-1c4,1,5.2,2.8,3.6,6.6c-0.8,2.1-2.3,4.1-3.9,5.6
	c-4.9,4.5-10.6,8.1-17.1,10.1c-10.2,3.1-15,9.6-12.9,21.6c0.4,2.4,0.6,4.9,2.6,6.7c2.7,2.5,5.6,2.9,8,0.2c1.9-2.2,4.1-2.9,6.8-3.2
	c4.7-0.5,7.8,2.2,7.3,6.7c-0.3,2.8-1.2,5.7-2.4,8.2c-1.3,2.8-4,4.1-7,4.4c-10.1,1.2-18.8-1.9-25.7-9.1
	C1014.5,131.3,1010.9,125.3,1011.4,117.6z"/>
<path d="M978,368.5c3.2-1.2,6.1-2.1,8.8-3.4c3.7-1.8,7.1-0.6,10.4,0.9c2.3,1.1,2.4,4.9,0.5,7.3c-5.4,6.7-12.3,10.9-21,11.6
	c-0.9,0.1-1.7,0.1-2.6,0.1c-1.8,0.1-2.6,1.1-2.5,2.8c0.3,5.3,2.1,10.2,4.7,14.7c0.5,0.8,1.3,1.5,2.1,2.2c2.2,1.8,3.6,1.8,5.6-0.4
	c1.1-1.3,2-2.8,2.9-4.3c1.9-3.2,4-4.2,7.1-3.4c2.9,0.7,5.6,3.7,5.5,6.5c-0.2,7.2-3.2,13.2-9,17.5c-2.7,1.9-5.9,2.2-9.1,0.9
	c-6.1-2.4-11.2-6.1-14.9-11.5c-5.1-7.6-9.8-15.3-10.8-24.8c-0.3-2.8-1.6-5.5-2.4-8.3c-0.4-1.5-0.9-3.1-1.1-4.6
	c-0.3-2.1,0.5-3.8,2.6-4.5c3.5-1.1,5.2-3.8,6.9-6.8c6.4-11.4,15-21,25.6-28.4c4.6-3.3,10.3-5.2,15.8-7c4.8-1.6,10.7,1.4,13.8,6.1
	c2.3,3.5,0.9,7.1-3.1,8.7c-1.1,0.4-2.2,0.8-3.4,0.8c-5.2-0.1-9.7,1.9-13.7,4.9c-7,5.2-13.1,11.3-17.9,18.7c-0.4,0.6-0.7,1.3-0.9,2
	C977.8,367.1,977.9,367.4,978,368.5z"/>
<path d="M1075.5,119c-1.5,3.5-0.1,7,0.7,10.4c0.4,1.5,1.1,3,1.3,4.6c0.7,3.9-1.4,6.2-5.2,5.9c-8-0.6-12-4.6-12.4-12
	c-0.6-11.6,0.2-22.9,3-34c2.4-9.4,6.1-18.1,11.8-25.9c2.5-3.4,5.5-6.4,8.6-9.1c1.7-1.5,4-2.5,6.2-2.9c7.9-1.5,15,0.5,20.7,6.3
	c2.4,2.4,2.2,5.7,1.4,8.6c-0.7,2.6-1.7,5.3-3.3,7.5c-5.3,7.4-11.6,13.6-20.5,16.6c-1.1,0.4-2.1,1-3,1.6c-1.9,1.1-2.5,2.8-1.7,4.8
	c1.1,2.7,2,5.5,3.5,7.9c3.3,5.4,6.8,10.7,10.6,15.9c1.5,2.1,3.7,3.6,5.7,5.3c0.5,0.5,1.2,0.8,1.8,1.3c2.4,1.8,3.1,3.5,2.3,5
	c-0.9,1.7-3.9,3-6.1,2.2c-2.2-0.8-4.2-1.9-6.2-3.2c-6.4-4.1-12-9.1-16.5-15.3c-0.5-0.7-1-1.4-1.4-2.1
	C1076.3,118.6,1075.9,118.8,1075.5,119z M1091.6,74.4c-0.3-0.3-0.6-0.7-1-1c-0.8,0.9-1.6,1.9-2.4,2.8c0.2,0.2,0.5,0.4,0.7,0.7
	C1089.9,76.1,1090.8,75.3,1091.6,74.4z"/>
<path d="M216.1,414c3.3-4.2,4.1-8.5,4.8-12.5c1.5-7.9,2.8-16,3-24c0.2-9.4-0.7-18.7-1.6-28.1c-0.4-4.6,0.8-6.7,5.5-7.1
	c6.3-0.5,9.5,2.4,10.2,8.8c0.7,7.5,1.7,14.9,2.4,22.4c0.9,9.8,0.3,19.7-1.3,29.4c-1.2,7-3.1,13.8-4.6,20.7c-0.8,3.4-3,5.9-5.3,8.3
	c-2.4,2.3-5.3,1.9-8.2,1.3c-4.5-0.9-8.4-2.7-11.7-6.1c-3.1-3.2-6.8-5.7-9.3-9.6c-2.7-4.2-4.6-8.7-5.8-13.5c-1-4.2-1.6-8.6-1.9-12.9
	c-0.5-7.8-0.6-15.6-0.9-23.4c-0.2-4.8,0.6-5.1,4.9-6.5c6.2-2.1,11.2,3.2,11,9.6c-0.2,6.5-0.4,13.1,0.3,19.5c0.7,6.4,2,12.9,5.1,18.7
	C213.5,410.5,214.7,412,216.1,414z"/>
<path d="M1138.3,110.2c-2.3,0.8-3.9,1.2-5.3,1.8c-3.4,1.5-6.8,2.6-10.5,2c-1.8-0.3-2.7,0.7-3,2.3c-0.6,3.3-1.1,6.6-1.5,9.8
	c-0.4,3.2-1.7,5.2-4.7,5.2c-5.2,0.2-9.5-1.2-9.3-7c0.1-4.6,0.3-9.3,1.3-13.7c2.4-10.6,5.1-21.1,8.2-31.5c2.1-7.2,6.8-13.1,12.1-18.2
	c5.3-5.1,13.5-4.3,18.4,1.7c1.5,1.8,3,3.7,3.7,5.9c2.4,7.3,4.9,14.5,5.1,22.3c0.2,6.1,1,12.1,1.1,18.2c0.1,7.5,0,15-0.5,22.5
	c-0.3,5.1-2.1,6.5-6.3,6.4c-5-0.1-8.5-2.8-8.7-7.3c-0.2-4.3,0.2-8.7,0.3-13C1138.8,115.4,1138.5,113.2,1138.3,110.2z M1124,98.9
	c5.3,0.5,9-2,13.5-2.4c0.3-6.3-0.8-12.1-2-17.9c-0.2-0.8-1.1-1.5-2.1-2.8C1127.8,82.6,1125.3,90.1,1124,98.9z"/>
<path d="M188.5,415.6c-0.6,7.3-0.8,14.7-1.8,22c-0.9,6.5-3.7,12.5-8.1,17.5c-3.1,3.6-7.1,5.2-12.1,4.1c-9.1-1.9-15-7.1-18.5-15.7
	c-4.4-11-4.1-22.3-3-33.7c0.7-7.1,2-14.1,4.4-20.7c1.9-5.2,5-10,7.9-14.9c1.5-2.5,4.2-3.4,7.2-2.9c4,0.7,7.6,1.8,9.5,5.8
	c0.4,0.9,1.7,1.9,2.6,1.9c3.3,0.1,4.6,2.1,5.4,4.7C185.2,394.1,188.9,404.4,188.5,415.6z M170.4,386.9c-2.8,0.3-4,2.1-4.7,4.1
	c-1.3,3.7-2.2,7.5-3.5,11.1c-2.4,7.1-3.4,14.4-3.6,21.8c-0.2,4.8,0.4,9.5,2,14.1c0.8,2.3,1.8,4.7,4.4,4.8c2.6,0,3.6-2.5,4.3-4.8
	c1.2-4.3,2.5-8.6,3.5-13c0.5-2.4,0.8-4.9,0.8-7.3c0.1-3.9-0.1-7.8-0.3-11.7C173,399.6,172.3,393.2,170.4,386.9z"/>
<path d="M769.7,334.3c4,2.3,5.7,5.7,5.9,10.1c0.1,2.1,0.8,4.2,1.3,6.3c1.4,5.4,1.5,10.9,1,16.4c-1,11-4.3,21.2-10.1,30.6
	c-4,6.5-8.8,7.8-16,5.5c-7.6-2.5-12.7-7.6-16.6-14.3c-4.7-8.1-5.1-16.6-2.5-25.5c4.2-14.2,9.9-27.7,19.1-39.6c2-2.6,4.3-3.7,7.5-3.2
	c1.1,0.2,2.3,0.4,3.4,0.7C768.2,322.6,772.2,325.7,769.7,334.3z M761.9,342.2c-0.4-0.1-0.8-0.1-1.3-0.2c-1.1,1.8-2.5,3.5-3.4,5.4
	c-2.6,5.6-5.2,11.3-7.3,17.1c-1.9,5.4-3.6,11-2.5,16.9c0.4,1.9,1.2,3.8,2.3,5.4c0.8,1.3,2.3,1.2,3.3-0.1c0.5-0.7,0.9-1.5,1.4-2.2
	c5.5-8.8,8-18.5,8.5-28.8C763.2,351.3,762.3,346.8,761.9,342.2z"/>
<path d="M1159.6,336.5c-11.5,0.3-21.4,4.6-30.1,11.8c-2.3,2-2.2,3.8,0.5,5.6c4.8,3.2,9.7,6.3,14.7,9.2c7.6,4.5,14.7,9.9,20.7,16.4
	c2.1,2.3,3.9,5.1,5,8c0.8,2,0.8,4.6,0.3,6.7c-1.1,4.8-3.3,9.1-7.1,12.6c-6.9,6.2-14.2,11.4-23.8,12.4c-8.1,0.8-13.4-4.8-15.1-11.5
	c-0.6-2.4,1.2-4.2,3.6-3.3c9.8,3.7,15.8-2.6,22-8.3c1.2-1.1,2.1-2.4,3-3.7c2-3,1.7-5.7-0.3-8.7c-2.8-4.4-6.8-7.3-11.3-9.8
	c-6.6-3.6-13.1-7.3-19.7-11c-4.9-2.8-8.8-6.4-10.8-12c-1.6-4.5-1.1-7.4,2.4-10.5c7.9-7.1,16.5-13.4,26.8-16.4
	c5.4-1.6,11-2.6,16.6-3.2c5.2-0.6,11.4,4.8,12.1,10c0.2,1.8-0.4,3.3-2.1,3.8C1164.6,335.4,1162,335.9,1159.6,336.5z"/>
<path d="M302.1,404.4c1.3,3.4,0.7,6.4-0.5,8.9c-3.2,6.4-7.7,11.6-15.5,12.5c-3.3,0.3-6.4-0.3-9-2.4c-11.9-9.2-18.1-21.2-17.4-36.3
	c0.1-2.5,0.9-5.2,2-7.5c0.9-1.9,1.1-3.5,0.1-5.3c-4.3-7.5-4.3-15.5-2.8-23.6c1.2-6.2,4.7-11.4,8.2-16.6c1.3-1.9,2.5-4.1,4.3-5.4
	c7.3-5.4,15.3-7.3,24.1-4.3c3.7,1.3,5.8,4.4,6.7,8c1,4.2-4.8,8.6-9.4,7.2c-5.3-1.6-8.8,0.5-12.2,4.2c-1.4,1.6-1.2,3.8-3.2,5.2
	c-1.6,1.2-2.2,4-3,6.1c-0.7,2-1.2,4.2-1.6,6.3c-0.2,1.2-0.2,2.5-0.3,4.2c4.9-0.7,9.2-0.9,13.6,0.6c3.9,1.4,5.4,3.5,4.8,7.5
	c-0.2,1.1-0.4,2.3-0.4,3.4c-0.3,4.4-3.2,7.6-7.7,7.8c-6.6,0.3-8.6,1.5-8.2,10.1c0.2,5.2,3,9.7,5.7,13.9c1.7,2.7,4.5,2.9,7.7,1.1
	c2.4-1.4,4.8-2.6,7.1-4.2C297,404.4,299.4,404.3,302.1,404.4z"/>
<path d="M973.7,56.8c0.5-4.2,0.7-4.5,4.5-5c10.9-1.6,21.9-1.5,32.8-1.3c3.6,0.1,7.3-0.1,10.8,0.6c4.5,0.8,6.8,5.5,5,9.2
	c-0.8,1.8-2.1,2.7-4,3c-2.4,0.4-4.9,0.8-7.3,1.2c-3.9,0.6-4.1,0.8-4.8,4.8c-0.6,3.6-1.2,7.1-1.8,10.7c-2,12.1-4.1,24.3-6.1,36.4
	c-0.7,4-0.8,8,0.2,12.1c1.2,5-1.6,7.7-6.5,6.6c-7.8-1.8-11.5-5.3-12.6-13.9c-0.8-6.7,0.5-13.3,1.7-19.8c1.4-8.1,3.2-16.1,4.7-24.2
	c0.5-2.7,0.8-5.4,1.2-8.2c0.2-1.8-0.3-3-2.2-3.6c-4.2-1.2-8.2-2.8-11.4-6c-1.2-1.2-2.9-1.8-4.4-2.7
	C973.6,56.7,973.7,56.8,973.7,56.8z"/>
<path d="M171.1,163.7c-6.5,0-12.7-4.1-14.6-10.3c-1.5-4.8-2.5-9.8-3.4-14.8c-2.5-14.5-4.6-29.2-7.2-43.7c-1.3-7.1-3.2-14.1-4.9-21.1
	c-0.9-3.5,0-5.2,3.6-5.8c2.4-0.4,4.9-0.6,7.3-0.6c4.7,0.1,8.9,3.7,9.9,8.2c3.9,18.1,7.2,36.3,9.7,54.7c1.1,8.1,3.3,16.1,5,24.2
	c0.1,0.6,0.3,1.1,0.4,1.7C178.4,162,177.1,163.7,171.1,163.7z"/>
<path d="M104.8,380.7c6.4,0,9.7,4.1,9.2,10.4c-0.4,5.9-0.5,11.8-0.2,17.7c0.6,11.6,1.5,23.1,2.4,34.6c0.3,3.6,0.9,7.1,1.4,10.7
	c0.1,0.6,0.2,1.2,0.4,1.7c1.3,2.8,3.7,3.3,5.9,1.1c2.9-3,5.8-6.1,8.4-9.3c1.9-2.4,4.4-3.2,7.2-3.3c2.4,0,3.7,1.3,3.1,3.6
	c-0.6,2.5-1.4,5-2.6,7.3c-2.5,4.6-4.9,9.2-8.1,13.3c-2.1,2.7-5.3,5-8.4,6.6c-4,2-8,0.3-11.3-2.2c-5-3.7-8-8.7-8.9-14.8
	c-1-6.4-1.8-12.9-2.1-19.4c-0.6-11.3-0.6-22.6-1.1-33.8c-0.2-5.5-0.8-11-1.5-16.4C97.9,383.7,100.3,380.6,104.8,380.7z"/>
<path d="M352.8,192.2c5.1-0.6,5.2-0.6,5.3-4.6c0.1-3.3,0-6.5,0-10.4c1.1-0.3,2.4-1,3.7-1c3.3,0.2,6.7,0.5,9.8,1.3c3.8,1,6.2,5,6.2,9
	c0,3-0.3,6.1-0.2,9.1c0.4,6.8,0.9,13.5,1.4,20.3c0.8,10,1.6,19.9,2.5,29.9c0.2,2.3,0.8,4.6,1,6.9c0.2,1.7,0.3,3.5,0,5.2
	c-0.5,2.9-2.6,4.5-5.6,4.3c-2.8-0.2-5.5-0.6-7.3-3.2c-0.7-0.9-1.6-1.8-2.5-2.4c-4.8-3.3-5.5-8.1-5.7-13.4
	c-0.3-8.8-0.7-17.6-1.3-26.4c-0.5-6.6-1.4-13.2-2.2-19.8C357.6,192.9,357.7,192.9,352.8,192.2z"/>
<path d="M1241.9,110.6c1.2-8,2.2-16,3.8-24c2-9.9,4.4-19.8,6.7-29.6c0.3-1.3,0.5-2.7,1.2-3.7c0.7-0.9,2-2,3-1.9
	c3.4,0.4,6.9,0.6,9.7,3.1c2.6,2.3,3.8,5,2.9,8.5c-1.9,6.8-3.6,13.7-5.5,20.5c-2.6,9.2-3.7,18.7-4.9,28.2c-0.2,1.8,0,3.7,0.2,5.6
	c0.2,1.8,1.2,3.1,3,3.9c1.5,0.7,2.9,1.8,4.1,3c2.9,3,2.8,5.3-0.3,8c-3.6,3.2-8.5,3.2-13,0c-7.5-5.2-11.3-12.2-9.9-21.7
	C1242.5,110.6,1242.2,110.6,1241.9,110.6z"/>
<path d="M92.5,321.4c-1.4-0.4-2.3-0.5-3-0.8c-5.8-2.6-11.2-5.6-12.8-12.5c-0.2-0.8-0.6-1.6-0.8-2.5c-0.6-2.2-2.2-2.9-4.3-2.7
	c-0.6,0.1-1.2,0-1.7,0.2c-5.7,1.7-10.5-0.7-15-3.8c-3-2-3.2-5.4-0.4-7.6c1.5-1.2,3.5-2,5.4-2.6c2.6-0.8,5.4-1.2,8-1.7
	c3.9-0.8,4.3-1.2,3.9-5.1c-0.4-4.6-1.1-9.2-1.6-13.8c-0.4-3.6,0.6-5.6,4.1-7.6c2.6-1.5,4.6-1.2,7.5,1.1c2.5,2,4,4.4,4.4,7.7
	c0.3,2.6,1.1,5.1,1.6,7.6c0.6,3.3,1.6,5.8,5.4,6.9c3.8,1.1,4.8,4.4,3.1,7.9c-0.4,0.8-0.8,1.5-1.2,2.3c-1.1,2-3,3.9-3.1,5.9
	c-0.3,3.7,0.8,7.4,2.9,10.7c0.4,0.6,0.8,1.2,1.3,1.7c1.4,1.7,2.3,3.8,1,5.6C96.1,320,93.9,320.6,92.5,321.4z"/>
<path d="M914.3,49.6c6.4-0.8,9,2.2,9.8,8.2c0.1,0.9,0,2-0.2,2.9c-1.1,5.4-2.4,10.7-3.4,16.1c-1,5.3-1.8,10.6-2.7,15.8
	c-1.5,8.8-1.6,17.6,0.8,26.3c0.1,0.6,0.3,1.1,0.3,1.7c0.3,4-1.5,5.4-5.3,4.2c-8.4-2.7-13.1-9-14-18c-1.2-12.1,0.8-23.9,2.7-35.8
	c0.8-4.9,1.5-9.7,1.9-14.6c0.4-4.5,1.3-5.9,5.8-6.5C911.4,49.6,912.9,49.6,914.3,49.6z"/>
<path d="M1184.9,368c0.7-9.1,1.5-16.2,4-23.1c3.2-8.8,6.1-17.8,8.9-26.7c0.9-2.9,1.1-5.9,1.3-9c0.5-6.6,3.5-8.3,9.5-5.3
	c1.5,0.8,2.9,1.8,4.3,2.9c3.5,2.9,4,6.4,2.2,10.5c-1.4,3.2-2.1,6.6-3.3,9.9c-3.4,9.5-6.8,19.1-10.1,28.6c-1,3-1.8,6.1-2.6,9.1
	c-0.9,3.4-1.4,6.8-2.5,10.1c-0.6,1.8-1.9,3.6-3.3,4.9c-2.2,2.1-5.4,1.3-6.2-1.5C1186,374.5,1185.4,370.4,1184.9,368z"/>
<path d="M1212.9,367.2c0.6-11.4,2.6-21.3,6.7-30.7c2.5-5.8,5.1-11.6,7.5-17.5c0.8-2.1,0.9-4.5,1.3-6.7c0.3-1.5,0.6-3.1,0.9-4.6
	c0.8-3.7,5.9-6,9.9-3.1c2.1,1.5,3.7,3.6,5.4,5.6c1.5,1.8,1.5,3.9,0.6,6.1c-2.4,5.7-4.5,11.6-7,17.2c-2.3,5.1-4.9,10.2-7.6,15.1
	c-2.2,4-3.3,8.3-4.2,12.7c-1.1,4.9-2.2,9.9-3.4,14.8c-0.5,2-3.6,4.1-5.7,4.1c-1.6,0-2.3-1.1-2.5-2.5
	C1214,373.7,1213.4,369.9,1212.9,367.2z"/>
<path d="M1179.9,402.5c1.1-3.2,3.1-6.9,6.8-9.1c2.8-1.7,4.9-0.7,6,2.5c1,3.1,1.8,6.4,2.5,9.6c0.5,2.6-1.6,6.7-3.9,7.6
	c-2.7,1.1-4.9,0.1-7.1-1.7C1181.6,409.2,1179.8,406.9,1179.9,402.5z"/>
<path d="M356.5,155.6c1.7,0.2,3.4,0.4,5.2,0.5c4.7,0.4,7.5,3.3,9.3,7.3c1.1,2.3,0.1,4.2-1.5,5.8c-1.7,1.7-3.4,3.4-6,2.2
	c-4.4-1.9-8.4-4.5-11.2-8.5c-1.1-1.6-2.1-3.2-1-5.2C352,156.2,353.7,155.5,356.5,155.6z"/>
<path d="M1217.1,400.5c3.9,0,6.6,1.9,8.3,5.3c1.4,2.8,0.9,5-1.5,7.4c-2.4,2.3-3.7,2.5-7,0.8c-1.3-0.7-2.5-1.4-3.7-2.3
	c-2.5-1.9-3.5-4.6-2.7-7.2C1211.3,402,1213.8,400.5,1217.1,400.5z"/>
<path d="M557.8,28.5c-0.3,0.5-0.7,2-1.6,2.4c-0.9,0.4-2.3-0.2-3.4-0.7c-1-0.4-2-1.1-2.9-1.9c-1.7-1.4-2.2-3.9-1.2-5.4
	c0.9-1.4,3.2-1.9,5.1-1.2C556.3,22.7,557.9,25.1,557.8,28.5z"/>
<path d="M342.9,192.2c1.4,0,2.8,0,4.1,0c0,0,0,0.1,0,0.1C345.7,192.3,344.3,192.3,342.9,192.2C342.9,192.3,342.9,192.2,342.9,192.2z
	"/>
<path d="M667.8,290.1c0-0.4,0-0.8-0.1-1.1c0.1,0,0.2,0,0.2,0c0,0.4,0.1,0.8,0.1,1.2C668,290.1,667.9,290.1,667.8,290.1z"/>
<path d="M422.9,294c-0.4,0-0.7,0-1.1,0c0,0,0,0,0-0.1C422.2,294,422.5,294,422.9,294C422.9,294,422.9,294,422.9,294z"/>
<path class="st4" d="M459.3,241.6c-0.2-1.9-0.5-2.7-0.4-3.5c1-8.6,2-17.2,3.1-25.8c0.7-6,1.6-12,2.3-18c0.2-1.6-0.1-3.2,0-4.7
	c0.1-3.3,1.6-4.7,4.9-4.6c5,0.2,7.7,2.4,8.8,7.3c0.8,3.7,0.9,7.3-0.5,11.1c-1.7,4.9-2.8,10-4.1,15c-2,7.5-5.2,14.4-10.4,20.2
	C462.1,239.5,461,240.2,459.3,241.6z"/>
<path class="st2" d="M734.6,60.8c1.5,5.5,2.6,10.8,1.8,16.6c-3.5,0.7-6.6,1-10.3,0C727.8,71.2,730.9,66,734.6,60.8z"/>
<path class="st5" d="M447.2,370.4c-0.4-8.6,2.8-16.4,6-24.2c1.5-3.4,3.3-6.8,5.2-9.9c1.3-2,3-3.9,4.8-5.5c3.4-3,6.6-2.2,9.5,1.3
	c4.7,5.6,4.3,12.1,3.6,18.6c-0.7,7.1-2.9,13.9-5.9,20.3c-1.5,3.2-3.6,6.2-5.5,9.3c-1.8,3-4.8,4.1-7.8,5.2c-2.2,0.8-4.2,0.4-5.9-1.5
	c-2.5-2.7-4-5.6-4.2-9.3C447.1,373.3,447.2,371.8,447.2,370.4z"/>
<path class="st1" d="M712,344c0.4,2.1,1.3,4.1,1.2,6.2c-0.3,11.2-3.1,21.7-9.1,31.2c-1,1.5-2.5,2.8-4,3.9c-2.2,1.6-3.8,0.9-4.1-1.9
	c-0.1-1.1,0-2.3,0.1-3.5c0.6-6.1,2.6-11.9,4.9-17.5c1.9-4.7,4-9.3,6.2-13.8c0.8-1.7,2.1-3.3,3.2-4.9C711,343.9,711.5,344,712,344z"
	/>
<path class="st4" d="M343.3,335.2c-2.2,8.6-7.5,14-14.2,19.1C329.5,346.9,336.8,337.1,343.3,335.2z"/>
<path class="st1" d="M869.2,225.9c5.1-7.5,10.6-13.5,19.3-16.7c0,1.4,0.3,2.3,0,3C886,217.8,876.5,224.7,869.2,225.9z"/>
<path class="st5" d="M1152,271.2c0-4.7-0.2-8.5,0-12.4c0.6-11.7-0.2-23.4-1.5-35c-0.4-4.2-0.8-8.5,2.2-12c1.2-1.4,2.7-2.6,4.3-3.4
	c2.4-1.3,4.6-0.3,6.8,2c4.3,4.7,6,10.4,6.7,16.6c0.8,8.1-0.7,15.7-4.1,23.1c-3.3,7-7.6,13.2-12.3,19.4
	C1153.8,270,1153.1,270.3,1152,271.2z"/>
<path class="st2" d="M801.2,394.4c0.5-14.5,2-27.8,6.3-40.5c1.3-3.9,3.6-7.5,5.8-11c1.4-2.2,3.8-2,4.5,0.6c0.9,2.9,1.3,5.9,1.3,8.9
	c0.3,8.8-1.5,17.2-4.6,25.4C812.1,384.4,807.6,389.5,801.2,394.4z"/>
<path class="st0" d="M1009.1,226c-0.1,2.2-0.2,3.6-0.3,5.7c-1.2-0.6-2.4-0.9-2.4-1.3C1006.3,228.7,1007,227.3,1009.1,226z"/>
<path class="st5" d="M954.1,332.2c1,2.7-0.7,4.3-1.8,6.1c-4.2,7.3-9.5,13.4-17.4,18.7c0.4-2,0.3-3,0.7-3.8c2.4-5.3,4-11.1,8.2-15.5
	C946.6,334.8,949.5,332.1,954.1,332.2z"/>
<path class="st4" d="M647.7,220.1c3.2,3.3,6.2,6.3,9.5,9.6c-0.5,2.6-2.9,4.1-5.2,5.4c-1.9,1.1-3.1,0.5-4.1-1.5
	C645.6,229.2,645.5,224.2,647.7,220.1z"/>
<path class="st6" d="M1091.6,74.4c-0.9,0.8-1.7,1.6-2.6,2.5c-0.2-0.2-0.5-0.4-0.7-0.7c0.8-0.9,1.6-1.9,2.4-2.8
	C1091,73.8,1091.3,74.1,1091.6,74.4z"/>
<path class="st0" d="M1124,98.9c1.3-8.8,3.8-16.2,9.4-23.1c1,1.3,1.9,2,2.1,2.8c1.2,5.8,2.3,11.6,2,17.9
	C1133.1,96.9,1129.3,99.4,1124,98.9z"/>
<path class="st2" d="M170.4,386.9c1.9,6.3,2.7,12.7,2.9,19.1c0.1,3.9,0.3,7.8,0.3,11.7c0,2.4-0.2,4.9-0.8,7.3c-1,4.4-2.3,8.7-3.5,13
	c-0.7,2.3-1.7,4.8-4.3,4.8c-2.6,0-3.6-2.5-4.4-4.8c-1.6-4.6-2.1-9.3-2-14.1c0.2-7.4,1.2-14.7,3.6-21.8c1.3-3.7,2.2-7.5,3.5-11.1
	C166.4,389,167.6,387.2,170.4,386.9z"/>
<path class="st0" d="M761.9,342.2c0.4,4.5,1.3,9.1,1.1,13.6c-0.5,10.2-3,20-8.5,28.8c-0.5,0.7-0.8,1.5-1.4,2.2
	c-1,1.3-2.5,1.4-3.3,0.1c-1.1-1.6-1.9-3.5-2.3-5.4c-1.2-5.9,0.5-11.5,2.5-16.9c2.1-5.8,4.7-11.5,7.3-17.1c0.9-1.9,2.2-3.6,3.4-5.4
	C761.1,342.1,761.5,342.2,761.9,342.2z"/>
</svg>
