<svg id="Layer_2" data-name="Layer 2" xmlns="http://www.w3.org/2000/svg" viewBox="0 0 260.65 227.72"><path d="M241.71,193a2.38,2.38,0,0,1-.12,2.91,6.48,6.48,0,0,0-.56.81l-.43.08a.49.49,0,0,0,0,.11l.07.06-.12-.18.42-.09c.16.54.51,1-.17,1.59-.52.47.24,1.52-.39,2.19v-.09l0,.06c-.11.69-.25,1.37-.33,2.06a5.79,5.79,0,0,0,0,.93l0,0-.65.26,0-.07v0c-.45,1-.44,2.15-1,3.13v0h-.77c1.26.56,1,1.2.72,2.05a36.63,36.63,0,0,0-.74,4.69c-.38,1.93-1,2.28-3,2.32-2.57,0-5-.16-7.58-.12l-11,.14c-3.74,0-7.48.08-11.23.12-1.91,0-3.83.07-5.75.08-3.09,0-6.18,0-9.27,0-4.32.06-8.65.17-13,.25-1.83,0-3.67,0-5.5.05-3.74,0-7.48.11-11.22.12-2.36,0-4.45.13-6.81.07a2.83,2.83,0,0,1-1.79-.46c-.49-.43.42-2,.65-2.47.78-1.38,1.56-2.24,2.33-3.63,1.21-2.18,2.5-3.86,3.69-6.05.52-1,1-1.91,1.55-2.87q1.05-2,2.08-3.95c1.08-2.05,2.15-4.11,3.25-6.16.8-1.48,1.65-2.94,2.46-4.42.47-.85.9-1.72,1.35-2.58.62-1.18,1.27-2.35,1.87-3.54a55.94,55.94,0,0,1,3-5.93c2.22-3.31,3.77-7,5.81-10.37,1.15-1.93,2-4.1,3.26-5.92a54.4,54.4,0,0,0,2.87-5.3c1.59-2.83,3.08-5.71,4.62-8.56,1.39-2.56,2.79-5.11,4.18-7.68.21-.39.33-.83.55-1.22.69-1.21,1.45-2.39,2.11-3.61,1.17-2.18,2.25-4.4,3.45-6.56.63-1.15,1.51-2.17,2.14-3.32s1-2.27,1.52-3.39c.28-.6.62-1.16.93-1.73a10,10,0,0,1,1.15-2.06c1.76-2,2-4.73,3.82-6.71a18.56,18.56,0,0,0,2.06-3.69q1.76-3.2,3.52-6.37c.73-1.31,1.49-2.6,2.31-4L216,93l0,.56,0,0c-.12.11-.25.31-.37.31-1.79-.13-3.58.57-5.36,0l-.67-.23c-.29.27-.49.62-.7.62-1.48,0-3,0-4.48,0-.93,1.54-1.79,3-2.68,4.44-.67,1.08-1.39,2.13-2.08,3.21-.79,1.25-1.48,2.58-2.38,3.75-1.52,2-2.64,4.24-4,6.34-1.61,2.48-3.07,5-4.62,7.57-.36.59-.82,1.1-1.19,1.67s-.6,1.11-1,1.62-.95,1-1.35,1.57-.47.94-.75,1.39c-1.32,2.11-2.65,4.2-4,6.31a2.14,2.14,0,0,0-.35.62c-.11.66-.41,1-.94.83a7.84,7.84,0,0,1-.43,1.49c-.59,1.08-1.21,2.13-1.89,3.15a20.86,20.86,0,0,1-1.64,2c-.06.07-.3,0-.47,0,.1,1.74-1.34,2.65-2.11,3.92l0,0c-.17.77-.09,1.67-1.09,2-.21,1.51-1.85,2.14-2.27,3.31-.68,1.88-2.2,3.17-2.92,4.92-.88,2.09-2.46,3.68-3.51,5.63-.73,1.37-1.38,2.79-2.15,4.14a29.5,29.5,0,0,1-1.77,2.43l-.17,0a.09.09,0,0,0,.07,0l.07-.09.19.53c-1.16.39-1.37,1.54-1.94,2.4h0v.29h0c-.44.6-.89,1.2-1.32,1.81-.87,1.22-1.78,2.41-2.57,3.68s-1.56,2.79-2.33,4.19c-.11.21-.17.51-.34.6a5.16,5.16,0,0,0-2.15,2.83c-.14.3-.62.45-.95.67.61.86-.56,1-.79,1.52l0-.12v.11l-1.1,1.83-.05,0h.08a9.44,9.44,0,0,1-1.24,2.12,20.21,20.21,0,0,0-1.78,2.79c-.68,1-1.43,1.92-2.06,2.93-.34.55-1.19.75-1.06,1.7,0,.22-.89.57-1.37.86l0,0v.54l0,0v.24h0l-.28.28,0,0-.29,0v-.06l0,0a.89.89,0,0,1-.24,1.31l0-.08,0,0-2.19,2.65,0,0-.33.09v-.07l0,0,.3.24,0,0L134,203.5l.69.41c-1.09,1.4-2.16,2.77-3.2,4.15a3.2,3.2,0,0,0-.4,1,2.6,2.6,0,0,1-2.82,1.76c-1.66-.15-3.32-.16-5-.26-2-.12-4.07-.26-6.09-.44a16.66,16.66,0,0,1-2.52-.46c-.2,0-.39-.32-.49-.53-.46-1-.88-2-1.39-2.93-1-2-1.95-4.09-2.91-6.14-1.34-2.86-2.64-5.73-4-8.57s-2.83-5.46-4.08-8.25c-.92-2.05-1.57-4.22-2.34-6.33,0-.12-.11-.22-.16-.34l-3.07-7c-.54-1.26-1-2.54-1.6-3.8-.07-.15-.27-.25-.42-.37l0,0-1.41-4,0,0a9.5,9.5,0,0,1-1.69-3.32c-.18-.43-.34-.88-.5-1.32l0,0v-.54l0,0a2.09,2.09,0,0,1-1.06-1.52,13.19,13.19,0,0,0-1.08-2.52,5,5,0,0,1-.2-.78l-.06,0,0,.06c-.14-.2-.38-.4-.4-.61-.14-1.48-1.2-2.52-1.76-3.79s-1-2.74-1.61-4.07c-.81-1.8-1.72-3.56-2.56-5.34a3.21,3.21,0,0,1-.29-1.09,4.14,4.14,0,0,0-.76-1.78A37.55,37.55,0,0,1,79,130.67c-.25-.57-.5-1.15-.72-1.73s-.33-1.09-.53-1.77c.06,0-.25,0-.31-.08-.41-.83-.76-1.69-1.15-2.53-.66-1.39-1.33-2.76-2-4.14-.09-.18-.18-.36-.26-.55-.71-1.66-1.43-3.33-2.13-5-.1-.26-.12-.56-.23-.81-.27-.57-.58-1.12-.86-1.66l-2.07,1.4,0,0c-.58-.4-1.11.1-1.65.17s-.78.58-1.17.89h0c-.27.2-.71.35-.78.6-.26.92-1,1.26-1.72,1.6l-.07-.45-.13,0,.22.38-.44.16v0h-.3l0,0-2.07,2.17c1.64,3.67,3.23,7.24,4.83,10.81.46,1,1,2.07,1.41,3.11s.82,2.07,1.32,3.07a5.65,5.65,0,0,1,.88,2.48l0,0,0-.06c.55,1.17,1.1,2.36,1.67,3.52a3.31,3.31,0,0,0,.53.6h0c0,.32-.07.76.1.95A7.51,7.51,0,0,1,73,147.2a15.6,15.6,0,0,0,1.28,2.55c1.08,2.5,2.1,5,3.18,7.51s2.1,4.66,3.14,7a9.45,9.45,0,0,1,.5,1.24,12.43,12.43,0,0,0,1.5,3.22,8.3,8.3,0,0,1,.61,2.34l-.1.15a1.42,1.42,0,0,1,.08-.18,6.75,6.75,0,0,1,1.06,1.36c1,2.4,1.93,4.85,2.93,7.26.49,1.19,1.1,2.32,1.66,3.48h0v.31l0,0c.87,1.88,1.69,3.79,2.64,5.63.4.78.4,1.75,1.13,2.4.15.13-.08.69-.13,1h.06l0,0,0-.07c.23.21.59.38.67.63.65,2.12,2.26,3.87,2.37,6.19,0,.12.28.21.38.35a4.19,4.19,0,0,1,.58.88,11.18,11.18,0,0,1,1.19,3.16,1.75,1.75,0,0,0,.52,1.17s-.17.29-.27.45l-.15.22.09,0,0-.3a3.84,3.84,0,0,1,.78.78,15.46,15.46,0,0,1,1.61,3.23,24.47,24.47,0,0,0,2,4.79,1.44,1.44,0,0,1,.07.36h0l-.17.09.17.21h0l.43.88c-.29.17-.14,1-.4,1.2,0,0-.44-.71-.46-.7h.08c-.4,1-1.24,1.08-2.17,1.09-2,0-4.08.1-6.12.13l-12.1.16c-1.71,0-3.42.08-5.13.07-2.35,0-4.7-.07-7-.1h-.25c-3,.09-6,.19-9.06.25q-6,.14-12,.2-5.44.08-10.87.11c-3.78,0-7.56,0-11.34,0a31,31,0,0,1-3.16-.39.89.89,0,0,0-.46,0c-1.07.52-2.09.09-3.14-.1-1.31-.23-2.65-.31-4-.49a2.18,2.18,0,0,1-.65-.35l0,0-1.28-.94,1.11-1.42-.95-.17-.06-1.4,0,0c.07-.13.24-.36.2-.4-.73-.83-.44-1.69-.13-2.57a1.06,1.06,0,0,0,0-.84c-.58-.75-.31-1.21.3-1.79a1.3,1.3,0,0,0-.1-1.23c-.91-.49-.67-1-.32-1.71a2.77,2.77,0,0,0,.12-.78l0,0a7.22,7.22,0,0,1,.67-3.77.94.94,0,0,0-.06-.82c-.77-.89-.21-1.6.24-2.35l0-.06v.1c-.22-.47-.64-.95-.62-1.41.06-1.34.31-2.67.45-4,0-.34-.22-.78-.08-1,.42-.72,0-1.28-.13-1.93a1.6,1.6,0,0,1,.24-1.27c.61-.58.35-1.19.36-1.83,0-1.13.16-2.26.25-3.38h0s0-.07,0-.11,0-.12,0-.19h0a8.14,8.14,0,0,0,.6-3.59c-.08-1.6.63-3.12.51-4.59s.61-2.72.55-4.12c0-.2.3-.4.36-.63a1.49,1.49,0,0,0-.12-.6h0c.12-.47.23-.95.34-1.43a1.94,1.94,0,0,0,.11-.66,8.66,8.66,0,0,1,.28-3.88,16.08,16.08,0,0,0,.3-3.2c.17-2,.34-4,.54-6a5.94,5.94,0,0,1,.29-1.1l0-.06v.09c-.08-.07-.23-.17-.22-.21.91-2.29.45-4.85,1.36-7.15a18.13,18.13,0,0,0,.66-2.05c.06-.24-.11-.53-.14-.8-.11-1.14-.3-2.3.86-3.1.1-.07,0-.38,0-.58l0,0c.11-.68.19-1.37.35-2a3.64,3.64,0,0,1,.43-.83l0,0h.29l0,0v-.29l0,0,.14-.68.48.38.1-.23-.61-.13.06-.83.66-.18-.1-.21-.53.42c-.45-.4-.33-.83-.11-1.3a15.24,15.24,0,0,0,1.05-2.43,4,4,0,0,0-.22-1.5c.16-.12.43-.32.7-.54,0,0,0-.07-.05-.09s-.07,0-.11,0v0c.2-1.15.35-2.3.61-3.43.16-.7.5-1.36.73-2a1.39,1.39,0,0,0,.07-.8c-.5-1.32.05-2.31.84-3.3a3.33,3.33,0,0,0,.32-1.24l0,0v.09a15.58,15.58,0,0,1,.2-2.74,13.41,13.41,0,0,1,1.09-2.42c.08-.18.25-.37.22-.52-.21-1,.35-2,.29-3a7.17,7.17,0,0,1,.7-2.32c.4-1.21.77-2.43,1.2-3.63a15,15,0,0,1,.78-1.55l0,.83.27,0-.25-.79c0-.7-.23-1.41.56-2,.35-.25.4-.92.61-1.46s.16-1.15.26-1.75a9.52,9.52,0,0,1,.32-1.69,11.16,11.16,0,0,1,.81-1.67c.12-.23.4-.47.38-.68A2,2,0,0,1,35,88.79c-.67-1.31.26-2.39.53-3.57.08-.34.79-.54,1.27-.85,0-.27-.66-1,.42-1l0-.69.08,0s0,0,0-.06l0,.12L37,82.22l0,0,.28-.28,0,0c.31.24.52.24.55-.22l.68-.27-.08-.14-.56.44-.59-.08,0,0a8.76,8.76,0,0,1,.5-1.74c.17-.31.29-1.06,1.06-.65.07,0,.46-.54.7-.83h-.56l-.56-.89,1.5.22.06-1.26,0,0,.25.27.06,0h-.09l.06-.3,0,0v-.31l0,0v-.41c-.64-.52,0-.89.17-1.3s.41-.81.7-1.39l.41.69-.09,0h.07l.22-1h0l.29-.27,0,0v-.29l0,0,.46-1.88.94,1,.26-.24-1-1.43c.06-.45.06-.45.66-.52.76,0,.76,0,.94-.63l-1,.65c.46-1,.93-2.09,1.4-3.13l0,0V66l0,0a5.22,5.22,0,0,0,.64-1.21,1.08,1.08,0,0,1,1.27-1h.39l0,0v.09l-.39,0-.3-.9.7-.23,0,0,.73.06a6.37,6.37,0,0,1,1.66-3.93l0,.05-.06,0,.51-.48,0,0H50l0,0s.06-.07.06-.1a1.52,1.52,0,0,0-.06-.2l0,0a.76.76,0,0,1-.09-.18l0,0,.57-1,0,0h.31l0,0,.3.38.27,0c0-.5.07-1,.11-1.51a1.48,1.48,0,0,1,.1-.57c1.34-2.16,2.79-4.26,4-6.48a21.85,21.85,0,0,1,4-5.14C61.93,41.25,64.45,39,67,36.73a37.39,37.39,0,0,1,3-2.34,2.74,2.74,0,0,1,1-.23l.57.5c-.8.34-.55,1.19-.85,1.77l0,0c-.36.16-.73.3-1.09.48-.82.41-.32.75-.1,1a2.51,2.51,0,0,0-.35,1.4.55.55,0,0,0,1,.09l0,0,1.5-.15c-.2-1,.69-1.88-.25-2.74-.13-.12.23-.79.38-1.19a3.69,3.69,0,0,1,.24-.49l-.55-.19-.56-.5c.07-.28.06-.71.24-.84,2.46-1.74,4.88-3.54,7.44-5.12a44.39,44.39,0,0,1,9-4.33,34.57,34.57,0,0,1,10.27-2.08,104.71,104.71,0,0,1,11.47.53,39.24,39.24,0,0,1,6.36,1.13c2.33.58,4.62,1.34,6.9,2.1a17.24,17.24,0,0,1,2.76,1.27c.34.19.56.61.83.92,0,0,.09,0,.12,0a.73.73,0,0,0,.08-.09h0c0,.58-.56,1.41.66,1.41l.28.27.09-.29-.38.05.34-1.13c.94.86,1.76,1.61,2.58,2.38.15.14.23.34.38.47,3.5,3.12,5.53,7.33,8.19,11.07a21.53,21.53,0,0,1,2.2,3.88,28.53,28.53,0,0,1,1.05,3.7,2.37,2.37,0,0,0,.3.5l0,0v-.05a6.15,6.15,0,0,1,.32,1.85c-.2,1.46.5,2.73.66,4.09h0s-.06.07,0,.1a1.52,1.52,0,0,0,.06.2l0,0c0,1.29-.09,2.57-.09,3.85,0,.3.21.6.23.9a11,11,0,0,1-.06,1.62c.06.76.11,1.52.17,2.28,0,.28,0,.69.12.82,1,.89.55,2.1.52,3.1A19.77,19.77,0,0,0,144,70.9l0,0S144,71,144,71a.7.7,0,0,0,.06.19h0a3.44,3.44,0,0,1-.31,3.1l-.11.34.16,0-.07-.38c.15.12.42.23.43.35,0,.71,0,1.43,0,2.14l0,.06v-.09a12.34,12.34,0,0,1,.13,1.61c0,.77-.12,1.55-.19,2.3-.17,2-.28,3.77-.53,5.64-.07.54-.22,1.08-.34,1.62h0v.29h0c-.18,1.15-.37,2.3-.55,3.44-.51,3.18-1,6.36-1.52,9.54-.07.46,0,1-.7,1.07.86.5.15,1.12.07,1.64-.47,3.14-1,6.27-1.52,9.41-.34,2.12-.6,4.24-1,6.35-.24,1.29-.67,2.55-1,3.82,0,.12-.13.24-.1.35.54,2.7-.74,5.11-1.21,7.64,0,.12-.12.28-.08.35.51,1-.2,1.71-.43,2.54a3,3,0,0,0-.08.6l0,0v.3l0,0c0,.84-.08,1.69-.11,2.54l0,0c0,.77,0,1.54-.1,2.3-.05.52,0,.84.64.85a21.82,21.82,0,0,1,2.91.24c.7.1,1.07-.16,1.08-.81a11.27,11.27,0,0,1,1-3.91,19.44,19.44,0,0,0,.57-2.89c.29-1.3.7-2.57.93-3.87s.35-2.73.54-4.09c0-.22.23-.42.29-.64.16-.6.29-1.2.42-1.8,0-.2-.05-.48.06-.59a2.76,2.76,0,0,0,.7-2.27,9,9,0,0,1,.32-2.17,4.77,4.77,0,0,1,.36-.76c.22-.54.41-1.09.61-1.63l0,0a6.6,6.6,0,0,1,.57-3.83c1-2.06,1-4.33,1.73-6.46.9-2.83,1.61-5.73,2.33-8.61.81-3.26,1.45-6.57,2.34-9.81s1.94-6.26,2.94-9.38c.61-1.9,1.25-3.78,1.88-5.68h0l.34-.14-.34-.15h0c.42-1.18.8-2.38,1.28-3.54.62-1.52,1.31-3,2-4.5l1.62-3.6c.1-.22.17-.46.29-.67.3-.55.81-.92.64-1.76-.1-.48.64-1.09.9-1.68.56-1.25,1-2.55,1.57-3.79s1.21-2.43,1.81-3.64q1.31-2.65,2.62-5.3c.34-.68.72-1.34,1.1-2,1-1.65,2-3.29,3-4.94.71-1.18,1.35-2.4,2.13-3.53.33-.48,1-.73,1.41-1.18a6.25,6.25,0,0,0,1-1.55,18,18,0,0,1,3.78-4.81c.74-.77,1.27-1.76,2-2.52,1.06-1.07,2.24-2,3.37-3s2.13-1.85,3.2-2.77l.06,0-.09.06,1.63-1.14,0,.06v0c1.82-1.78,4.3-2.46,6.42-3.75a5.45,5.45,0,0,1,2.06-.28l.06,0h-.09a8.23,8.23,0,0,1,4.11-.85c.55,0,1.1-.17,1.65-.18,1.43,0,2.86,0,4.28,0s2.59.1,3.88.16a2.75,2.75,0,0,1,.49.14l0,0-.08,0c.29-.11.68-.4.85-.31a4.21,4.21,0,0,0,3.28.3c.54-.12,1.49-.33,1.8.66l0,0v.29l0,0,.1.39-.08,0,0-.14.06.08.19-.38,0,0c.15-.07.34-.24.43-.2,1.28.61,2.85.67,3.8,1.94h-.08l0,0c.27,0,0,.81.68.37.21-.15.9.29,1.28.57a12.25,12.25,0,0,1,2,1.83,4.56,4.56,0,0,1,1.25.62,24.29,24.29,0,0,1,2.88,3c1.7,2.35,3.21,4.84,4.9,7.21a11,11,0,0,1,1.38,3.67l0,0v.07c.14,0,.37-.05.43,0a5.09,5.09,0,0,1,1.34,3.46l-.08.06.11,0c.53,1,1.11,2.07,1.58,3.14a8.48,8.48,0,0,1,.38,1.69l-.09,0,.06.05.3.78,0,.07,0-.09c.36.86.72,1.72,1.07,2.58l0,0c.19.74.37,1.48.59,2.2a10,10,0,0,0,.69,2,4.29,4.29,0,0,1,.26,1.82,28,28,0,0,0,.83,2.86c.44,1.92.83,3.87,1.18,5.81.19,1.1.27,2.23.41,3.34h0v.29h0a2.43,2.43,0,0,1,.75,2.43,1.51,1.51,0,0,0,0,.6c.36,2.29.79,4.57,1.07,6.87.21,1.68.22,3.38.31,5.06,0,.12-.08.29,0,.35,1,1.09.17,2.33.29,3.48l-.39,0,0,0,0,0,.37.09c-.05,1.26.95,2.4.37,3.74-.16.35.53.85-.12,1.21l0,0-.06,0,.11.67,0,0h-.12c.78,1.19.38,2.58.64,3.86.08.37-.18.8-.28,1.2l0,0v-.07a30.31,30.31,0,0,1,.47,4.27c0,1-.35,1.94-.28,2.92l0,0v-.08c.12,1.14.28,2.28.34,3.42s0,2.37,0,3.56c0,1.8,0,3.59,0,5.38,0,1.52-.07,3-.14,4.56a33.12,33.12,0,0,0-.27,5.15c.26,2.5-.26,4.93-.29,7.39a4,4,0,0,1-.55,2.63.31.31,0,0,0,0,.23c.76,1.73.11,3.53.14,5.28a54.56,54.56,0,0,1-.81,6.8c-.09.8,0,1.62,0,2.43a6.43,6.43,0,0,1-.37,1.31c-.06.19-.26.46-.19.56.62.88.14,1.55-.27,2.32-.2.37,0,.94,0,1.42-.13,1.21-.32,2.42-.49,3.62v0c0,.5,0,1-.09,1.49-.3,2.42-.6,4.85-.93,7.26q-.39,2.84-.87,5.65a4,4,0,0,1-.49,1l0-.09.07.06a2.77,2.77,0,0,1-.35,2.45l0,0v-.09c.08.09.23.2.22.27-.29,1.89-.57,3.78-.91,5.66A3.62,3.62,0,0,1,245,179a1.26,1.26,0,0,0-.29,1.31,7.87,7.87,0,0,1-.62,4.39,3.76,3.76,0,0,1-.73.89l.39.46,0,0-.91,2.58c1,1.19.08,2.39-.6,3.62l0,0H242l-.48.16.23.61Zm-77.26,21.38.05-.28v0l0,.35-.1.07ZM84,214.44l0,0-.05,0,0-.05Zm-12.79-1.11,0,.07.06,0-.17-.29.15-.18s-.08-.11-.12-.15,0,0-.07,0l.23.1-.18.23ZM219,212.12l.12,0-.14,0,.05.05Zm-186.36-.31,0,.07,0,0-.1,0Zm39.77-1.38,0,.07v-.05l-.07,0ZM76.47,37.58H76l0,.43H76L76,37.6h.54l-.08.06Zm7.1.44,0-.07.08,0,0,0ZM128,206.18l.35.09.09.73c.56-.31.93-.59.59-1.21l.22-.35.18,0s0-.05-.06,0a.33.33,0,0,0-.1.06l-.21.34-.73.48-.36-.08,0,.05Zm102.54-.5-.05.1,0-.07,0-.06Zm-102-.06,0,0-.05,0ZM87.46,39.68l0,0,.08,0ZM71.1,203h0l-.45-.11-.54-.73-.17.15.19,1-.09.2.07.06v-.28l.56-.15Zm-18.87,0h0l-.06,0Zm151.84-.32,0,.07v-.07h0Zm.27-1.44,0-.08v.06l0,.06,0-.06Zm35.39-.36.05,0-.08,0,0,0ZM84,198.69l0,0,0-.06v0ZM189.4,45.19l.09,0-.12.06,0-.09H190l0,.1-.14,0,.09-.07Zm52,.89,0-.21-.13.08.19.1.35.21c0,.34-.82.72.18,1.12l-.22-1.11Zm-194,149.79.11,0h-.14l0,.06Zm125.4-1,0,.05h.06l-.1-.05Zm-118.95-.11h0l-.07,0Zm87.93-143,0-.08.08,0ZM30.24,191.65l.19-.26-.3-.26.53-.08,0-.12-.49.21.29.24-.16.3ZM66,53.08l0,.37.16.36-.53,0v.06l0-.06.54,0L66,53.47l0-.37,0,0ZM41.63,190.52l-.25,0-.84.17.83,3c-.48.84-.53,2.92-.06,3.4.06-.71.14-1.38.16-2.06a12.27,12.27,0,0,0-.13-1.36,2.56,2.56,0,0,0,.4-.88,17.4,17.4,0,0,0-.12-2Zm17-.15.1-.49h0l0,.47,0,0ZM186,189.92h0l.05.07Zm-41.56-3.07h0l0,0,0-.14s0,0,0,.06Zm-58.57-2.54h0l-.08,0,0,0Zm62-1.95H148l-.09,0Zm48-.69H196l-.07,0-.13-.15Zm-90.52-3.79V178l0-.06h-.06Zm-.54-.6,0,0,0-.05,0,0Zm-52-.15.06,0h-.09l0,.05Zm64.21-2.49.08-.46,0,0h-.07l-.05.42-.53,0h0Zm-35-.55,0-.18.07.21-.4.12-.58,1.11-1.57,0a1.4,1.4,0,0,0,1.57,1.75v-1.77l.66.34v0l.26-1,.33.3.2.36.1-.07-.33-.28-.32-.28-.34-.5ZM47.43,63.39v0l.06,0Zm61.83,107.92.11,0h-.05l0,.07ZM203.52,64.7l0,.45.5,0-.06,0,0,0h-.47l0-.46.09,0ZM58,167.8l0,0H58l-.12-.06Zm58.15-2.26,0,0h-.06l.06.07Zm130.23-1.18.07,0,0,.06ZM117,66.14l0,0H117v.46l-.52.62h-.06l0,0,.54-.62ZM246.61,160l0,.06-.08,0v0Zm-173-8.58v.06l0-.06-.1,0ZM211.3,69.1l-.07.05.1,0-.08.38-.16.33c.22.86.44,1.72.71,2.75.62-1.76.43-2.41-.71-2.74l.13-.37Zm-167,81.55h-.21l-.18.12.18.11,0,.66h.3l-.05-.63s.06-.06.06-.09A1.77,1.77,0,0,0,44.33,150.65Zm191.3-3,0,.05h.06l-.1-.06ZM211.68,17.89l0,0,0,0ZM34.42,126.16l.06,0h-.09l.08,0ZM51,123.56l0,0,0-.35,0,0Zm10.11-13.08,0,0-.07,0Zm6.63-.71,0,0,0,.08-.09,0s0,0,0,.07ZM61.42,106l-.1-.35-.07-.18-.09.11.18,0,.11.36-.08,0Zm-1.23-1.41-.09.32-.81.31.89.58-.1.32-.52,1,.24.16,1-.57-.75-.66.3,0-.2-.23-.07-1h.18l-.1-.25-.18-.33.08,0,0,.14-.06-.07ZM46.39,81.92l-.06,0,.09,0V82Zm24.59,22,0,0H71l-.11-.07Zm-39.67-.51.06,0-.06.06,0,.05ZM46.19,83.85l-.06-.06.06,0Zm25,17.8.11-.16-.09.19h-.32l-.15-.19,0,.19-.18.52-.08,0,0,0,.18-.55h.52ZM226.45,20.94h-.25l-.28.52.53-.28.4-.11-.15.89h.2l-.09-.86Zm-130,79.34h0l-.08,0ZM41,98.33h0l-.32.23-.3.37,0,0,0-.07.28-.39ZM38,85l-.48,0v-.15l.09,0-.07.13.49-.08,0,0Zm9.55,6.73v.09l0,0-.05,0Zm155.08-1.91,0,0h.07l-.11-.07Zm-5.82-1,.08.07-.1,0,.05,0Zm-161-1.41.37-.14,0-.31,0,.31-.47-.09-.11-.29-.09.06.23.19.11.29-.38.22-.25.13.08.06.15-.21ZM69.07,97.83c-.09,0-.18,0-.12,0l.14,0,0-.06Zm6.74,89.27a.28.28,0,0,0,.09.07s0,0,.06,0h-.18l-.17-.16Zm113.53,27c0,.09,0,.18,0,.09l0-.06-.06-.06Zm-91.75-.27-.07,0,.1,0,0,.29ZM38,82.55l-.15.15.12-.18Zm201.9-49.13.15-.08v.11h-.19l.05.06ZM14.08,213.16l.36-.42,0-.05v.09l-.3.41-.15.09s.07,0,.08,0A.36.36,0,0,0,14.08,213.16ZM70.45,35.41v.07l0,0-.19-.07Zm61.48,146.7H132c.15-.08.05,0,0,0l-.09.06s0,.05,0,.07ZM84,106.55l0,.08v0l-.14-.27-.06.1Zm-20.79,85.9h0c.1-.11,0,0,0,0l0,0Zm175-15.16,0-.16s0,.05,0,.06a.27.27,0,0,0,.08.07l.14.13,0-.13Zm-90.16-4.12-.06.41.17,0-.13-.39ZM44.32,209l.2-.08-.11-.1,0,.21-.19.13.13.08Zm65.28-35.72.11.21-.14-.18-.14-.13ZM53,203.63l-.13.08.09-.11,0-.17ZM206.91,74.47l0-.17.05.17Zm5-1-.37-.27a1,1,0,0,1,0-.14l.08.14.35.24Zm-.13,56.47-.24-.05.26,0,0-.25ZM116.16,41.54l.12-.07-.1.09v.06ZM52.88,170.4l.07,0-.09,0,0-.28-.06.27-.16.1.14-.13Zm5.25,30.93.17-.26-.1,0,0,.34-.11,0s0,0,0,.07ZM168.83,46.89l0,0h-.08l-.1-.12Zm-32.77,98.69.05,0H136Zm-92.29,4.19,0-.05-.07.05.11-.36.44-.21-.07-.09-.34.33-.23,0Zm10.06,50.74,0,.09,0-.07c-.08-.05-.15-.1-.05,0C53.65,200.48,53.74,200.49,53.83,200.51Zm194.32-46.86-.19.06.11.11.05-.2Zm-2.22,2.72-.09.16.12-.19,0,0ZM91.56,158.12l0-.08v0l.15.14,0-.12Zm100.89,1.28.36,0v-.14l-.37.13,0,.06Zm42.1-7.12.23-.36-.13-.06-.11.45,0,.06ZM240.26,196l-.15.3h.08l.09-.33ZM207.64,23.56l-.07,0,.06-.05,0-.82.33-.64-.11,0-.22.7ZM91.64,135.1v.21l.12,0-.15-.14-.14-.38-.14.1Zm81.85-2.28.39.07v-.16l-.39.12.06.07ZM74.86,111.27l.12.28.1-.14-.25-.11-.26-.32-.11.14Zm-15.27-2.92-.05-.07.08,0,0,.4.11,0Zm-1.11,83.52-.23.2.17.09,0-.31s0-.07,0-.11,0-.05,0-.08ZM89,214.35l-.37-.08v.09l.4,0,0,.42.19-.06ZM86.88,187l.19-.26-.09-.05-.11.34,0,.06ZM71.53,97.61l-.06.5h.14l-.1-.48Zm-12.9,90.2,0,0h0v-.28l0,0v.06l-.41-.12a1.72,1.72,0,0,0,0,.21A3.88,3.88,0,0,0,58.63,187.81ZM250.53,87.23l0,0-.06,0,.28.26.06-.14ZM76.33,190l.09.2.07-.11-.19-.06,0-.44-.19.08Zm55.79-7.45-.08.4.23,0-.18-.41.09,0ZM127.8,32.27l0,0,.08,0,.06.62.27-.13Zm51.14,163.5-.36.55.15.08.2-.62-.3-.43-.15.18ZM54.31,76l-.5.16.44.17c-.47.28-1,.56-.38,1.18a1.53,1.53,0,0,0-.65,1.85l.63-1.86.36-1.14.09-.38v-.35h-.09ZM53.81,198l-.39.51.19.11.23-.66-.05-.05ZM39.36,104.25,39.3,104l.07.19.49.06V104Zm5.77-38,.6.08,0-.29-.55.21.13.72.18-.06ZM205,201.07l.31-.32-.26-.16,0,.51-.23.4.14.06ZM116.78,62.36c0-.33.28-.81-.43-.66l0-.06-.06,0,.48.69-.08,0ZM98.16,60.43l0-.1,0,.07.37.12,0-.25Zm124,47.32,0-.34,0,.32.72.44.1-.34ZM41.41,74.85l.7-.45-.2-.17-.47.65-.48.4.25.19Zm190.52-7-.63.36.2.2.44-.6,0-.06Zm-31,15,.32-.64-.35-.1.07.71-.07,0ZM69.43,200.64v-.06l0,0,.33.93.27-.14Zm89.37-58.12-.05,0,.07,0-.22,1.23h-.06l0,0Zm-129,57.71c.52-.24.6-.55.19-1l-.2,1,0,.27ZM183,118.77l-.84.38.23.31.64-.73,0,0Zm-27.88,96.35-.06-.07-.06,0h.15l-.32.82.45,0ZM242,185.83l.4.52.17-.25-.6-.23-.07-.94C241.88,185.23,241.06,185.7,242,185.83ZM117.16,81.7l.7-.39.07,0-.1.06-.37-.7-.27.11v1l-.34.16L117,82Zm7.94-37.88v.71l.25,0,.3-1.2-.26-.07ZM202,86.05c-.61.63-.61.63.17.89L202,86v0ZM90.22,76l-.07.05.1,0c0,.57-.11,1.14-.18,1.94C90.87,77.13,90.42,76.56,90.22,76Zm161.11,29-1.07.89,1.38-.13-.34-.73,0,0ZM38.23,210c-.91.1-.95.21-.38,1.15L38.2,210l0-.07Zm44.31,3.1.25-.45-.11,0-.14.49.38,1h.25l.14-.92ZM53.3,168.58l-.72.45.07.26.75-.11-.14-.58.58-1-1,.22Zm165.52,41.6c.87-.74-.24-1.24-.11-1.89l-.29.06c.14.62.29,1.24.43,1.86l-.41.42.2.13ZM40.1,102.07l.28-1.9.08-.06-.06.09c-.88.51-.3,1.25-.28,1.9l-.32,1.27.37,0ZM83,39.87c.82-.41.57-.93.2-1.54l-.8.88.64.69c-.94-.08-1,.59-1.12,1.19l.27.18ZM104.17,63.3,102.9,65l.35.22c.5-.52,1-1,.88-1.91l.05,0ZM64.9,56.73l1-2-.23-.1c-.51.6-1.15,1.14-.76,2.1l-.83.33.15.25Zm111.83,70.58,0-.07.06,0c.07.44-.68.93.14,1.44a10.7,10.7,0,0,0,.51-1.12c.05-.15-.06-.35-.1-.52ZM35.17,123.65l.44-.22-.76-1.74a5.17,5.17,0,0,0-.11,1.63c0,.12.3.21.46.31Zm-5.1,87.8c-.61.72-.48,1.37.48,1.92-.31-.66.41-1.49-.51-2l.31,0-.06-.1Zm19.65-3.62,0-.07-.06,0c0,.37,0,.73,0,1.1v1.2c1.1-.73.41-1.63.63-2.56Zm176-7.48.29-2.43c-1,.29-1.12,1-.53,2.42l.13,1.14.19,0C225.77,201.09,225.74,200.72,225.72,200.35Zm-143-169v-.08l0,0-.41,2.14.49.11c.23-.75.45-1.51.71-2.34ZM183.45,215.07l0,.07,0,0c.4-.84-.06-1.39-.65-2l-.23.87-.24,1ZM90.53,199l0,0H90.5l.42-.75a12.67,12.67,0,0,0-.63-1.23,2.75,2.75,0,0,0-.56-.51,3.2,3.2,0,0,1-.08.64C89.3,198.06,89.9,198.53,90.53,199ZM93.05,61.38h0l-.07,0,.88-1.75-.27-.13c-.41,1-1.87,1.33-1.84,2.89a4,4,0,0,0,.65-.36A7.15,7.15,0,0,0,93.05,61.38ZM231.42,27.31v.19l.11-.06-.15-.11c.08-.81.15-1.62.23-2.44v-.28l-.52-1.16A4.09,4.09,0,0,0,231.42,27.31ZM198,72.38l-.28.28c0,.34-.06.76.12,1a7.67,7.67,0,0,0,1.29,1.09l-.54-3-.33,0ZM125.36,37.32l0,0h.09c-.53,2.46-.49,4,.26,5.19V40.82h0ZM75.46,210.06l.42.65V211l.49,2.33.32.06.73-1.33,0-.05v.08l-1.52-5.2a4.51,4.51,0,0,0-.33.69,5.41,5.41,0,0,0-.08,2.53l0,.08S75.48,210.11,75.46,210.06ZM96.32,101.31c-.38,1.83-.77,3.75-1.17,5.68C96.83,105.25,97.25,102.37,96.32,101.31Zm141.54,77.83c-.16,1.64-.31,3.14-.47,4.64l.42.09a7.75,7.75,0,0,0,.26-.77c.05-.27-.06-.66.09-.8C239.23,181.23,239,180.26,237.86,179.14Zm-29.08,35.1.14-.18a17.46,17.46,0,0,0-.78-1.63.81.81,0,0,0-.71-.27,1,1,0,0,0-.57.54.65.65,0,0,0,.16.61C207.58,213.66,208.19,213.94,208.78,214.24ZM130.22,41.77l-.43-.05a9.87,9.87,0,0,0,.16,3.55h.27Zm-62.91,57c.86-1,.22-1.92,0-2.93-.27.57-.66,1-.65,1.5A4.15,4.15,0,0,0,67.31,98.8ZM226.74,41l-.39-.09-.27,1.43C227.27,42.24,227.33,42.09,226.74,41ZM78.82,116.52l.21-.28c-.1-.24-.36-.56-.28-.72.32-.62-.25-.52-.42-.47s-.43.48-.38.56A8.25,8.25,0,0,0,78.82,116.52ZM97.69,215l.39,1.75C99.37,215.62,98.16,215.43,97.69,215ZM47.21,191.31l.56.09.21-1.88-.34-.07Zm197-29.85h.26c0-.94.11-1.88.17-2.81h-.43ZM48,192l-.38,0v1.9l.25,0Zm169.48,21.38-.05-.42-2.34.42,0,.28ZM110.61,98.59c-.38.09-.75.11-.76.19a8.39,8.39,0,0,0,0,1.23l.37,0ZM59.47,140.18l.38,0-.11-1.75-.35,0ZM96.65,87.12l.4-2.28C96.23,85.66,96.68,86.43,96.65,87.12ZM58.77,214.39c-.51,1.11-.51,1.11.48,1.35Zm152.47-149H211c0,.54-.09,1.07-.13,1.6l.37,0ZM213.85,16l-.15-.39-1.32.58.08.2Zm33.89,101,.39.1.28-1-.26-.11a1.78,1.78,0,0,0-.34.45A2,2,0,0,0,247.74,116.94Zm-69.6,88.24.3.1.37-.73c-.2-.08-.39-.17-.6-.24-.05,0-.13.06-.25.13ZM191,37.88l-.2-.17L190,39.1l.26.14ZM73.65,176.38l-.34.06.13,1.3.27,0ZM220.27,68.13l-.23.05.2,1.3.37-.07Zm20.85-22.89.32-.08L241,43.41l-.27.06C240.85,44.06,241,44.65,241.12,45.24Zm-113,58.45-.4-.08-.2,1.14.35.06ZM77.62,37.6l.13.31.75-.32-.14-.31ZM46.44,97.53l.25,0,.2-1.17-.23,0ZM229.86,98.7c.75,0,.75,0,.58-.69Zm-164-23.15-.29-.14-.4.6.4.21Zm25,8.29.27,0-.09-1.54h-.18Zm26,86.21-.4,0,.12.87.32,0ZM60.49,73.37l-.36.06.08.73.32,0ZM197,95.05l-.24.29.65.54.23-.29ZM116.51,81h.13l.15-1-.28,0Zm52,123.65.11.28.65-.25-.08-.25Zm1.62,10.75.35.08.17-.81-.29-.07Zm-38.87-26.25-.16-.35c-.1.09-.24.16-.29.26s.11.18.17.28Zm-22.17-21.27L109,168l.22.5c.06,0,.17-.11.16-.13A4.78,4.78,0,0,0,109.12,167.87Zm121.44,28h-.24l0,.56h.2C230.56,196.22,230.56,196,230.56,195.86Zm-151.17-78-.28.24.52.43.19-.19ZM70.7,208.06l.23,0c.08-.13.22-.25.22-.38s-.15-.24-.37-.55Zm-8.79-98.52c-.14-.11-.22-.22-.31-.23s-.14.13-.22.2c.08.07.14.19.22.2S61.78,109.62,61.91,109.54Zm7.79.06a2.74,2.74,0,0,0-.29-.15.29.29,0,0,0-.1.18,1,1,0,0,0,.17.25ZM245,175.78l.25,0-.12-.53-.09,0Zm-66.69,37.3h.2l0-.9h-.16Zm61.26-41.49-.31,0,.07.65.18,0Zm-122.91-2.78-.14.1.23.47.18-.1Zm-37.72-52c-.1.12-.22.2-.23.29s.14.15.22.23a2.44,2.44,0,0,0,.23-.33S79,116.85,78.9,116.78ZM220.6,21.63l.28.06.08-.62-.18,0ZM67.17,100.34h-.09l0,.49h.2ZM81.08,120c-.27-.13-.38-.24-.49-.23s-.17.15-.26.24a1.31,1.31,0,0,0,.34.29S80.85,120.15,81.08,120ZM87.2,41.39,87,41.32l-.24.68.19.07Zm3,34,.13,0v-.53h-.07Zm140,129.46.26,0-.14-.46-.12,0Zm-216.55.1h.1l0-.51h-.17ZM235,191.13c0-.07,0-.17-.09-.2s-.14,0-.21,0l.1.26ZM91.08,85l.2-.12L91,84.46l-.13.09ZM108,183l-.15-.06-.2.34.11.06Zm-34.54-7,.17-.13-.18-.17c0,.06-.12.1-.13.16S73.37,175.91,73.42,176ZM45.7,122.72l-.15,0,.14.38.14-.05Zm176.16-12.57c-.09.15-.21.25-.2.32s.14.18.21.27c.07-.08.19-.17.2-.26S222,110.3,221.86,110.15ZM117.73,172.54a1.52,1.52,0,0,0-.21.3s.08.17.11.16.23-.06.24-.11S117.8,172.71,117.73,172.54Zm-7.82-5-.07-.2c-.06,0-.18.06-.18.08a.89.89,0,0,0,.09.26Zm124.3,45.06-.18-.09-.22.41.17.09Zm-1.1-144.85c-.18.14-.28.2-.28.23a2,2,0,0,0,.14.34Zm-2.49,130.8-.11-.24a1.26,1.26,0,0,0-.24.22s.06.12.09.18Zm9,.49s0-.09-.06-.09-.07,0-.1,0l.09.14ZM89,213.6l-.16-.15c0,.05-.06.1-.08.15s.06.08.08.07A.46.46,0,0,0,89,213.6Zm51.62-51.92.17.24.17-.4Zm-13.1-59,.12.16s.08-.06.08-.09a1.25,1.25,0,0,0,0-.19ZM47.2,166.6l-.07-.2-.2.09s.06.14.1.16S47.15,166.62,47.2,166.6ZM120.81,26.42l-.24.26.29.37.26-.25ZM68.49,102.58a1.12,1.12,0,0,0,0,.29s.11,0,.17,0Zm-16,65.36-.2-.22-.22.32.18.17Zm11.76,47.32c-.11.07-.22.12-.21.14a.77.77,0,0,0,.12.24Zm24.14.42.21.09.12-.49-.15-.05ZM48,77.07s-.12,0-.15,0-.08.11-.11.17.13.05.17,0S47.94,77.13,48,77.07Zm120.38-7.35-.14-.18-.09.06a1.22,1.22,0,0,0,.15.17S168.32,69.74,168.35,69.72Zm58.7-40.48-.3-.12c0,.06,0,.13,0,.17a.36.36,0,0,0,.18.12S227,29.32,227.05,29.24ZM47.81,195.32l.09-.06-.12-.15-.08.06ZM174.45,193a1.76,1.76,0,0,0,.09-.2s0,0-.07-.06a1.11,1.11,0,0,0-.09.19S174.43,192.93,174.45,193Zm35.83-174,.22-.06c0-.07-.06-.17-.11-.18s-.13,0-.2.09Zm13.16,60.6-.15-.08c0,.06-.13.11-.13.16a.7.7,0,0,0,.08.27ZM70.24,143,70,143c0,.06,0,.17.09.18s.14,0,.22-.06Zm155.61,61.37a1.16,1.16,0,0,0-.18.3s.06.13.09.19.22-.08.23-.13S225.92,204.49,225.85,204.32ZM59.41,137.14l.22,0-.11-.31ZM45.55,83.47h-.18l0,.46h.19Zm26,132.61,0-.1-.16-.06s0,.08,0,.11A.31.31,0,0,0,71.54,216.08Zm12.08-5.42-.06-.09a.93.93,0,0,0-.15.13s0,.05.06.08Zm-49-82.72-.19-.09c0,.06-.07.14,0,.19s.1.06.16.09S34.55,128,34.58,127.94Zm59.81,75.38c.07,0,.15.09.2.08s.08-.12.11-.19-.15-.08-.21-.07S94.43,203.26,94.39,203.32Zm91.18-12.67c0,.06-.09.14-.07.18s.11.06.17.08.09-.13.07-.18S185.63,190.68,185.57,190.65ZM68.43,96.79l-.06-.1a.89.89,0,0,0-.07.19s0,.07.06.1S68.41,96.85,68.43,96.79Zm-9.7,92.1a.91.91,0,0,0-.11.16l.07.06c0-.05.08-.1.11-.16Zm63.64-89.44-.17-.12c0,.07-.08.15-.06.21s.11.07.17.11ZM119.5,33.17l0,0,0-.09ZM95.62,101.35l-.19-.09c0,.07-.07.14-.06.2s.11.06.16.09Zm-11.32,4v-.1l-.2,0v.1ZM63.91,58.7a.4.4,0,0,0,0-.11h-.1v.17ZM85.14,183.18l0,.08a.53.53,0,0,0,.17-.08s0-.06,0-.09Zm89.52,8.66-.16-.14-.07.08.16.13Zm-43.45-9.12-.05-.1-.09.12s.06,0,.08,0S131.19,182.74,131.21,182.72ZM198.35,81.36h-.12v.37h.09Zm-113,130.19,0,.08,0-.06ZM46.77,80.73l-.17-.11c0,.06-.08.14-.06.19s.1.08.16.12A1.59,1.59,0,0,1,46.77,80.73Zm.19-.64,0-.17s-.09,0-.09,0a1,1,0,0,0,0,.17Zm37.37,98.63s-.07.06-.07.08a.72.72,0,0,0,0,.21s.08,0,.08-.07A.79.79,0,0,0,84.33,178.72ZM61,109.2c-.11-.06-.18-.14-.22-.13s-.09.11-.13.17Zm19.64,68.7.09,0a1.42,1.42,0,0,0,0-.22s-.08,0-.08,0S80.62,177.82,80.63,177.9ZM74.35,110l.09,0v-.15s-.08,0-.1,0S74.35,109.94,74.35,110Zm9,66.77h-.09l0,.09Zm94.86,33.37s-.09,0-.1,0,0,.07,0,.1.08,0,.1,0S178.22,210.14,178.21,210.11ZM86.39,61.28l.08.21.2-.08-.09-.22ZM75.27,114.59v-.1s-.08,0-.09.07,0,.06,0,.09ZM30.46,192.34a.54.54,0,0,0-.1.16s0,.07,0,.11.12-.05.12-.07A1.52,1.52,0,0,0,30.46,192.34Zm218.05-76.83,0-.17-.09.06a1.17,1.17,0,0,0,0,.11Zm-63.16,76.91a.91.91,0,0,0,.16.11s.07-.06.06-.08a.83.83,0,0,0-.09-.16ZM130,209.21l-.06-.09a.5.5,0,0,0-.13.12s0,.06,0,.09ZM250.81,118h-.13l0,.39h.14ZM103.35,173.6s0-.07,0-.1l-.08-.06s0,.07,0,.1S103.32,173.58,103.35,173.6Zm-30.53-.08h-.07v.33h.07Zm-19.48-.06v0ZM168.58,205.7l-.07-.21c-.07,0-.16,0-.2.09s0,.17.06.18S168.51,205.72,168.58,205.7Zm36.21-81.88-.09-.06,0,.09.14.07Zm-170.2,3.36c.08-.13.15-.2.14-.26s-.11-.09-.18-.13Zm79.71,2-.16,0,0,.1Zm-61,42.59a.15.15,0,0,0,0-.1s-.07,0-.1,0l0,.15ZM206.94,73l.16-.07s-.07,0-.1,0S207,72.93,206.94,73ZM16.43,171.05a.57.57,0,0,0-.1.13s0,.07,0,.11l.14,0Zm73.7,23.29,0-.09-.14,0s0,.07.06.08S90.09,194.35,90.13,194.34Zm118.35-54.48a.61.61,0,0,0-.17-.07s-.06.06-.06.08.08.09.11.14Zm1-92.32-.06,0,.07,0Zm21.63,148.32v-.11l-.14.07.06.09ZM131.27,41.92l0,.11h.14a.31.31,0,0,0,0-.1A.15.15,0,0,0,131.27,41.92ZM246.12,147.53s-.08-.05-.1,0,0,.06-.06.1l.15.06Zm-65.4-77.89,0,.1s.1,0,.13-.09,0-.06,0-.1Zm41,130-.14-.14s-.07.07-.06.08a1.07,1.07,0,0,0,.14.16ZM208.17,44.32l.05-.1-.12,0a.4.4,0,0,0,0,.11S208.14,44.31,208.17,44.32Zm23.9,22.35a.71.71,0,0,0-.16-.07s-.06.07,0,.09l.11.15Zm-62,0-.06-.08-.07.07.1.11Zm77.23,92.86s.06,0,.07-.05,0-.07,0-.1l-.12.07ZM200,45.49l0,.1,0-.1Zm40,152.18-.05-.11,0,.11ZM35.17,162.22l0-.09s-.07,0-.07,0a.36.36,0,0,0,0,.1Zm8.89-9.78v.07l.08,0Zm182.8-109-.09.05.15.08s0-.07,0-.08A.16.16,0,0,0,226.86,43.4ZM44.76,69l0-.1s-.06.06-.07.09a.24.24,0,0,0,0,.1ZM35,163.15v-.09l-.1,0Zm23,1.9,0,.1.12-.07ZM234.9,150.57l-.14,0s0,.06,0,.06Zm-4.54,49.8-.05-.09-.06.05a.57.57,0,0,0,.08.13Zm-95.07-54.76,0,.1h.09ZM168,70.26a.32.32,0,0,0-.09,0s0,0,0,.07l.08,0S168,70.28,168,70.26ZM20.09,144.42l.09,0-.06-.13ZM181.19,71s0,.07,0,.09.07,0,.11,0l-.05-.16ZM130.14,46.64a.31.31,0,0,0,0-.08s0,0-.06,0a.19.19,0,0,0,0,.08ZM249.46,140.8l0,.07,0-.07ZM89.82,195.52l-.06-.1-.09.08.11.12ZM249.5,138.25l0,.07h.06ZM90.84,135.3l-.09-.08a1.46,1.46,0,0,0-.07.19s0,.06.07.09Zm-5.48-1.07,0-.09-.06,0a.11.11,0,0,0,0,.08Zm124.56,1.07-.15,0,.06.09ZM55.29,133.07l-.17,0a.24.24,0,0,0,.08.06ZM241.92,171.8l0-.1-.09,0,0,.11Zm-2,.37a.41.41,0,0,0,0-.08s-.05,0-.07,0,0,.06,0,.09S239.89,172.16,239.91,172.17Zm-60.32-43.76s-.08.05-.08.07a.89.89,0,0,0,.07.19,1.42,1.42,0,0,0,.08-.18S179.61,128.43,179.59,128.41Zm-146.1-.25s0-.07-.07-.07-.05,0-.08.06l.12.11Zm217.33-.72.09,0-.09,0ZM173.7,203s-.06,0-.07,0a.18.18,0,0,0,0,.1l.13,0Zm-25.27-30.65-.07-.19s-.09.06-.08.07a.62.62,0,0,0,.07.19ZM181.19,75l.1,0s0-.07,0-.09a.1.1,0,0,0-.09,0S181.2,74.94,181.19,75ZM51.11,125.75l-.06.09.09,0ZM242.63,51.22l0-.08,0,.15ZM215.54,205.29a.3.3,0,0,0,0-.1l-.08,0s0,.06,0,.09S215.51,205.28,215.54,205.29ZM248,119.62l-.05.07.07,0Zm-79.36,87.32s0-.07,0-.07l-.09,0s0,.07,0,.07ZM52.93,76.54l-.08-.17-.08,0a1.37,1.37,0,0,0,0,.19ZM87,209.26l0-.09-.08,0ZM212.91,62.61s0-.08-.08-.08-.06,0-.09.06l.12.12Zm-139.67,112s0-.08-.06-.07a.85.85,0,0,0-.17.06s0,.08,0,.08A.67.67,0,0,0,73.24,174.64Zm-9.16-58.59L64,116v.12l.09,0S64.07,116.07,64.08,116.05Zm20.75,93.62s.06,0,.06-.08,0-.05-.06-.07l-.11.11ZM40.7,77.38l-.1,0,.12,0ZM66.35,52.24l0,.19a.38.38,0,0,0,.15,0,.12.12,0,0,0,0-.09A.75.75,0,0,0,66.35,52.24Zm182.49,61.59v.08l.09,0ZM47.47,78a.29.29,0,0,0,0-.1l-.08,0a.42.42,0,0,0,0,.1Zm194.41,98.3,0-.09s-.06.05-.06.08,0,.06,0,.09Zm-168-65.39s0-.07-.08-.07,0,0-.08.07l.12.1Zm-6.71.22,0-.09-.1.06Zm1.72-.48.07,0v-.06Zm98.8,81.5-.08-.06,0,.08Zm10.64,18.57-.14.12s.05.08.07.07a1.15,1.15,0,0,0,.17-.06A1.47,1.47,0,0,0,178.3,210.73ZM117.37,60.89v-.11l-.13,0a.42.42,0,0,0,0,.1S117.34,60.9,117.37,60.89ZM243.85,179.28s-.08,0-.09,0a.35.35,0,0,0,0,.11l.16,0Zm0,.88-.06.09.08,0ZM225.7,212.1l-.08-.08a1.08,1.08,0,0,0-.08.19s.05.06.07.09ZM198.29,80.62s-.08.06-.07.07a1.06,1.06,0,0,0,.06.19s.07,0,.07-.07S198.31,80.69,198.29,80.62ZM60.48,107.79l.06-.09-.16-.09s0,0-.06.08ZM31.92,212.4v.17s.05-.06.05-.08S31.94,212.43,31.92,212.4Zm8.39-131s-.05,0-.05.07,0,.06,0,.09.06-.05.06-.07S40.32,81.38,40.31,81.35ZM108,184.26l.08,0,0-.1Zm-21.39.66,0-.09s-.07,0-.08,0a.14.14,0,0,0,0,.09S86.56,184.91,86.59,184.92Zm-.82.35,0,.11,0-.1Zm-24.31-82-.15,0s0,.07,0,.07S61.4,103.29,61.46,103.28ZM204.18,33.1l0,.09.11,0ZM71.36,102.5v.08l.1,0ZM97,83.63v-.08l-.09,0Zm34.59,102.08a.19.19,0,0,0-.08,0s0,0,0,.07l.08,0S131.55,185.73,131.56,185.71ZM65.86,84.58l0-.15s-.07,0-.07,0A.53.53,0,0,0,65.86,84.58Zm142.6-64,.08.05v-.08ZM45.53,84.68s0-.07-.06-.08a.28.28,0,0,0-.09.05l.1.13Zm28,102.65h-.06l0,.09ZM14.16,215.28l-.16,0s0,.07,0,.07Zm151.27.25.09,0s0,0,0-.07l-.08,0S165.44,215.5,165.43,215.53ZM88.29,189.19l-.05.1h.08ZM201.21,87.32l0,.11.11-.07Zm16.54,52.22,0,.16s.05,0,.06-.08S217.76,139.56,217.75,139.54ZM35.85,91l0-.06h-.06Zm177.72,2.13,0,.07h.07Zm16.25,3.93,0,.06h.06ZM46.7,98.16l0-.07h-.07Zm-6.86-17-.06,0v.07Zm21.63,25.55,0,.07h.07Zm114.65-28,0-.06h-.07ZM251,78.26s.07,0,.08-.07-.05-.06-.07-.08-.07,0-.08.07S251,78.24,251,78.26ZM60.22,111.69l0,0H60.2Zm120.9-35-.07-.07-.07.06.06.07Zm-135.66,43-.05.07h.08ZM61,122.18l0,0H61Zm17.22.73,0,.07h.07ZM40.58,75.21l-.06,0v0Zm10,51.49,0,0H50.6Zm171.07-53-.05.06.07,0Zm-42.17,55.65.07,0v-.08ZM23.79,131.88l0,0h-.06Zm3,.19-.07,0v.08Zm-1.1,2.71.07,0v-.07Zm59.37.19,0,.06h.06Zm55.61,5.5,0-.05-.06,0Zm32.3,2.21-.05,0v.06ZM71.54,145.81l0,.06h.06Zm168.1.83,0,0h-.06ZM193.08,158.4l.06,0v-.06Zm-101.34.2,0,.06h.06Zm141.05-92-.06,0v.06Zm-200.55,99-.07-.08s-.07,0-.07.07,0,.05.06.07ZM246,166l.06.05V166Zm-137.07,1.23,0,0v-.06Zm-28.3.24.06,0v-.07Zm36,.5-.07,0V168ZM246,170.77l0-.06H246ZM103.3,172.88l-.07.06s0,.06.06.06,0,0,.07-.05Zm-21.43,6.76,0-.08h-.08ZM92.67,60l.06,0v-.07ZM135,59.2l.07,0v-.08Zm-3.55,127-.07-.08-.08.07s0,.07.07.07S131.39,186.24,131.42,186.22Zm-43.13,1.92-.05.08h.08Zm-29.73.26s-.05,0-.07,0-.05,0-.08.07l.15,0ZM228.76,16.62l.06,0V16.6ZM133.9,53.79s0-.07-.06-.07-.05,0-.08.05,0,.07.06.07S133.87,53.81,133.9,53.79Zm52.61,135.65,0,0v0ZM141.94,53.35l.05-.08h-.08Zm-83.38,140-.06,0v.06Zm20.87,2.53,0,0H79.4ZM230.54,44.13s-.07,0-.07.08,0,0,.06.08.08,0,.08-.08S230.57,44.16,230.54,44.13ZM15,199.27s-.05-.07-.08-.07a.11.11,0,0,0-.08.08s.05.05.08.08Zm163.82,2.25.05-.07h-.07Zm-.73.28s.07-.05.08-.07,0-.06-.07-.08-.07,0-.07.07S178.07,201.77,178.09,201.8Zm52.38.66.07,0v-.07Zm-214.3.45,0,.06h.06ZM189,40.71l0,.06H189Zm30-1.24-.05.06H219Zm3.66,165.76,0-.06h-.06Zm1.73,0,.05-.07h-.09ZM14.73,206.41l-.06,0v.06Zm6.91.75s0-.08-.07-.08-.05,0-.08.07.05.07.07.07S21.61,207.18,21.64,207.16Zm63.63,1.45.06,0v-.06Zm-5.15.74,0,0v-.06Zm17.76,1,0,.05h.06Zm60.53.21,0,.08h.08Zm-61.29.35,0-.06H97.1Zm81.17.68.08.05v-.08Zm-109-176,.07,0v-.07Zm97,178,0-.05h-.06ZM96.9,33.09l0,0,.06,0Zm14.51-.67,0-.07h-.07Zm52.52,182.85s0-.07-.06-.07-.05,0-.08.05,0,.07.06.07S163.9,215.29,163.93,215.27Zm-101.05.25.07,0v-.07Z"/><path d="M138.1,197.91a2.54,2.54,0,0,1,.16.49s-.17.11-.27.17l-.1-.42,0,0,.28-.28Z"/><path d="M66,114.83l-.23.71-.24-.13.49-.58Z"/><path d="M242.21,192.22l-.5.77,0,0,.25-.77h.25Z"/><path d="M17.14,217.6c.07,0,.14-.06.19,0s.07.11.11.17-.15.06-.19,0S17.17,217.67,17.14,217.6Z"/><path d="M46.91,62.68l-.07-.57H47l-.15.58Z"/><path d="M92.78,161.42l-.06.44-.18-.12.28-.29Z"/><path d="M90.63,156.81c0-.16,0-.33,0-.49l0,0v.54Z"/><path d="M138.1,197.17v.5l0,0v-.54Z"/><path d="M94.22,165.35l0,.15.19,0-.19-.09Z"/><path d="M50.5,56.9l.08-.19.17.19,0,0h-.31Z"/><path d="M126.4,27.67l.35.06,0,.1-.33-.17Z"/><path d="M215.92,93.52l.12.24-.1,0,0-.29Z"/><path d="M143.26,87.88a.58.58,0,0,1,0,.18.18.18,0,0,1,0,.09h0v-.29Z"/><path d="M251.56,85.23l.07,0h0Z"/><path d="M37,82.22,37,82l0,0v.29Z"/><path d="M37,82l.26-.26,0,0V82l0,0H37Z"/><path d="M39,78.53v.07l0-.08Z"/><path d="M68.76,113.8l0,0,.07,0Z"/><polygon points="145.32 115.64 145.23 115.68 145.29 115.67 145.32 115.64"/><path d="M63.07,117.16H62.8l0,0h.3Z"/><path d="M39.93,76.59l.27-.27,0,0v.31l0,0H39.9Z"/><path d="M23.68,127.31l-.06,0,0,.06,0-.07Z"/><path d="M41.66,72.88s0-.1,0-.15a.2.2,0,0,1,0-.08l0,0,0,.28Z"/><path d="M22,134.93l.27-.28,0,0v.29l0,0h-.29Z"/><path d="M135.14,134.9v.26l0,0v-.3Z"/><path d="M41.58,72.5l.33-.12,0,0v.29l0,0h-.3l0,0-.11-.17Z"/><path d="M135,137.7c0-.06-.05-.12,0-.11s0,0,0,.09Z"/><path d="M21.14,137.77l0,0Z"/><path d="M41.55,72.48l.06,0,0,.07Z"/><path d="M157.08,71.9l0-.28h0v.29Z"/><path d="M71.34,142.9c0-.08-.09-.15,0,0,0-.14,0-.06,0,0Z"/><path d="M144,70.9a1.15,1.15,0,0,1,.06.17s0,.07-.05.1h0v-.3Z"/><path d="M249,153.5v0Z"/><path d="M44.63,66.23V66l0,0v.3Z"/><path d="M158.47,167.63l.09,0-.05,0Z"/><path d="M158.51,167.61l0,.06v0Z"/><path d="M157.07,169.34l0,.28h0v-.29Z"/><polygon points="47.66 61.14 47.69 61.21 47.62 61.2 47.66 61.14"/><path d="M248.85,60.55a1.46,1.46,0,0,1,.07.19s0,0-.07.08h0v-.29Z"/><path d="M14.83,181.68v-.28h0v.3Z"/><path d="M88.87,183.12v.28l0,0v-.31Z"/><path d="M49.76,58.38,50,58.1l0,0v.3l0,0h-.3Z"/><polygon points="49.95 57.92 49.98 57.87 49.93 57.94 49.95 57.92"/><path d="M143,55.88a1.21,1.21,0,0,1,0,.18s0,.06,0,.09l0,0v-.3Z"/><polygon points="243.74 186.05 243.73 186.11 243.72 186.02 243.74 186.05"/><path d="M135.14,202.1a.35.35,0,0,1,.06.17s0,.06-.06.08l0,0v-.29Z"/><polygon points="13.51 203.41 13.54 203.34 13.53 203.44 13.51 203.41"/><path d="M240.1,203.43v-.09l0,0Z"/><polygon points="238.52 206.74 238.55 206.79 238.53 206.72 238.52 206.74"/><polygon points="13.42 212.75 13.36 212.71 13.45 212.73 13.42 212.75"/><path d="M221,11.58l.28.27,0,0H221l0,0v-.29Z"/><path d="M102.44,214.39l0,.28h0v-.3Z"/><path d="M70.2,39.41l-.43-.32,0,0,.44.39Z"/><polygon points="71.2 37.26 71.28 37.3 71.19 37.33 71.2 37.26"/><path d="M69.77,39.09l-.08,0h0Z"/><polygon points="70.68 36.43 70.71 36.48 70.71 36.4 70.68 36.43"/><path d="M75.85,211v0Z"/><polygon points="125.67 40.82 125.57 40.85 125.63 40.82 125.67 40.82"/><path d="M41.66,190.51v.29l-.28-.28Z"/><path d="M197.65,72.63l.27-.27.1.32Z"/><path d="M231.65,24.6v0Z"/><path d="M225.76,200.37h0Z"/><polygon points="35.2 123.63 35.22 123.56 35.17 123.65 35.2 123.63"/><path d="M70.69,202.8v.31a.8.8,0,0,1,0-.21S70.67,202.84,70.69,202.8Z"/><path d="M125.07,44.11v0Z"/><path d="M226.49,20.92v.29l-.29-.29Z"/><path d="M44.37,150.64v.28h-.27v-.27Z"/></svg>