<svg id="Layer_1" data-name="Layer 1" xmlns="http://www.w3.org/2000/svg" viewBox="0 0 20 20"><defs><style>.cls-1{fill:#73af9b;}</style></defs><path class="cls-1" d="M8.43,11.31c-.44.34-.88.7-1.34,1a6.63,6.63,0,0,1-2.64,1.18A2.75,2.75,0,0,1,1.3,12a4.6,4.6,0,0,1,.08-4.46A2.67,2.67,0,0,1,3.79,6.09a4.66,4.66,0,0,1,1.87.44A10.11,10.11,0,0,1,8.15,8.14c.06.06.13.1.19.15l0,0-.15-.19A9.05,9.05,0,0,1,6.4,5a3.27,3.27,0,0,1-.07-2.16A2.8,2.8,0,0,1,8,1.08a4.67,4.67,0,0,1,3.82,0,2.83,2.83,0,0,1,1.7,3.5A7.76,7.76,0,0,1,12.1,7.45c-.21.28-.43.55-.65.82l0,0a1.09,1.09,0,0,0,.17-.13,10.56,10.56,0,0,1,2.16-1.47,5.34,5.34,0,0,1,1.95-.6,2.69,2.69,0,0,1,2.53,1.15A4.12,4.12,0,0,1,19,9.35a4.53,4.53,0,0,1-.33,2.33,2.82,2.82,0,0,1-2.18,1.86,3.89,3.89,0,0,1-2.08-.29,9.68,9.68,0,0,1-2.79-1.76l-.14-.11s0,0-.07,0l.17.22a9.46,9.46,0,0,1,1.75,2.82,3.68,3.68,0,0,1,.24,2.12,2.72,2.72,0,0,1-1.6,2,4.71,4.71,0,0,1-4,.08A2.85,2.85,0,0,1,6.32,15,8,8,0,0,1,7.88,12c.19-.23.38-.47.58-.7l0,0Zm0-2.94.05,0,0,0,0-.06,0,0,0,0Zm2.94,2.93.05.06,0,0,0-.05-.06,0Zm0-2.93,0,.05.06,0,0,0Z"/></svg>